<svg xmlns="http://www.w3.org/2000/svg" data-name="Layer 1" viewBox="0 0 517 516"><g data-name="product planning"><path d="M453,476.85a11.94,11.94,0,0,0-.32-2.74c-1.42-5.61-1.71-11.44-3.22-17a2.24,2.24,0,0,1,.11-1.94,3.11,3.11,0,0,0,0-3.12c-.34-.76-.68-1.53-1.08-2.26-3.84-7.16-7.45-14.44-11.11-21.69-2.9-5.75-5.65-11.58-8.88-17.17q-9-15.67-18.67-31a140.83,140.83,0,0,1-7.28-12.9,24.2,24.2,0,0,1-2.58-9.89,12.68,12.68,0,0,1,1.51-7A223.59,223.59,0,0,0,412,327.63a100.59,100.59,0,0,0,7.32-30.92c.58-6.86.37-13.74.38-20.61,0-1-.12-2-.22-3q-.32-3-.7-6a1.19,1.19,0,0,1,.73-1.41,7,7,0,0,0,3.84-5c.17-.64.36-1.29.5-1.94.61-2.79.8-5.64,1.15-8.46a176.83,176.83,0,0,0,1.13-27.12c-.24-8.29-.34-16.59-.82-24.88-.31-5.44-.59-10.88-1.19-16.3q-.87-7.87-1.83-15.73c-.44-3.66-.88-7.32-1.44-11-.6-3.8-1.34-7.58-2-11.37-.08-.46-.34-1,.15-1.41a36.36,36.36,0,0,0,4,1.43,5.45,5.45,0,0,0,6.85-4.24,29.12,29.12,0,0,0,.53-3.73,41.66,41.66,0,0,0-1.08-13,45.08,45.08,0,0,0-4.63-13c-3.9-6.73-9.46-11.22-17.49-12-.42,0-.83-.13-1.25-.17a32.37,32.37,0,0,0-11.72.71,66.89,66.89,0,0,0-7.81,2.74c-.35.14-.69.48-1.13.11a4.48,4.48,0,0,1,.26-2.2,14.66,14.66,0,0,0,.58-4.46,1.65,1.65,0,0,1,1.33-1.84c2-.72,3.57-2.17,5.29-3.34a4.53,4.53,0,0,0,1.34-1.48,12.22,12.22,0,0,0,1.9-7.9A19.71,19.71,0,0,0,393.78,73c-.73-1.3-1.41-2.62-2.15-4a7.59,7.59,0,0,0,1-.35A.9.9,0,0,0,393,67.2a8.24,8.24,0,0,0-.87-.9c-1.11-1-2.21-2.06-3.36-3a53.7,53.7,0,0,0-16.69-10.06.78.78,0,0,1-.6-.7c.76-.32,1.54-.62,2.3-1a1,1,0,0,0,.64-1,1,1,0,0,0-.81-.86,4.8,4.8,0,0,0-1-.26,36.5,36.5,0,0,0-10.28.11A50.51,50.51,0,0,0,349,54.45c-6.24,3.09-9.66,8.32-11.49,14.81a3,3,0,0,0,.57,3,8.74,8.74,0,0,1,2,4.8c.25,2.08.5,4.16.69,6.24s.25,4,.47,6c.28,2.66.7,5.31,1,8a23.47,23.47,0,0,0,6.06,13.53,21.51,21.51,0,0,0,13.82,7.49c.47,0,1,0,1.41.6-.29.34-.59.74-.93,1.09-1.56,1.63-3.14,3.26-4.72,4.88a172.94,172.94,0,0,0-16.13,19.9,4,4,0,0,1-1.88,1.55c-3.29,1.22-6.57,2.48-9.87,3.69a12.34,12.34,0,0,1-2.68.65,3.81,3.81,0,0,1-3.89-1.76c-.46-.7-.78-1.49-1.26-2.18a5.73,5.73,0,0,1-.91-3.31q-.39-33.7-.85-67.4l-.81-63.39c0-.41,0-.83,0-1.25-.06-1.73-.21-1.9-1.86-1.93-1.26,0-2.52,0-3.78,0l-77,.15-167.53.42c-1.09,0-2.18,0-3.27,0s-1.49.32-1.51,1.51c0,2.18,0,4.36,0,6.54q-.24,75.35-.49,150.67Q64.06,202.88,64,237c0,.67,0,1.35.06,2a.75.75,0,0,0,.63.69,10.24,10.24,0,0,0,1.75.13c2.26,0,4.52-.06,6.79-.08l80.49-.49,81.5-.5q33.45-.19,66.91-.38,9.3-.06,18.61-.2c1.54,0,1.76-.26,1.8-1.74,0-.33,0-.67,0-1q-.21-15.85-.43-31.69-.12-8.31-.25-16.6c0-1.18.14-1.33,1.27-1.3a99.44,99.44,0,0,0,13.8-.58c1.59-.17,3.18-.24,4.77-.36a.51.51,0,0,1,.59.61c-.12,1-.3,2-.48,3a174,174,0,0,0-1.91,20.26,169,169,0,0,0,.53,22.61,115.18,115.18,0,0,0,1.89,14.45c.52,2.54,1.1,5.07,1.52,7.63.74,4.55,1.36,9.12,2.06,13.67a15.08,15.08,0,0,0,1.47,5,7.41,7.41,0,0,0,5.11,4.11c.82.16,1.63.39,2.45.55,1.46.29,2.93.56,4.43.84a6,6,0,0,1,.05,1.08q-.62,6-1.26,12c-.43,4-1.15,8-1.35,12-.16,3.27-.55,6.52-.69,9.79-.22,5.27-.77,10.53-.75,15.82,0,6.87,0,13.75-.47,20.61-.56,7.52-1.06,15.05-1.7,22.57a204.25,204.25,0,0,0-.79,20.84c0,1,.14,2,.25,3a60.12,60.12,0,0,0,2.5,11c3.83,12.22,7.66,24.44,11.61,36.62,3.16,9.71,6,19.52,10.13,28.9.73,1.66.75,1.72,2.57,1.7l3.77,0a1.14,1.14,0,0,1,1.2,1,6.85,6.85,0,0,1,.13,1c.11,1.18,0,1.36-1.13,1.42a14.9,14.9,0,0,0-10,4,12.82,12.82,0,0,1-6,3.05A68.39,68.39,0,0,1,355.57,486a7.9,7.9,0,0,0-6.65,4.28c-1.87,3.29-.67,5.73,1.69,7.44a11.86,11.86,0,0,0,4.08,1.89c2.19.55,4.4,1.07,6.62,1.46,7.5,1.32,15,2.58,22.54,3.84,4,.68,8.11,1.28,12.21,1.56a47.8,47.8,0,0,0,8.28-.31,2.68,2.68,0,0,0,2.27-1.74,5.28,5.28,0,0,0,.45-1.43c.4-2.65.9-5.29,1.05-8,0-.46-.17-1,.42-1.39a9.92,9.92,0,0,1,1.44,0c3.66.47,7.36.47,11,.69a112.37,112.37,0,0,0,19.84-.25,46.19,46.19,0,0,0,7.89-1.52,4.94,4.94,0,0,0,3.93-4.87C452.91,484.05,453,480.45,453,476.85Zm-5.4-24.8c.83,1.63.71,1.93-.55,3.3-.52.55-1,1.1-1.5,1.69a19.79,19.79,0,0,1-4.22,3.9c-1.79,1.23-3.54,2.53-5.31,3.8a.92.92,0,0,1-1.34-.07c-2-2.1-4.1-4.18-6.1-6.32-.84-.89-.79-1.31,0-2.13.53-.52,1.11-1,1.68-1.5a37,37,0,0,0,5.29-5.69c1.29-1.75,2.64-3.46,4-5.15.67-.84,1.42-1.61,2.36-2.66C444,445.1,445.8,448.55,447.57,452.05ZM404.46,466.6c-.22-.72-.45-1.44-.7-2.15a69.54,69.54,0,0,1-2.57-12c-.9-6-1.86-11.91-2.74-17.87-.67-4.47-1.24-9-1.85-13.44-.07-.59-.71-1.38.54-1.5a175.35,175.35,0,0,0,17.66,27.11c1.05,1.31,2.2,2.53,3.27,3.82a20.74,20.74,0,0,0,7,5.66,1.67,1.67,0,0,1,1.16,1.47,3.28,3.28,0,0,0,1.07,1.94l1.87,2.07c-1.53,1.63-2.72,3.44-4.28,5a15.36,15.36,0,0,0-3.19,4.49A11.09,11.09,0,0,1,414,477.5a92.44,92.44,0,0,1-9.59,1.92,3.58,3.58,0,0,1-2.58-.7c-1.79-1.13-2-.64-2.31-3.19-.22-1.66-.62-3.29-.88-4.95-.12-.77.13-1,.93-1.18l2.48-.45a3.86,3.86,0,0,0,1.81-.8A1.4,1.4,0,0,0,404.46,466.6ZM403,371.86c3.53,6.38,7.45,12.53,11.3,18.71q7.65,12.27,14.64,24.92c2.83,5.13,5.31,10.45,8,15.69,1.24,2.47,2.46,4.95,3.73,7.4a1.34,1.34,0,0,1-.22,1.79c-2.5,2.61-4.57,5.57-6.8,8.4a43.5,43.5,0,0,1-6,6,1,1,0,0,1-1.15.13,18.53,18.53,0,0,1-6.2-4.61,124.65,124.65,0,0,1-11.93-15.54c-3.38-5.2-6.72-10.42-9.62-15.91a10,10,0,0,0-1-1.73,12.46,12.46,0,0,1-2.4-7c-.31-3.5-.76-7-1-10.51a136.63,136.63,0,0,1-.27-19.09c.26-3.16.28-6.35.64-9.52A40.82,40.82,0,0,1,398,358.21C398.48,363.23,400.6,367.59,403,371.86ZM363.22,116.71c-7.31-.75-12.56-4.64-16.32-10.76a23,23,0,0,1-3-9.25c-.21-1.57-.34-3.16-.58-4.73-.56-3.65-.66-7.34-.95-11a38.55,38.55,0,0,0-.89-5.44,10.52,10.52,0,0,0-.86-2.35c-.45-.91-.43-1,.38-1.66a33,33,0,0,1,8.47-4.84c2.22-.81,3.1-.88,6-.62-1.06.69-1.76,1.12-2.44,1.59a7.17,7.17,0,0,0-2,1.89,1.55,1.55,0,0,0-.22,1.66,1.37,1.37,0,0,0,1.51.66c.49-.06,1-.22,1.47-.3,1.73-.28,3.46-.65,5.21-.8a15.42,15.42,0,0,1,7.61,1.15,6,6,0,0,1,.63.37c-.2.81-1,.48-1.41.81a1,1,0,0,0-.09,1.52,7.08,7.08,0,0,0,1.55.79,19.14,19.14,0,0,1,7.75,5.39c2.25,2.54,3.28,2.73,6.51.9.22-.12.42-.27.64-.4a4.52,4.52,0,0,1,6.89,3.45,6.62,6.62,0,0,1-1,4.54,3.75,3.75,0,0,1-2.26,1.86,1.79,1.79,0,0,0-1.33,1.66,5.6,5.6,0,0,0-.13,1c.12,2.63-.84,5.11-1,7.7a2.75,2.75,0,0,1-1.61,2.32,41.88,41.88,0,0,0-5.89,4.27c-3.33,2.81-6.77,5.48-9.89,8.53a1.2,1.2,0,0,1-1.54.37A3.8,3.8,0,0,0,363.22,116.71ZM320.71,235.94a.71.71,0,0,1-.46.48,10.79,10.79,0,0,1-1.51.05q-39.62.25-79.24.49l-109.42.65L68,238a14.72,14.72,0,0,1-1.76-.07c-.38,0-.51-.36-.52-.72,0-.67,0-1.34,0-2q.09-22.39.18-44.78.27-81.37.53-162.76c0-4.86.09-9.72.16-14.59,0-1.17.12-1.26,1.31-1.3.92,0,1.84,0,2.77,0q90.68-.19,181.37-.4,31.7-.08,63.39-.23c.42,0,.84,0,1.26,0,1,0,1.13.16,1.15,1.19.11,4.86.23,9.73.29,14.59q.38,30.81.72,61.62.34,25.67.77,51.31a2.3,2.3,0,0,1-.51,1.78c-2-2.89-4-5.76-6-8.66-1.32-1.94-2.62-3.89-3.86-5.88-.75-1.21-1.36-2.5-2-3.76-.47-.89-.88-1.81-1.39-2.67a3.56,3.56,0,0,0-3-2.06,3.08,3.08,0,0,1-2.57-1.77,14.92,14.92,0,0,1-1.22-2.47,38.4,38.4,0,0,1-1.31-4.06,43.65,43.65,0,0,0-4.36-10.12,20.08,20.08,0,0,0-5.53-6.12,8.4,8.4,0,0,0-3.92-1.55,7.4,7.4,0,0,1-3.47-1.29c-1.47-1.11-2.35-.83-3.55.76-.1.13-.19.27-.36.53-2.54-1.41-5.27-2.47-7.76-4-.91-.58-1.89-1.07-2.86-1.56a5.37,5.37,0,0,0-2.93-.49,2.82,2.82,0,0,0-1.95,1,1.89,1.89,0,0,0-.25,2.53,7.46,7.46,0,0,0,1.86,2,60.15,60.15,0,0,0,5.92,4.24c.48.3,1.11.45,1.34,1.14-.22.06-.44.11-.65.19-2.09.71-3,2-2.65,4.19a3.59,3.59,0,0,1-.16,2.15,2.6,2.6,0,0,0,.51,2.6,2.58,2.58,0,0,1,.45,2.34c-.47,2-.27,3.62,2.51,5.16a20.12,20.12,0,0,1,2.95,1.87,13.68,13.68,0,0,0,2.61,1.49c2.47,1.24,4.92,2.51,7.3,3.92a4,4,0,0,1,1.83,2,9.31,9.31,0,0,0,.71,1.32,4.27,4.27,0,0,1,.73,3.53,6.36,6.36,0,0,0,.76,3.89c.77,1.86,1.54,3.71,2.38,5.54,2.91,6.32,5.15,12.9,7.78,19.33,2.32,5.65,4.7,11.28,7.1,16.9A29.37,29.37,0,0,0,307,179c2.41,3.47,5.55,5.77,9.86,6.25.66.07,1.32.21,2,.31,1.26.19,1.26.19,1.32,1.33,0,.25,0,.5,0,.75l.6,47A6.48,6.48,0,0,1,320.71,235.94ZM286.82,121.71l-9.89-5.42c-.66-.36-1.33-.69-2-1a3.57,3.57,0,0,1-2.3-3,7.25,7.25,0,0,0-2.52-4.51A8.34,8.34,0,0,1,268,105a.77.77,0,0,1,.07-.46c.08-.19.24-.21.43-.13a10.64,10.64,0,0,1,4.34,2.89.56.56,0,0,0,.87.07.72.72,0,0,0,.13-.92,6.9,6.9,0,0,0-2.75-2.5c-.66-.37-1.35-.68-2-1.09a2,2,0,0,1-.9-1.94,1.73,1.73,0,0,1,2.23-1.72,13.54,13.54,0,0,1,2.31,1c.75.35,1.48.76,2.25,1.1a.94.94,0,0,0,1.13-.28,1.06,1.06,0,0,0,0-1.37,16.59,16.59,0,0,0-4-3.06,61,61,0,0,1-7.52-5,20.3,20.3,0,0,1-2.2-2,.85.85,0,0,1,.49-1.37,3.16,3.16,0,0,1,2,.15,11.56,11.56,0,0,1,2,1,53.26,53.26,0,0,0,6.17,3.35,19.41,19.41,0,0,1,3.08,1.66,41.57,41.57,0,0,0,8.72,4.36c.48.2.95.39,1.38-.06s0-1-.66-1.37c-1-.47-2-.84-3-1.27s-1.83-.82-2.73-1.27a2.85,2.85,0,0,1-1.32-1.46,1,1,0,0,1,0-.69.38.38,0,0,1,.63-.12,8.63,8.63,0,0,0,4.84,1.84,6.51,6.51,0,0,1,3.36,1.58,22.57,22.57,0,0,1,5.43,6.83,49.88,49.88,0,0,1,3.81,9.8,21.69,21.69,0,0,0,1.17,3.31c.43,1,1,1.91,1.53,2.89a5.13,5.13,0,0,1-2.46,1,46.63,46.63,0,0,0-5.4,2,9.87,9.87,0,0,0-4.25,3c-.72-1-.75-1-.19-1.85A.63.63,0,0,0,286.82,121.71Zm-16.14-9.09a2.47,2.47,0,0,1-1.67-1.4,2,2,0,0,1,0-1.91c.83.1,1.11.74,1.44,1.31C271,111.61,271.1,112.69,270.68,112.62Zm82.65,162a6.4,6.4,0,0,1-4.8-4.34,14.55,14.55,0,0,1-.71-2.91c-.84-5.3-1.59-10.6-2.48-15.89-.67-4-1.53-7.89-2.22-11.85a53.17,53.17,0,0,1-.65-5.48q-.53-7.53-.94-15.06a141.63,141.63,0,0,1,.41-14.57,124.19,124.19,0,0,1,1.86-17c.05-.25.05-.51.12-.75.63-2.44,0-2.12,2.56-2.65,4-.83,7.9-2.16,11.84-3.29l17.62-5c1.05-.3,2.12-.51,3.17-.77a1.61,1.61,0,0,0,1-.71.85.85,0,0,0,0-.94.74.74,0,0,0-.84-.38c-5.07,1.41-10.15,2.81-15.21,4.25-4.67,1.34-9.31,2.73-14,4.09a46.2,46.2,0,0,1-10.37,1.82c-2.59.15-5.17.43-7.76.64a71.59,71.59,0,0,1-14.56-.26,12.1,12.1,0,0,1-8.89-5.49,36.13,36.13,0,0,1-3.36-6.17q-5.49-12.81-10.48-25.82c-1.63-4.3-3.55-8.49-5.35-12.73-.39-.92-.81-1.84-1.15-2.78a5.33,5.33,0,0,1,2.76-6.76,52.75,52.75,0,0,1,9.42-3.41,6.24,6.24,0,0,1,1.49-.16,2.39,2.39,0,0,1,2.32,1.23c1.18,2.12,2.33,4.26,3.48,6.39.24.44,0,.81-.29,1.13a12.19,12.19,0,0,1-4.94,3.34c-1.19.41-2.39.78-3.57,1.2-.93.34-1.36.94-1.05,1.4.41.63,1,.48,1.58.32,3.24-1,6.39-2.06,8.72-4.71a3.71,3.71,0,0,1,.8-.51c4.15,6.42,8.82,12.26,12.35,18.86,1.88,3.51,4.26,4.05,7.79,3.34a19.36,19.36,0,0,0,3.09-1c5.32-2,10.59-4.17,16-6.07,7.27-2.57,14.27-5.75,21.25-9a3.63,3.63,0,0,0,1.69-1,.65.65,0,0,0,0-.9.92.92,0,0,0-.62-.31,4.84,4.84,0,0,0-1.15.43c-7.85,3.55-15.72,7.06-23.87,9.88a1.08,1.08,0,0,1-1.11-.08c1-1.31,1.94-2.66,3-3.95,1.68-2.08,3.36-4.18,5-6.28,1.88-2.36,3.86-4.64,6-6.8,1.4-1.44,2.84-2.86,4.19-4.34a135.75,135.75,0,0,1,16-14.48,41.64,41.64,0,0,1,17.78-8.37,21.47,21.47,0,0,1,6.49-.47c1.92.19,3.84.21,5.76.51a18.3,18.3,0,0,1,8.58,3.9,22.89,22.89,0,0,1,6.93,8.8,58.65,58.65,0,0,1,4.7,18.15,34.24,34.24,0,0,1-.49,8,4.26,4.26,0,0,1-.3,1,3.67,3.67,0,0,1-4.85,2.34,23.49,23.49,0,0,1-2.55-1,77.51,77.51,0,0,0-13.93-5,47.72,47.72,0,0,0-5.68-1.06,15.93,15.93,0,0,0-10.3,2.47,4,4,0,0,0-.9.85c-.24.28.08.89.47,1a1.57,1.57,0,0,0,1.2-.21c3.92-2.52,8.14-2.79,12.57-1.8a76.17,76.17,0,0,1,11.74,3.6,1.82,1.82,0,0,1,1.27,1.62c1.1,7.54,2.65,15,3.41,22.6.65,6.51,1.51,13,2.23,19.48q.4,3.63.59,7.27c.77,15.24,1.45,30.48,1.07,45.74-.12,4.7-.71,9.36-1.2,14-.19,1.84-.44,3.66-.73,5.48-.18,1.07-.47,2.13-.73,3.18a5.66,5.66,0,0,1-4.4,4.35l-5.57,1.52c-7.68,2.05-15.37,4.07-23,6.17A97.13,97.13,0,0,1,364,275.84,45.94,45.94,0,0,1,353.33,274.62Zm26,197.26a1.26,1.26,0,0,1-1.31-1c-.69-1.8-1.44-3.57-2-5.4-1.19-3.57-2.24-7.2-3.46-10.76-3.38-9.91-6.37-19.94-9.54-29.92-2.1-6.63-4.29-13.22-6.32-19.87a43.25,43.25,0,0,1-2.3-11.3,143.43,143.43,0,0,1,.36-17.59c.22-2.25.38-4.51.53-6.77.49-7.78,1.41-15.53,1.59-23.32.12-5.87.43-11.73.3-17.6-.06-3.1.2-6.2.38-9.3.24-4.26.59-8.52.8-12.79.29-5.79,1.19-11.5,1.86-17.24.33-2.83.5-5.68.74-8.52.05-.67.09-1.34.18-2a.85.85,0,0,1,.84-.77c.42,0,.84,0,1.26,0a94.31,94.31,0,0,0,18.73-1.89c.24-.06.49-.08.74-.13a1.38,1.38,0,0,1,1.67.72,38.81,38.81,0,0,0,2.86,4.12c1.65,2,3.43,4,6.36,4.29,0,3.2,0,6,0,8.88a17,17,0,0,0,.67,5.22,8.88,8.88,0,0,0,1.11,2.52,4.54,4.54,0,0,0,1.88,1.62,1.87,1.87,0,0,0,2.58-1.56.71.71,0,0,0-.81-.72,2.63,2.63,0,0,0-.69.3.82.82,0,0,1-1.1-.24,4.85,4.85,0,0,1-1.08-2,15.15,15.15,0,0,1-.8-5.2c.13-5.2.33-10.39.55-15.58.08-1.92.28-3.83.44-5.83.75-.22,1.46-.46,2.17-.65l15.78-4.22c.65-.17,1.3-.34,1.95-.47s.94.08,1,.74a74.2,74.2,0,0,1,.66,9.53c0,5.62,0,11.23-.13,16.85a73.7,73.7,0,0,1-1,9.24,88.46,88.46,0,0,1-4.7,19.25,219.55,219.55,0,0,1-10.18,23q-2.44,4.68-4.7,9.45a52.42,52.42,0,0,0-4.6,18.42,177.37,177.37,0,0,0-.44,20.36c.2,5.53.63,11,1.35,16.53.58,4.49,1,9,1.63,13.47.67,5.07,1.44,10.12,2.19,15.17.57,3.81,1.24,7.61,1.77,11.43.73,5.23,1.44,10.46,3.24,15.46.34.93,0,1.44-1,1.53a28.45,28.45,0,0,0-5.81,1.54c-2.8.86-5.63,1.63-8.44,2.44C384.55,472.08,381.93,471.67,379.34,471.88Zm17.86,9.69a8.71,8.71,0,0,1-9.06-.35,2,2,0,0,1-1.09-1.32,32.74,32.74,0,0,1-1-6.52c1.35-.35,2.64-.66,3.92-1,2-.57,4-1.19,6-1.78.69-.2,1-.06,1.07.58.42,2.73.79,5.46,1.27,8.18A1.88,1.88,0,0,1,397.2,481.57Zm7.81,22a1,1,0,0,1-.76.59,19.27,19.27,0,0,1-3.22.5,56.65,56.65,0,0,1-11.27-.72c-9.83-1.59-19.65-3.25-29.47-4.92a31.08,31.08,0,0,1-6.08-1.51c-1.56-.61-3.12-1.26-4-2.89a.45.45,0,0,1,.15-.62c5.05,2.4,10.49,3.39,16,4.06,7.65.94,15.32,1.69,23,2.54,1.58.18,3.15.42,4.72.66a31.34,31.34,0,0,0,11.1,0A3,3,0,0,1,405,503.56Zm1.07-5.69a1.5,1.5,0,0,1-1.37,1.52,20.87,20.87,0,0,1-7.47.45c-6.29-1-12.63-1.54-18.94-2.3s-12.51-1.16-18.67-2.45a37.06,37.06,0,0,1-6.7-2,4.18,4.18,0,0,1-2.43-1.73,5.55,5.55,0,0,1,4.81-3.44c2.17-.21,4.32-.52,6.48-.78a55.84,55.84,0,0,0,7.59-1.68,8.41,8.41,0,0,0,4.24-2.53c2.84-3.14,6.63-4.05,10.64-4.35.48,0,.68.22.85.69a8.44,8.44,0,0,0,9.5,5.09A8.22,8.22,0,0,0,400,480.9a.67.67,0,0,1,1-.2,9.2,9.2,0,0,1,3.2,3.47,15.85,15.85,0,0,1,2,6.68A51.42,51.42,0,0,1,406.08,497.87Zm44.4-8.28a3.53,3.53,0,0,1-2.33,1.35,45.87,45.87,0,0,1-4.9,1,92.43,92.43,0,0,1-18.29.75c-4.51-.29-9-.47-13.54-.72-.92-.05-1.83-.17-2.74-.31a.61.61,0,0,1-.52-.71c0-.41.33-.55.68-.58a10.36,10.36,0,0,1,1.25-.07c6.54.15,13.05-.39,19.57-.67l19.82-.89a2.54,2.54,0,0,1,.73.05.51.51,0,0,1,.27.77Zm.46-3.85c0,1-.17,1.15-1.2,1.2-2.93.14-5.86.24-8.78.38-5.35.24-10.71.43-16,.77-3.76.24-7.52.47-11.29.49h-4.77a1,1,0,0,1-1.13-.78,26.89,26.89,0,0,0-3-6.62,55.35,55.35,0,0,0,11.78-2.67,10.64,10.64,0,0,0,5.7-4.66,38.85,38.85,0,0,1,3.2-5.09c1.33-1.62,2.85-3.07,4-4.81a1.13,1.13,0,0,1,1.92-.17c.84.81,1.61,1.71,2.44,2.53,1,1,1.54,1.1,2.63.29,3.76-2.77,7.94-5,10.9-8.79.05-.06.15-.06.24-.1.5,0,.4.42.47.69a58.3,58.3,0,0,1,1.14,6.42c.39,3.06,1.07,6.09,1.61,9.14a14.55,14.55,0,0,1,.3,2C451.21,479.21,451.09,482.48,450.94,485.74Z"/><path fill="#070505" d="M370.26,102.12a.91.91,0,0,0-1-.62,13.67,13.67,0,0,0-2.22.34c-3.83.92-7.39,2.64-11.17,3.72a1.57,1.57,0,0,0-.45.22.84.84,0,0,0-.11,1.3c.24.22.54.52.82.52a12.92,12.92,0,0,1,4.28,1.18,6,6,0,0,0,1.11.2,7.62,7.62,0,0,0,3.2-1,22.63,22.63,0,0,0,5.31-4.93A.91.91,0,0,0,370.26,102.12ZM363,106.9a2.78,2.78,0,0,1-3.5-.52,39.16,39.16,0,0,1,6.38-2.32.34.34,0,0,1,.52.07A6.74,6.74,0,0,1,363,106.9Z"/><path fill="#141212" d="M354.57,85.59c-.5-1.6-1.89-1.93-3.08-.73a3.8,3.8,0,0,0-.66,1,6.52,6.52,0,0,0-.51,3.09,2.92,2.92,0,0,0,.06.59,1.75,1.75,0,0,0,1.21,1.47,1.78,1.78,0,0,0,1.81-.61A4.71,4.71,0,0,0,354.57,85.59Zm-2.22,2.65a.44.44,0,0,1-.4.11.8.8,0,0,1-.45-.81,1,1,0,0,1,.56-1c.31-.12.71.38.67,1A4.76,4.76,0,0,1,352.35,88.24Zm.85.72c-.05,0-.16-.14-.22-.24s.09-.16.12-.15a2.78,2.78,0,0,1,.4.16C353.4,88.81,353.31,88.94,353.2,89Z"/><path fill="#1e40af" d="M393.56,284.86c0,3.2,0,6,0,8.88a17,17,0,0,0,.67,5.22,8.88,8.88,0,0,0,1.11,2.52,4.54,4.54,0,0,0,1.88,1.62,1.87,1.87,0,0,0,2.58-1.56.71.71,0,0,0-.81-.72,2.63,2.63,0,0,0-.69.3.82.82,0,0,1-1.1-.24,4.85,4.85,0,0,1-1.08-2,15.15,15.15,0,0,1-.8-5.2c.13-5.2.33-10.39.55-15.58.08-1.92.28-3.83.44-5.83.75-.22,1.46-.46,2.17-.65l15.78-4.22c.65-.17,1.3-.34,1.95-.47s.94.08,1,.74a74.2,74.2,0,0,1,.66,9.53c0,5.62,0,11.23-.13,16.85a73.7,73.7,0,0,1-1,9.24,88.46,88.46,0,0,1-4.7,19.25,219.55,219.55,0,0,1-10.18,23q-2.44,4.68-4.7,9.45a52.42,52.42,0,0,0-4.6,18.42,177.37,177.37,0,0,0-.44,20.36c.2,5.53.63,11,1.35,16.53.58,4.49,1,9,1.63,13.47.67,5.07,1.44,10.12,2.19,15.17.57,3.81,1.24,7.61,1.77,11.43.73,5.23,1.44,10.46,3.24,15.46.34.93,0,1.44-1,1.53a28.45,28.45,0,0,0-5.81,1.54c-2.8.86-5.63,1.63-8.44,2.44-2.55.74-5.17.33-7.76.54a1.26,1.26,0,0,1-1.31-1c-.69-1.8-1.44-3.57-2-5.4-1.19-3.57-2.24-7.2-3.46-10.76-3.38-9.91-6.37-19.94-9.54-29.92-2.1-6.63-4.29-13.22-6.32-19.87a43.25,43.25,0,0,1-2.3-11.3,143.43,143.43,0,0,1,.36-17.59c.22-2.25.39-4.51.53-6.77.49-7.78,1.41-15.53,1.59-23.32.12-5.87.43-11.73.3-17.6-.06-3.1.2-6.2.38-9.3.24-4.26.59-8.52.8-12.79.29-5.79,1.19-11.5,1.86-17.24.33-2.83.5-5.68.74-8.52.05-.67.09-1.34.18-2a.85.85,0,0,1,.84-.77c.42,0,.84,0,1.26,0a94.31,94.31,0,0,0,18.73-1.89c.24-.06.49-.08.74-.13a1.38,1.38,0,0,1,1.67.72,38.81,38.81,0,0,0,2.86,4.12C388.85,282.61,390.63,284.53,393.56,284.86Z"/><path fill="#1e40af" d="M398,358.21c.48,5,2.6,9.38,5,13.65,3.53,6.38,7.45,12.53,11.3,18.71q7.65,12.27,14.64,24.92c2.83,5.13,5.31,10.45,8,15.69,1.24,2.47,2.46,4.95,3.73,7.4a1.34,1.34,0,0,1-.22,1.79c-2.5,2.61-4.57,5.57-6.8,8.4a43.5,43.5,0,0,1-6,6,1,1,0,0,1-1.15.13,18.53,18.53,0,0,1-6.2-4.61,124.65,124.65,0,0,1-11.93-15.54c-3.38-5.2-6.72-10.42-9.62-15.91a10,10,0,0,0-1-1.73,12.46,12.46,0,0,1-2.4-7c-.31-3.5-.76-7-1-10.51a136.63,136.63,0,0,1-.27-19.09c.26-3.16.28-6.35.64-9.52A40.82,40.82,0,0,1,398,358.21Z"/><path fill="#000000" d="M394.39,272.79a4.84,4.84,0,0,1,.15.95c-.19,2.41-.38,4.82-.59,7.23a9.24,9.24,0,0,1-.26,1.47.53.53,0,0,1-.57.37,3.12,3.12,0,0,1-1.85-.67,21.94,21.94,0,0,1-5.45-6.45c-.22-.38.08-.66.4-.74C388.87,274.23,391.53,273.54,394.39,272.79Z"/><path fill="#050303" d="M375.67,267.87a25.78,25.78,0,0,1-6.44-.12c-2.24-.23-4.5-.36-6.76-.52a1.63,1.63,0,0,1-1.34-.54A.92.92,0,0,1,361,266a1.17,1.17,0,0,1,.48-.51.84.84,0,0,1,.48-.08c2.25.16,4.51.28,6.76.52A61,61,0,0,0,379,266a74.67,74.67,0,0,0,16-2.85,32,32,0,0,0,9.51-4.4,7.65,7.65,0,0,1,2.38-1.37.76.76,0,0,1,.86.35.69.69,0,0,1,0,.92,5,5,0,0,1-.76.62,38.73,38.73,0,0,1-14.32,6.4A77.77,77.77,0,0,1,375.67,267.87Z"/><path fill="#070505" d="M355.38,218.75a.55.55,0,0,1,.6.36,8.69,8.69,0,0,1,.37,1.44A32.55,32.55,0,0,0,374.7,244.7a3.39,3.39,0,0,1,1.69,1,1.12,1.12,0,0,1,.1.7.65.65,0,0,1-.71.57,6.41,6.41,0,0,1-1.65-.55,33.77,33.77,0,0,1-18.3-20.53,30.37,30.37,0,0,1-1.24-5.87,1.66,1.66,0,0,1,.05-.74A.75.75,0,0,1,355.38,218.75Z"/><path fill="#080606" d="M394.29,168.19c0-.25,0-.33,0-.42,0-.79.24-1.3.74-1.44s.89.37.95,1.21a25.76,25.76,0,0,0,.89,4.93,29,29,0,0,0,8.47,13.68,43.61,43.61,0,0,0,5.85,4.72,7.39,7.39,0,0,1,1.16.93.67.67,0,0,1,0,.91.72.72,0,0,1-.86.34,12.15,12.15,0,0,1-2-1.1,49.15,49.15,0,0,1-7.86-7A28.73,28.73,0,0,1,394.41,169C394.37,168.69,394.32,168.36,394.29,168.19Z"/><path fill="#080808" d="M409.76,162.22a22.69,22.69,0,0,1-.81,7c-.93,3.47-1.93,6.92-2.94,10.37a3.4,3.4,0,0,1-.83,1.8.82.82,0,0,1-1.4-.64,14.48,14.48,0,0,1,.47-1.68c1.12-3.5,2.18-7,3-10.61a31.79,31.79,0,0,0,.91-9,3.64,3.64,0,0,1,.05-1,.47.47,0,0,1,.52-.42,1.06,1.06,0,0,1,.65.26,1.91,1.91,0,0,1,.36.9C409.79,160.21,409.76,161.22,409.76,162.22Z"/><path fill="#0f0c0c" d="M402.4,143.14c.67.07,1.59.1,2.49.26a4.18,4.18,0,0,1,2.62,1.35.83.83,0,0,1,.14.94.75.75,0,0,1-.86.35,5.2,5.2,0,0,1-.92-.37,10.16,10.16,0,0,0-6.39-.52,2.9,2.9,0,0,0-1.76.87.59.59,0,0,1-.89,0,1,1,0,0,1-.29-.91,1.43,1.43,0,0,1,.94-1.09A14.37,14.37,0,0,1,402.4,143.14Z"/><path fill="#060300" d="M375.25,358.72a1,1,0,0,1-1.16-.86,2.86,2.86,0,0,1,.24-1.2c.7-1.43,1.42-2.84,2.2-4.23,1.39-2.48,2.83-4.93,4.26-7.39a4.59,4.59,0,0,0,.72-3.58,4,4,0,0,1,.6-3.12c2-3.38,4.35-6.55,6.64-9.74a1.81,1.81,0,0,1,.78-.59,1.12,1.12,0,0,1,.69.13.49.49,0,0,1,.21.65,14.09,14.09,0,0,1-.89,1.5c-1.62,2.44-3.25,4.87-4.86,7.32-.42.62-.78,1.28-1.15,1.94a1.93,1.93,0,0,0-.23,1.68,4.6,4.6,0,0,1-.62,4.07c-.93,1.69-1.88,3.36-2.82,5-1.46,2.62-3.27,5.06-4.15,8C375.66,358.51,375.36,358.63,375.25,358.72Z"/><path fill="#110e0e" d="M363.35,80.31c-.49.07-1.06.19-1.64.25a.68.68,0,0,1-.8-.42.83.83,0,0,1,.43-1,4.23,4.23,0,0,1,2.41-.53,9.08,9.08,0,0,1,6.93,3.93,2.81,2.81,0,0,1,.37.91.85.85,0,0,1-.35.88.68.68,0,0,1-.91-.09c-.45-.49-.84-1-1.28-1.52A7.16,7.16,0,0,0,363.35,80.31Z"/><path fill="#150f0f" d="M355.66,79.62a.9.9,0,0,1-.77.83,5.08,5.08,0,0,1-1.23-.18,6.76,6.76,0,0,0-2.48-.26A4.23,4.23,0,0,0,348,81.7c-.25.33-.41.73-.65,1.07a.86.86,0,0,1-1.07.4.92.92,0,0,1-.34-1.29,6,6,0,0,1,4.31-3.51,9.11,9.11,0,0,1,4.69.34A1.06,1.06,0,0,1,355.66,79.62Z"/><path fill="#140f0f" d="M359.82,98.33l.24,0a.76.76,0,0,1,.92.61.8.8,0,0,1-.29.89,2.84,2.84,0,0,1-3.26,0A3.22,3.22,0,0,1,355.58,97,3.13,3.13,0,0,1,358,94.55a.48.48,0,0,1,.24,0c.21.12.48.22.57.4a.76.76,0,0,1,0,.69,10.14,10.14,0,0,1-.94.77c-.65.58-.62,1.06.1,1.61S358.58,98.47,359.82,98.33Z"/><path fill="#262222" d="M386.5,86.16a3.38,3.38,0,0,1-.73,2.21.83.83,0,0,1-1.1.23.68.68,0,0,1-.36-.83,5.58,5.58,0,0,0,.21-2.92.71.71,0,0,1,.66-.87.86.86,0,0,1,.93.65C386.28,85.18,386.4,85.74,386.5,86.16Z"/><path fill="#151414" d="M366.48,85.43a1.7,1.7,0,0,0-1.4-1.52,1.57,1.57,0,0,0-1.68.74,5.24,5.24,0,0,0-.39.87,3.18,3.18,0,0,0-.51,2.55,1.7,1.7,0,0,0,1.06,1.51,1.43,1.43,0,0,0,1.89-.6A3.43,3.43,0,0,0,366.48,85.43Zm-1.78,1.09c-.07.31-.2.62-.3.93-.71.07-1-.27-1-1,0-.33,0-.65,0-1C364.65,85.15,365,85.38,364.7,86.52Zm.69,1.39a3.09,3.09,0,0,1-.43.14l0,0a1.57,1.57,0,0,1,.19-.39c.11-.14.26-.09.34.11C365.49,87.78,365.43,87.89,365.39,87.91Z"/><path d="M231.63,108.17c-.39-2.14-.89-4.25-1.4-6.36a68.45,68.45,0,0,0-3.57-10.54A15.5,15.5,0,0,0,215.76,82a25.41,25.41,0,0,0-5.95-.71,40.29,40.29,0,0,0-10.75,1.37,26,26,0,0,0-7,2.76l-.11.06c-.72.36-.73.36-1.22-.24l-2-2.53a142.71,142.71,0,0,0-10.87-12.06A57.54,57.54,0,0,0,163,60.15a40.55,40.55,0,0,0-12-3.77,83.66,83.66,0,0,0-20.79-.86,92,92,0,0,0-21.56,4.18,1.07,1.07,0,0,1-1.13-.19c-1.57-1.17-3.17-2.3-4.76-3.45a1.65,1.65,0,0,0-.76-.4.49.49,0,0,0-.33.11.33.33,0,0,0-.05.46,4.61,4.61,0,0,0,.75.64c1.58,1.16,3.16,2.31,4.76,3.45a.85.85,0,0,1,.44.82,16.52,16.52,0,0,1-.2,1.86,10.83,10.83,0,0,0-.13,3.11c.11,1.12.21,2.24.29,3.36a34.52,34.52,0,0,0,.9,5.55,62.32,62.32,0,0,0,4.09,11.41,31.77,31.77,0,0,0,2.37,4.27,66.17,66.17,0,0,0,14.71,15.89q7.26,5.61,15.06,10.5a68.51,68.51,0,0,0,7.25,3.93,97.06,97.06,0,0,0,12.74,4.85,1.14,1.14,0,0,1,.9.91c.26,1.18.55,2.35.79,3.54.41,1.91.77,3.83,1.28,5.73a16.57,16.57,0,0,0,6.28,9.08,25.3,25.3,0,0,0,8.35,3.89c2,.58,4.05,1,6.09,1.38a42,42,0,0,0,13.93.27,18.69,18.69,0,0,0,6.83-2.35,15.61,15.61,0,0,0,4.37-3.68,3.6,3.6,0,0,0,.74-3.29c0-.2-.1-.4-.15-.6a1,1,0,0,1-.32-.51.29.29,0,0,1-.11-.19l-1.19-1.24a13,13,0,0,0-6.18-1.73c-1-.06-2.06-.2-3.1-.3a45.76,45.76,0,0,1-4.94-.66,9.63,9.63,0,0,1-5.9-3.45,17.64,17.64,0,0,1-2.29-3.85,2.54,2.54,0,0,1-.14-.47.22.22,0,0,1,.18-.28c.25,0,.5,0,.74-.06,2.19-.24,4.38-.47,6.57-.72a5.3,5.3,0,0,0,2.64-1,2.72,2.72,0,0,0,1.05-3.49c.15-.25.32-.19.5,0l3.65,2.4a47.74,47.74,0,0,0,4.38,2.66c2.1,1.11,4.17,2.28,6.25,3.43.91.5,1.82,1,2.72,1.53a9.41,9.41,0,0,0,2.07.88,2.07,2.07,0,0,0,2.1-.46,2.74,2.74,0,0,0,.95-2.46,3.5,3.5,0,0,0-1.17-2.28,11.82,11.82,0,0,0-1.37-1.08q-3.62-2.36-7.24-4.68L207,118.29a21.37,21.37,0,0,1-2.24-1.39,10.26,10.26,0,0,0,1.22-.54,4.16,4.16,0,0,0,2-3.31,10.42,10.42,0,0,0-.28-3.85,19.13,19.13,0,0,0-1.54-4.08c-.13-.25-.38-.46-.26-.85a4.35,4.35,0,0,1,.57-.13,5.46,5.46,0,0,1,1,0,13.29,13.29,0,0,1,6.63,2.39,29,29,0,0,1,7.51,7.95,7,7,0,0,1,.66,1.2,6.39,6.39,0,0,0,1.9,2.58,6.62,6.62,0,0,0,1.64.56,5,5,0,0,0,4.37-1.71,7.39,7.39,0,0,0,1.74-4.08A15.74,15.74,0,0,0,231.63,108.17Zm-87.41,7.62c-2.48-1.55-4.87-3.21-7.26-4.88s-4.89-3.46-7.25-5.32a65.51,65.51,0,0,1-14.19-15.52,30.21,30.21,0,0,1-2.3-4.17,60.6,60.6,0,0,1-4.12-11.79,32.83,32.83,0,0,1-.64-4c-.16-1.41-.24-2.82-.37-4.23a9.51,9.51,0,0,1,.07-2.5,11.13,11.13,0,0,0,.26-2.23c0-.39.21-.59.57-.7,1.16-.35,2.3-.77,3.47-1.08a101.18,101.18,0,0,1,20.1-3.18,1,1,0,0,1,.24,0c.3-.07,2.34-.06,2.53-.11a35.52,35.52,0,0,1,5.36,0,83.75,83.75,0,0,1,11.91,1.4,40.42,40.42,0,0,1,9.16,2.93,61.63,61.63,0,0,1,8.42,4.91,60.8,60.8,0,0,1,8,6.72,1.78,1.78,0,0,1,.59,1.54,28.7,28.7,0,0,1-1.69,7.55,54.76,54.76,0,0,1-4.79,9.9A74.08,74.08,0,0,1,162,104.57a55.88,55.88,0,0,1-9.13,7.75,30,30,0,0,1-6.19,3.27l-1.06.37A1.43,1.43,0,0,1,144.22,115.79Zm21.93,9.64c-1.28-.38-2.57-.72-3.83-1.18-2.39-.86-4.76-1.78-7.13-2.71a68.24,68.24,0,0,1-8.19-4c-.29-.16-.55-.36-.81-.53,0-.25.16-.3.31-.35a32.08,32.08,0,0,0,8.2-4.49,64.84,64.84,0,0,0,11.5-10.89q1.77-2.1,3.38-4.34c.16-.23.36-.45.52-.65a47.8,47.8,0,0,0,5.61.77c1.66.16,3.32.27,5,.4l.86.11c.27,0,.61,0,.42.48l-9.44.92-2.48.29a1.71,1.71,0,0,0-.82.28.43.43,0,0,0-.05.65,1.18,1.18,0,0,0,.67.28,36,36,0,0,0,3.73.38l4,.21c.25,0,.49.08.73.11a7.29,7.29,0,0,1,2,0c2.66.07,5.32.17,8,.25.63,0,.9-.12.88-.42s-.29-.44-.9-.49c-.33,0-.66,0-1,0L177,100.12c-.12,0-.24-.05-.37-.07s-.38-.09-.58,0a.44.44,0,0,1-.2,0c-.24,0-.58,0-.41-.41a.31.31,0,0,1,.23,0l.3,0c2.49-.25,5-.49,7.47-.77,1.33-.14,2.65-.34,4-.53a1.58,1.58,0,0,0,.93-.32.45.45,0,0,0,0-.66,2,2,0,0,0-1-.25l-5.11-.38c-3.58-.26-7.15-.48-10.71-.94l-.38,0c-.48-.05-.58-.23-.31-.62A59.89,59.89,0,0,0,174.6,89a47.08,47.08,0,0,0,4.53-11.5c.22-1,.33-2,.49-3a.65.65,0,0,1,.16-.48c.27,0,.38.22.53.38,3.17,3.38,6.22,6.87,9.07,10.51,1.47,1.87,3,3.72,4.48,5.55a1.26,1.26,0,0,1,.33,1.25c-.34,1.17-.61,2.35-1,3.49a44.3,44.3,0,0,1-4.27,8.75c-.31.5-.61,1-.94,1.48s-.32.36-.71.11L183,102.81a7.65,7.65,0,0,0-2.16-1,1.91,1.91,0,0,0-2.31,1,3.7,3.7,0,0,0-.42,1.43,4.88,4.88,0,0,0,1.55,2.22c1.4,1.25,2.82,2.48,4.33,3.59.38.28.4.41.09.8a64.72,64.72,0,0,1-4.75,5.31,64,64,0,0,1-10.19,8.45l-1.26.81a.92.92,0,0,1-.82.14C166.73,125.53,166.43,125.51,166.15,125.43Zm25.16,7.48a10.45,10.45,0,0,0,6.4,4.06c2.42.5,4.88.67,7.32.93,1.33.15,2.66.21,4,.48A8.54,8.54,0,0,1,212,139.7a1.46,1.46,0,0,1,.19.16,3,3,0,0,1,.32,4.61,15.6,15.6,0,0,1-5,3.72,18.62,18.62,0,0,1-5.74,1.7,41.83,41.83,0,0,1-12.83-.26,66.56,66.56,0,0,1-7.66-1.8,20.87,20.87,0,0,1-9.15-5.43,15,15,0,0,1-3.48-6,49.1,49.1,0,0,1-1.27-5.36c-.25-1.27-.54-2.53-.81-3.79a1,1,0,0,1,0-.77l4.4.86a49.33,49.33,0,0,0,12.3,1.06c1.42-.09,2.83-.12,4.25-.17l.75,0c.58,0,.62,0,.83.55A17,17,0,0,0,191.31,132.91Zm8.9-8.28a.34.34,0,0,1-.38.25,8.13,8.13,0,0,1-.86-.15,22.34,22.34,0,0,1-4.71-1.66,2.69,2.69,0,0,0-1.06-.37.37.37,0,0,0-.39.24.35.35,0,0,0,.12.44,3.78,3.78,0,0,0,.66.35,45.43,45.43,0,0,0,4.56,1.72,1,1,0,0,1,.84.33,1.88,1.88,0,0,1-1.25.41,20.07,20.07,0,0,1-7.43-1.38c-.31-.11-.62-.23-.94-.31a.34.34,0,0,0-.38.25.42.42,0,0,0,.08.35,2.41,2.41,0,0,0,.63.38c.82.31,1.65.59,2.47.88.38,0,.76,0,.81.55a45.94,45.94,0,0,1-4.83.35c-2.41.1-4.81.17-7.21.24a44.85,44.85,0,0,1-9.39-1,6.59,6.59,0,0,1-1.7-.35.92.92,0,0,1-.81-.35c.13-.1.25-.22.38-.31A68.35,68.35,0,0,0,184.28,112c1-1.16.71-1.2,2-.24q5.19,3.81,10.39,7.59c.5.37,1,.69,1.55,1a4.12,4.12,0,0,1,1.9,2.47c-.39,0-.54-.25-.77-.37s-.51-.27-.76-.43a22.08,22.08,0,0,0-4.25-1.81.68.68,0,0,0-.37,0c-.15,0-.33.07-.38.27a.37.37,0,0,0,.15.44,7,7,0,0,0,.8.32,20.12,20.12,0,0,1,4.84,2.31,5.9,5.9,0,0,1,.78.62A.44.44,0,0,1,200.21,124.63Zm5.72-6c1.71,1,3.39,2.13,5.07,3.2,3.09,2,6.18,3.95,9.25,5.94a17,17,0,0,1,1.6,1.19,2.78,2.78,0,0,1,.9,1.33,2,2,0,0,1-.32,1.9,1.22,1.22,0,0,1-1.41.55,5.54,5.54,0,0,1-1.05-.4q-2.33-1.23-4.63-2.49c-1.46-.79-2.9-1.64-4.39-2.39a50.85,50.85,0,0,1-5.37-3.18c-2-1.35-4-2.65-6-4-3-2.09-5.91-4.18-8.8-6.37-2.42-1.83-4.92-3.56-7.35-5.38-1.1-.82-2.12-1.75-3.15-2.65a6.57,6.57,0,0,1-1-1.12,1.32,1.32,0,0,1,.12-1.73,1.15,1.15,0,0,1,1.46-.31l.38.14a7.73,7.73,0,0,1,1.51.83c3.92,2.52,7.87,5,11.78,7.55,2.27,1.47,4.49,3,6.73,4.54C202.78,116.79,204.36,117.73,205.93,118.67Zm.82-9.52c-.18.4-.41.33-.66.07a18.89,18.89,0,0,0-4-2.72,2.49,2.49,0,0,0-.58-.2.34.34,0,0,0-.41.21.4.4,0,0,0,.1.45,3.55,3.55,0,0,0,.53.32,21.07,21.07,0,0,1,3.62,2.44,7.88,7.88,0,0,1,1.45,1.71,2,2,0,0,1,.19,2c-.32.11-.4-.13-.53-.26a53.22,53.22,0,0,0-4.24-3.7,2.19,2.19,0,0,0-1-.54.44.44,0,0,0-.33.1.31.31,0,0,0,0,.45,4.4,4.4,0,0,0,.63.59c1.25,1,2.5,2.08,3.74,3.13.28.24.54.52.8.79.57.6.55.76,0,1.3a.58.58,0,0,1-.79.09,17.45,17.45,0,0,1-2.2-1.64c-1-.87-2-1.77-3-2.65a2.28,2.28,0,0,0-.5-.36.39.39,0,0,0-.45.12.35.35,0,0,0,0,.46,7.77,7.77,0,0,0,.69.72,41.25,41.25,0,0,0,4.12,3.44,3.93,3.93,0,0,1,.47.44,5.1,5.1,0,0,1-2.73-.94c-1.08-.7-2.15-1.43-3.21-2.17-2.74-1.9-5.54-3.71-8.36-5.48l-1.16-.74a.39.39,0,0,1-.12-.62c.65-1.07,1.3-2.14,1.92-3.22A41,41,0,0,0,195,92.35a1,1,0,0,1,.14-.24c.1,0,.23.07.3.15a92.44,92.44,0,0,1,8.69,11.13A18,18,0,0,1,206.75,109.15Zm24.11,4.66a5.92,5.92,0,0,1-1.5,2.85,3.76,3.76,0,0,1-4.55.88,3.29,3.29,0,0,1-1.42-1.53A27.64,27.64,0,0,0,215,106.1a14.58,14.58,0,0,0-6.89-2.78,7.54,7.54,0,0,0-2.87.19c-.39-.59-.76-1.14-1.14-1.69a87.19,87.19,0,0,0-6.35-8.21c-1.72-2-3.4-4-5.09-6-.21-.26-.43-.52-.61-.79a.31.31,0,0,1,.15-.5c.71-.35,1.41-.73,2.13-1.06a32.31,32.31,0,0,1,7-2.2c1.43-.28,2.88-.49,4.32-.67a30.17,30.17,0,0,1,8.11.14,15.34,15.34,0,0,1,9.62,5.13,16.1,16.1,0,0,1,2.66,4.5,79.76,79.76,0,0,1,4.41,14.73c.25,1.31.49,2.62.61,4A10.62,10.62,0,0,1,230.86,113.81Z"/><path fill="#020101" d="M151.21,84a11.67,11.67,0,0,0-7.06-4.21,12.93,12.93,0,0,0-10.05,2,11.47,11.47,0,0,0-5.32,8.39,11.06,11.06,0,0,0,6.76,11.46,12.76,12.76,0,0,0,9.29.53,12.44,12.44,0,0,0,8.14-7.4A10.69,10.69,0,0,0,151.21,84Zm-1.69,14.36a12,12,0,0,1-11.68,3.13,10.52,10.52,0,0,1-6-3.8,9.78,9.78,0,0,1-1.59-9.79A11.6,11.6,0,0,1,137.71,81a11.87,11.87,0,0,1,7.87.13,10.2,10.2,0,0,1,6.67,6.64A9.8,9.8,0,0,1,149.52,98.35Z"/><path fill="#1e40af" d="M205.2 103.51l-1.13-1.69a89 89 0 00-6.36-8.21c-1.72-2-3.4-4-5.09-6a8.8 8.8 0 01-.61-.79.31.31 0 01.15-.5c.71-.35 1.41-.73 2.13-1.06a32.31 32.31 0 017-2.2c1.43-.28 2.88-.49 4.32-.67a30.17 30.17 0 018.11.14 15.34 15.34 0 019.62 5.13 16.1 16.1 0 012.66 4.5 79.76 79.76 0 014.41 14.73c.25 1.31.49 2.62.61 4a10.62 10.62 0 01-.2 3 5.92 5.92 0 01-1.5 2.85 3.76 3.76 0 01-4.55.88 3.29 3.29 0 01-1.42-1.53A27.64 27.64 0 00215 106.1a14.58 14.58 0 00-6.89-2.78A7.54 7.54 0 00205.2 103.51zM166.54 126.47l4.4.86a49.33 49.33 0 0012.3 1.06c1.42-.09 2.83-.12 4.25-.17l.75 0c.58 0 .62 0 .83.55a17 17 0 002.24 4.18 10.45 10.45 0 006.4 4.06c2.42.5 4.88.67 7.32.93 1.33.15 2.66.21 4 .48A8.54 8.54 0 01212 139.7a1.46 1.46 0 01.19.16 3 3 0 01.32 4.61 15.6 15.6 0 01-5 3.72 18.62 18.62 0 01-5.74 1.7 41.83 41.83 0 01-12.83-.26 66.56 66.56 0 01-7.66-1.8 20.87 20.87 0 01-9.15-5.43 15 15 0 01-3.48-6 49.1 49.1 0 01-1.27-5.36c-.25-1.27-.54-2.53-.81-3.79A1 1 0 01166.54 126.47zM182 98l-9.44.92-2.48.29a1.71 1.71 0 00-.82.28.43.43 0 00-.05.65 1.18 1.18 0 00.67.28 36 36 0 003.73.38l4 .21c.25 0 .49.08.73.11.63.29.46.73.29 1.22s-.75 1.16-.54 1.91a4.88 4.88 0 001.55 2.22c1.4 1.25 2.82 2.48 4.33 3.59.38.28.4.41.09.8a64.72 64.72 0 01-4.75 5.31 64 64 0 01-10.19 8.45l-1.26.81a.92.92 0 01-.82.14c-.28-.07-.58-.09-.86-.17-1.28-.38-2.57-.72-3.83-1.18-2.39-.86-4.76-1.78-7.13-2.71a67.51 67.51 0 01-8.19-4c-.29-.16-.55-.36-.81-.53 0-.25.16-.3.31-.35a32.08 32.08 0 008.2-4.49 64.84 64.84 0 0011.5-10.89q1.77-2.1 3.38-4.34c.16-.23.36-.45.52-.65a47.8 47.8 0 005.61.77c1.66.16 3.32.27 5 .4l.86.11C181.83 97.59 182.17 97.58 182 98z"/><path fill="#1e40af" d="M178.06 104.28a.5.5 0 01-.15-.56c.14-.39.28-.77.44-1.15a1.49 1.49 0 000-1.42 7.29 7.29 0 012 0c2.66.07 5.32.17 8 .25.63 0 .9-.12.88-.42s-.29-.44-.9-.49c-.33 0-.66 0-1 0L177 100.12c-.12 0-.24-.05-.37-.07s-.38-.09-.58 0a.44.44 0 01-.2 0c-.24 0-.58 0-.41-.41a.31.31 0 01.23 0l.3 0c2.49-.25 5-.49 7.47-.77 1.33-.14 2.65-.34 4-.53a1.58 1.58 0 00.93-.32.45.45 0 000-.66 2 2 0 00-1-.25l-5.11-.38c-3.58-.26-7.15-.48-10.71-.94l-.38 0c-.48-.05-.58-.23-.31-.62A59.89 59.89 0 00174.6 89a47.08 47.08 0 004.53-11.5c.22-1 .33-2 .49-3a.65.65 0 01.16-.48c.27 0 .38.22.53.38 3.17 3.38 6.22 6.87 9.07 10.51 1.47 1.87 3 3.72 4.48 5.55a1.26 1.26 0 01.33 1.25c-.34 1.17-.61 2.35-1 3.49a44.3 44.3 0 01-4.27 8.75c-.31.5-.61 1-.94 1.48s-.32.36-.71.11L183 102.81a7.65 7.65 0 00-2.16-1 1.91 1.91 0 00-2.31 1A3.7 3.7 0 00178.06 104.28zM130.22 87.89A11.6 11.6 0 01137.71 81a11.87 11.87 0 017.87.13 10.2 10.2 0 016.67 6.64 9.8 9.8 0 01-2.73 10.55 12 12 0 01-11.68 3.13 10.52 10.52 0 01-6-3.8A9.78 9.78 0 01130.22 87.89z"/><path fill="#0c0a0a" d="M134.6,56.45l.49.13c.12.47.08.64-.18.69-.41.07-.82.11-1.23.19a18.26,18.26,0,0,0-6.26,2.74,5.3,5.3,0,0,0-.84.73.44.44,0,0,1-.66,0,.48.48,0,0,1,0-.68,6,6,0,0,1,.86-.72,17.39,17.39,0,0,1,5.51-2.59l1-.27A4,4,0,0,0,134.6,56.45Z"/><path fill="#020101" d="M159.34,96.2a15.9,15.9,0,0,0-1.54-10.68,20.91,20.91,0,0,0-16.63-11.13,17.56,17.56,0,0,0-10.28,2,14.2,14.2,0,0,0-7.63,11.09,15.94,15.94,0,0,0,2.08,10A20.5,20.5,0,0,0,136,106.66a19.38,19.38,0,0,0,6.57,1.41A17.23,17.23,0,0,0,153,105.4,14.13,14.13,0,0,0,159.34,96.2ZM149,106.34a18,18,0,0,1-8.65.59,25.07,25.07,0,0,1-3.77-1A20.06,20.06,0,0,1,126.11,97a15.18,15.18,0,0,1-2.06-7.4,13.36,13.36,0,0,1,8-12.81,16.93,16.93,0,0,1,11.47-1.16,20,20,0,0,1,10.57,6,17.53,17.53,0,0,1,4.05,7A13.9,13.9,0,0,1,149,106.34Z"/><path fill="#010000" d="M267.11,180.26a19.46,19.46,0,0,0-1-2.95,34.86,34.86,0,0,0-3.78-6.47c-1.66-2.3-3.47-4.48-5.28-6.66-1.65-2-3.29-4-4.77-6.11a62.79,62.79,0,0,1-6.61-12.33c-1.14-2.78-2.25-5.58-3.41-8.35a45.75,45.75,0,0,0-3.64-6.84,30.23,30.23,0,0,0-11.84-10.48c-1.37-.72-2.82-1.24-4.23-1.87-1.57.34-2.9-.62-4.37-.83a22.79,22.79,0,0,1-2.92-.66,31.21,31.21,0,0,0,4.14,1.22,33.6,33.6,0,0,1,14.69,8,31.94,31.94,0,0,1,6.55,9.4c1.76,3.56,3.17,7.27,4.65,10.94A68.22,68.22,0,0,0,257,165.07a61.4,61.4,0,0,1,7.4,10.07,21.19,21.19,0,0,1,2.17,5.32,11.13,11.13,0,0,1-1.08,8.34,14,14,0,0,1-14.79,7.07,15.23,15.23,0,0,1-5.5-2.35c-2.06-1.36-4-2.93-5.9-4.44-.27-.2-.6-.41-.59-.82-.21-.37-.61-.51-.94-.75s.91.46,1.22.57c.68-.2,1.24.31,1.87.46a29.53,29.53,0,0,0,5,1.81c8.12,1.42,12.33-5,11.45-11.51-.73-5.38-3.44-9.75-7.14-13.6-4.66-4.85-10.29-8.33-16.08-11.59a107.7,107.7,0,0,1-14.21-9.09,50.74,50.74,0,0,1-13-15.41,5.08,5.08,0,0,0-.44-.75s-.07,0-.11-.05a38.08,38.08,0,0,0,5.29,8.32c.48.59,1.17,1.09,1.17,2l0,.06a2.75,2.75,0,0,0,.61.79l.28.35.19.21.27.28a.94.94,0,0,0,.22.12.53.53,0,0,1,.28.23,3.68,3.68,0,0,1,.37.32,42.93,42.93,0,0,0,4.59,4,103.72,103.72,0,0,0,13.33,8.6q4,2.21,7.84,4.67a49.74,49.74,0,0,1,9.92,8.33,25,25,0,0,1,4.82,7.56,17,17,0,0,1,1.32,5.7,10,10,0,0,1-1.44,6.1,8,8,0,0,1-6.33,3.93,11,11,0,0,1-5.38-.85c-.65-.28-1.28-.61-1.95-.86-2.54-1-4.88-2.34-7.32-3.52-1.66-.79-3.29-1.62-5-2.31-2.36-1-4.77-1.77-7.2-2.52a7.12,7.12,0,0,0-3.21-.2,4.14,4.14,0,0,0-3.33,4,6.09,6.09,0,0,0,.63,2.52c.36.71.77,1.39,1.18,2.07a22,22,0,0,1,1.95,3.91,12.58,12.58,0,0,1,.81,5.15,8.32,8.32,0,0,1-2,5.14,9.66,9.66,0,0,0-.89,1.21,4.65,4.65,0,0,0-.35,4.08,1.5,1.5,0,0,0,.35.51.38.38,0,0,0,.33,0c.1,0,.23-.18.22-.26,0-.33-.12-.65-.19-1a4,4,0,0,1,.65-3.33c.17-.23.35-.47.54-.69a9.36,9.36,0,0,0,2.27-6.58,13.7,13.7,0,0,0-.77-4.29,22.69,22.69,0,0,0-2.14-4.37c-.39-.65-.77-1.29-1.12-2a4.77,4.77,0,0,1-.55-2,3.15,3.15,0,0,1,2.55-3.25,5.09,5.09,0,0,1,2.36.09,36.94,36.94,0,0,1,3.67,1.26c1.3.57,2.61,1.11,3.91,1.67.46.2.9.44,1.35.67,1.49.74,2.86,1.71,4.28,2.57a54.69,54.69,0,0,1,5.69,3.86c.78.63,1.58,1.22,2.37,1.83a21.45,21.45,0,0,0,7.53,3.85c.44.12.89.21,1.34.29a11.54,11.54,0,0,0,4.22-.28,13.51,13.51,0,0,0,8.37-4.83c.3-.39.62-.78.91-1.19A11.67,11.67,0,0,0,267.11,180.26Z"/><path fill="#020101" d="M213.5,52.76l-4.17-2a66.34,66.34,0,0,0-8.63-3.34,100.42,100.42,0,0,0-34.33-4.14,132.85,132.85,0,0,0-24,3.18,2.6,2.6,0,0,1-1.23.17.51.51,0,0,1-.27-.23c-.1-.17,0-.32.15-.41a3.16,3.16,0,0,1,1.18-.39,130.93,130.93,0,0,1,14.05-2.42,127.14,127.14,0,0,1,23.57-.58,97.68,97.68,0,0,1,14.82,2.25A79.78,79.78,0,0,1,209.89,50c1,.44,1.89.9,2.8,1.4a15.13,15.13,0,0,0,2.39,1.09l.23.1a.33.33,0,0,1,.2.4.36.36,0,0,1-.47.28c-.51-.17-1-.38-1.52-.58Z"/><path fill="#030202" d="M176.66 167.05a63.58 63.58 0 01-13.26-8.66 111 111 0 01-13.61-13.56c-3.2-3.73-6.38-7.48-9.57-11.21a6 6 0 00-1.12-1.18.92.92 0 01-.25-.27c-.12-.22-.23-.46 0-.69s.47-.19.75.1.68.73 1 1.11c3.2 3.74 6.38 7.48 9.58 11.21a115.21 115.21 0 0012.22 12.48 74.09 74.09 0 0010.16 7.46 48.55 48.55 0 005.79 3 2.11 2.11 0 01.87.47.32.32 0 01.09.34.3.3 0 01-.27.21 2.05 2.05 0 01-.61-.1C177.82 167.51 177.24 167.28 176.66 167.05zM134.45 42.92c-.06-.09-.15-.15-.15-.22a.51.51 0 01.09-.33 1.38 1.38 0 01.44-.21 63.38 63.38 0 0111.77-2.87c3-.51 6.07-1.06 9.12-1.52a107.78 107.78 0 0112.92-1.35 63 63 0 0114.17 1.11 2 2 0 01.58.21.42.42 0 01.13.33.41.41 0 01-.22.26 2.32 2.32 0 01-1.11 0 67.39 67.39 0 00-9.19-1 60.64 60.64 0 00-7.86.19c-4.4.39-8.78 1-13.13 1.73-3.57.63-7.16 1.18-10.7 2a39 39 0 00-5.19 1.41c-.43.15-.88.24-1.33.35A1.27 1.27 0 01134.45 42.92zM171 172.43a24.39 24.39 0 01-4.63-2.71 68.39 68.39 0 01-11.12-10.18c-2.52-2.83-4.88-5.8-7.16-8.83-2.51-3.32-5-6.66-7.51-10-.23-.3-.44-.6-.65-.92a1.67 1.67 0 01-.2-.45.37.37 0 01.17-.42.34.34 0 01.46 0c.22.25.41.52.61.79 3.54 4.74 7 9.51 10.71 14.15A86.73 86.73 0 00162 165.08a51.57 51.57 0 007.15 5.43A14.83 14.83 0 00172 172a1.89 1.89 0 01.46.2.28.28 0 01.14.31.38.38 0 01-.34.31.94.94 0 01-.37 0z"/><path fill="#050404" d="M270.74,155.78c-.13.12-.3.22-.44.09a2.3,2.3,0,0,1-.46-.57c-.85-1.49-1.74-3-2.52-4.47-2.45-4.75-4.66-9.61-6.75-14.53-.18-.42-.35-.85-.49-1.28-.07-.23-.13-.5.18-.65s.39,0,.55.33c.64,1.46,1.25,2.92,1.9,4.36,1.65,3.65,3.29,7.31,5.14,10.86.82,1.6,1.71,3.16,2.56,4.74q.21.38.39.78A.29.29,0,0,1,270.74,155.78Z"/><path fill="#070505" d="M255,131.05c.13.21.26.37.35.55.72,1.55,1.45,3.1,2.14,4.66,1,2.29,2,4.58,3,6.88.72,1.64,1.39,3.3,2.25,4.88a1.65,1.65,0,0,1,.19.58.38.38,0,0,1-.16.3.37.37,0,0,1-.34,0,2.09,2.09,0,0,1-.47-.56c-.45-.85-.9-1.69-1.29-2.57q-2.61-6-5.2-11.91c-.3-.69-.6-1.38-.89-2.07a.64.64,0,0,1,0-.47C254.65,131.19,254.84,131.14,255,131.05Z"/><path fill="#080707" d="M215.83,225a1.25,1.25,0,0,1-.15.24c-.08.09-.17.21-.31.15a.64.64,0,0,1-.27-.22.74.74,0,0,1,0-.6c.24-1.1.47-2.2.73-3.3a32.24,32.24,0,0,0,1-4.76,7.59,7.59,0,0,0-.17-3.35.39.39,0,0,1,0-.24.29.29,0,0,1,.11-.21.51.51,0,0,1,.36,0,.76.76,0,0,1,.38.47,5,5,0,0,1,.26,1.72,18.42,18.42,0,0,1-.67,5.06c-.37,1.5-.73,3-1.1,4.49Z"/><path fill="#050303" d="M216.26 120.14a15.42 15.42 0 014.84 2.72A54 54 0 01233 136a15.34 15.34 0 01.86 1.53 1.08 1.08 0 01.11.47.38.38 0 01-.17.28.43.43 0 01-.35 0c-.24-.1-.33-.36-.45-.57a56.77 56.77 0 00-8-10.21 37.06 37.06 0 00-6.21-5.17 18.12 18.12 0 00-3.23-1.63c-.43-.17-.84-.36-1.25-.57a.35.35 0 01-.14-.44.33.33 0 01.4-.21C215.18 119.71 215.76 119.94 216.26 120.14zM230.24 143a72.6 72.6 0 01-9-4.35 33.55 33.55 0 01-7.87-5.88c-.17-.18-.4-.32-.42-.6a.39.39 0 01.05-.23c.06-.14.19-.15.31-.14a1 1 0 01.62.39 35.32 35.32 0 006.44 4.9 47.56 47.56 0 004.48 2.47l4.4 2.1a34.58 34.58 0 004 1.55c.31.11.62.23.92.37a.33.33 0 01.15.43.39.39 0 01-.39.24 2.55 2.55 0 01-.61-.13A27.94 27.94 0 01230.24 143z"/><path fill="#090606" d="M233.94,141.93a.4.4,0,0,1-.48.12c-.21-.1-.27-.31-.37-.49a33.35,33.35,0,0,0-7.65-9.31c-.19-.17-.39-.32-.57-.5a.31.31,0,0,1,0-.44.42.42,0,0,1,.45-.14,3.16,3.16,0,0,1,1,.72,35,35,0,0,1,5.89,6.44,24.48,24.48,0,0,1,1.38,2.24,6.25,6.25,0,0,1,.41,1C234,141.72,234,141.86,233.94,141.93Z"/><path fill="#ad6703" d="M182,98c0-.27-.25-.35-.42-.48a3.7,3.7,0,0,1,1.59.06c.27,0,.29.14.17.34A3.38,3.38,0,0,1,182,98Z"/><path fill="#b55d03" d="M175.48,99.61c.06.21.26.28.41.41a.91.91,0,0,1-.79,0,.25.25,0,0,1,.06-.38A.24.24,0,0,1,175.48,99.61Z"/><path fill="#764a02" d="M183.32,98l-.17-.34a1.16,1.16,0,0,1,.84.06c0,.09,0,.16,0,.2s-.08.07-.1.06Z"/><path fill="#c9b7b7" d="M169,125.79l.81.35a1.08,1.08,0,0,1-.91-.14C168.84,125.93,168.89,125.8,169,125.79Z"/><path fill="#8f4e02" d="M174.27,100a.5.5,0,0,1-.46,0,.61.61,0,0,1-.17-.15s.08-.13.13-.13a5.65,5.65,0,0,1,.59,0C174.46,99.8,174.43,99.9,174.27,100Z"/><path fill="#503101" d="M183.88,97.93l.11-.25c.14-.1.29-.15.35.06,0,0-.14.14-.23.18A.59.59,0,0,1,183.88,97.93Z"/><path fill="#b55d03" d="M176.09,100a.44.44,0,0,1,.58,0A.53.53,0,0,1,176.09,100Z"/><path fill="#b16503" d="M175.16,99.62l-.06.38,0,0c-.23,0-.43,0-.5-.28A.74.74,0,0,1,175.16,99.62Z"/><path fill="#b55d03" d="M174.58,99.69l.5.28a.51.51,0,0,1-.57,0,.18.18,0,0,1,0-.2c0-.06.06-.08.08-.07Z"/><path fill="#0c0a0a" d="M134.26,56a.49.49,0,0,1-.53,0A.49.49,0,0,1,134.26,56Z"/><path fill="#b55d03" d="M176,99.56a.21.21,0,0,1-.3,0A.2.2,0,0,1,176,99.56Z"/><path fill="#b16503" d="M174.59,99.71l-.08.27a.49.49,0,0,1-.24,0l.09-.29A.27.27,0,0,1,174.59,99.71Z"/><path fill="#0b0909" d="M161.2 65c0 .06-.09.2-.19.24a2.91 2.91 0 01-.59.19 26.21 26.21 0 00-6.13 2.46A6.5 6.5 0 00152.67 69a.35.35 0 01-.55 0 .51.51 0 01-.06-.58.93.93 0 01.22-.3 5.2 5.2 0 01.59-.46 23.18 23.18 0 017.58-3.11 1.21 1.21 0 01.5 0C161.12 64.56 161.22 64.7 161.2 65zM152.85 61.57a.85.85 0 01-.2.24 1 1 0 01-.35.11 20 20 0 00-7.76 3.52c-.34.24-.63.25-.76 0s-.08-.47.23-.75a5.13 5.13 0 01.69-.54 21.75 21.75 0 016.58-2.89 2.7 2.7 0 011.35-.13A.31.31 0 01152.85 61.57z"/><path fill="#0d0a0a" d="M155,70.67a.27.27,0,0,1-.16-.31.85.85,0,0,1,.17-.45,4.19,4.19,0,0,1,.77-.62,16.46,16.46,0,0,1,6.88-2.46,3.26,3.26,0,0,1,.62,0,.41.41,0,0,1,.39.41c0,.2-.12.29-.29.34l-.37.07a15.7,15.7,0,0,0-7.45,3A.46.46,0,0,1,155,70.67Z"/><path fill="#0b0909" d="M155.94,63.26a.76.76,0,0,1-.2.25,3.23,3.23,0,0,1-.47.15,18.74,18.74,0,0,0-7,3.49.39.39,0,0,1-.21.11.67.67,0,0,1-.35-.06.43.43,0,0,1-.14-.32,1.27,1.27,0,0,1,.26-.55,3.57,3.57,0,0,1,.67-.55A20.09,20.09,0,0,1,155,62.89a2,2,0,0,1,.73-.06C155.87,62.85,156,63,155.94,63.26Z"/><path fill="#0c0a0a" d="M147.71,60.17c0,.07,0,.18-.1.21a1.85,1.85,0,0,1-.45.21,19.33,19.33,0,0,0-5.69,3.06,11.65,11.65,0,0,0-1.1,1,.37.37,0,0,1-.46,0,.43.43,0,0,1-.18-.54,1.64,1.64,0,0,1,.24-.43,4.43,4.43,0,0,1,.55-.51A19.73,19.73,0,0,1,146.38,60a4.81,4.81,0,0,1,1-.21A.36.36,0,0,1,147.71,60.17Z"/><path fill="#0b0909" d="M138.74,57.84a.53.53,0,0,1-.39.25,15.59,15.59,0,0,0-5.88,2.34,5,5,0,0,0-1.18.92.35.35,0,0,1-.55,0,.5.5,0,0,1-.07-.58,1.13,1.13,0,0,1,.24-.29A15.77,15.77,0,0,1,138,57.28a.8.8,0,0,1,.6.12A.34.34,0,0,1,138.74,57.84Z"/><path fill="#0c0a0a" d="M135.14,62.9a.5.5,0,0,1-.19-.68,3.87,3.87,0,0,1,.69-.71,16.52,16.52,0,0,1,5.85-2.74l.12,0c.25,0,.5-.08.64.2s-.06.5-.46.6a17,17,0,0,0-4.56,2,5.6,5.6,0,0,0-1.58,1.2A.41.41,0,0,1,135.14,62.9Z"/><path fill="#0d0b0b" d="M169.14,70.39c0,.06-.1.19-.19.23a5.59,5.59,0,0,1-.82.26,14.16,14.16,0,0,0-5.52,2.76l-.1.09c-.17.11-.35.23-.56.08a.56.56,0,0,1,0-.78,3.06,3.06,0,0,1,.46-.42,14.94,14.94,0,0,1,6-2.63,1.35,1.35,0,0,1,.49,0C169.06,70,169.12,70.16,169.14,70.39Z"/><path fill="#0e0b0b" d="M165.85,68.82a.5.5,0,0,1-.45.38A17.64,17.64,0,0,0,162,70.35a11.42,11.42,0,0,0-2.32,1.22,1.48,1.48,0,0,1-.21.13.42.42,0,0,1-.56,0c-.18-.19-.14-.44.1-.66a3.17,3.17,0,0,1,.58-.46,19,19,0,0,1,5.58-2.12,1,1,0,0,1,.49,0A.34.34,0,0,1,165.85,68.82Z"/><path fill="#0f0c0c" d="M165.76,75c-.14-.05-.26-.43-.15-.55a3.15,3.15,0,0,1,.61-.6,13.44,13.44,0,0,1,5.16-2.08,1.53,1.53,0,0,1,.37,0c.29,0,.53.24.49.44s-.24.32-.45.36a12.39,12.39,0,0,0-5.44,2.32A.71.71,0,0,1,165.76,75Z"/><path fill="#151313" d="M169.24,75.56c-.24-.11-.3-.26-.27-.43a.69.69,0,0,1,.37-.48,8,8,0,0,1,3.15-1.09.86.86,0,0,1,.47.09.35.35,0,0,1,.21.41c0,.1-.15.24-.25.25a8.49,8.49,0,0,0-2.15.6c-.38.17-.73.39-1.11.56A2,2,0,0,1,169.24,75.56Z"/><path fill="#211919" d="M172.49,76.12c-.1-.15-.2-.24-.22-.34a.4.4,0,0,1,.08-.33,2.58,2.58,0,0,1,1.71-.55c.09,0,.21.13.25.23s0,.28,0,.33A5.2,5.2,0,0,1,172.49,76.12Z"/><path fill="#0b0600" d="M207.64,92.78l-.34.07c-.14,0-.23-.06-.3-.17a2.38,2.38,0,0,1-.22-1.08,37.22,37.22,0,0,0-.64-4.69c-.09-.45-.21-.89-.3-1.33a1.18,1.18,0,0,1,0-.49.36.36,0,0,1,.24-.24.38.38,0,0,1,.33.07,1.88,1.88,0,0,1,.29.54,31.54,31.54,0,0,1,1.07,6.76A3,3,0,0,1,207.64,92.78Z"/><path fill="#0e0800" d="M213.31,85.75s.16.11.2.21a1.16,1.16,0,0,1,.11.48c.08,1.66.16,3.32.23,5a.9.9,0,0,1,0,.37.4.4,0,0,1-.37.28.34.34,0,0,1-.37-.26,3,3,0,0,1-.13-.73c-.05-1.53-.09-3.07-.13-4.6a.84.84,0,0,1,.12-.6A.32.32,0,0,1,213.31,85.75Z"/><path fill="#0d0700" d="M218.38,96c.51-1.15,1.16-2.22,1.76-3.31a2.68,2.68,0,0,1,.36-.52.34.34,0,0,1,.45,0,.47.47,0,0,1,.16.32,2,2,0,0,1-.2.58,38.52,38.52,0,0,0-2.14,4.38.61.61,0,0,1-.05.12c-.11.19-.26.34-.5.27a.38.38,0,0,1-.26-.5C218.08,96.84,218.24,96.41,218.38,96Z"/><path fill="#100900" d="M216.61 89c.12-.32.16-.43.21-.55a.47.47 0 01.47-.33c.22 0 .34.24.26.59-.19.93-.41 1.85-.61 2.78-.12.52-.21 1-.31 1.58a3.13 3.13 0 01-.16.6.37.37 0 01-.37.27.36.36 0 01-.34-.31 2.43 2.43 0 010-.85C216 91.4 216.35 90.08 216.61 89zM211.13 88c0-.7-.08-1.4-.11-2.11a1.54 1.54 0 010-.48.37.37 0 01.27-.2.4.4 0 01.32.12 1 1 0 01.18.46c.17 1.52.33 3 .49 4.57a2.28 2.28 0 010 .37.37.37 0 01-.63.26 1.68 1.68 0 01-.28-.4A3 3 0 01211.13 88z"/><path fill="#0e0800" d="M210.77,90.86a.57.57,0,0,1-.58-.39,4.29,4.29,0,0,1-.15-.73l-.54-3.95c0-.12,0-.24,0-.37a.41.41,0,0,1,.29-.49.37.37,0,0,1,.46.31,9.79,9.79,0,0,1,.2,1c.12.65.23,1.31.34,2A2.62,2.62,0,0,1,210.77,90.86Z"/><path fill="#110a00" d="M219.73,99.7c-.6.11-.79,0-.73-.42a2.6,2.6,0,0,1,.22-.84c.64-1.25,1.29-2.5,2-3.74.19-.35.48-.24.74-.06A11.21,11.21,0,0,1,219.73,99.7Z"/><path fill="#0a0600" d="M218.5,93.38c-.27.7-.53,1.39-.81,2.09a1.71,1.71,0,0,1-.29.53.33.33,0,0,1-.33.07.4.4,0,0,1-.24-.25.87.87,0,0,1,0-.48q.92-2.45,1.88-4.88a.35.35,0,0,1,.16-.18.67.67,0,0,1,.34,0c.06,0,.12.12.15.19a.7.7,0,0,1,0,.6l-.9,2.32Z"/><path fill="#100900" d="M215.3,86.73a.86.86,0,0,1,.25.22,1.38,1.38,0,0,1,.09.85c-.13,1.32-.27,2.63-.42,4a.93.93,0,0,1-.18.45.4.4,0,0,1-.31.13.43.43,0,0,1-.29-.19,1,1,0,0,1-.1-.72c.17-1.39.33-2.79.51-4.19a.94.94,0,0,1,.2-.43S215.19,86.76,215.3,86.73Z"/><path fill="#0f0800" d="M208.22,85.1s.16.1.2.2a2.54,2.54,0,0,1,.16.6c.22,1.15.43,2.3.64,3.45a2.2,2.2,0,0,1,.06.37.48.48,0,0,1-.28.5c-.2.09-.45,0-.56-.35a4.34,4.34,0,0,1-.14-.48l-.57-3.58a.68.68,0,0,1,.11-.6A.29.29,0,0,1,208.22,85.1Z"/><path fill="#1a0f00" d="M221.54,102c-.65.36-.72.33-.83-.38a1.94,1.94,0,0,1,0-.24c-.2-1.39.57-2.32,1.46-3.21,0-.06.1-.13.16-.19s.36-.38.62-.21a.45.45,0,0,1,.09.65,6.4,6.4,0,0,0-.68,1.45C222.11,100.61,222.14,101.43,221.54,102Z"/><path fill="#0e0700" d="M221.84,96.19c.55,0,.68.06.6.51a2.6,2.6,0,0,1-.16.44c-.5,1-.8,2.16-1.33,3.18-.18.36-.2.84-.75.87a.85.85,0,0,1-.32-.63C220.25,99,220.55,97.36,221.84,96.19Z"/><path fill="#b56503" d="M221.84,96.19a23.16,23.16,0,0,0-2,4.37c-.21-.26.08-.6-.15-.86a14.8,14.8,0,0,1,1.32-3,6.43,6.43,0,0,0,.87-2c.23.26.11.51,0,.77S221.67,95.91,221.84,96.19Z"/><path fill="#0b0600" d="M222.48,102.38c-.49.23-.54.21-.76-.29a3.37,3.37,0,0,1,.82-2.14c.41-.59.41-.59,1-.39C223.22,100.51,223.37,101.64,222.48,102.38Z"/><path fill="#140a00" d="M222.58,102.86l.12-.41c.21-.47.23-1,.76-1.32.63-.09.8,0,.64.45a12.61,12.61,0,0,1-.71,1.54c-.16.3-.46.3-.73.11A.49.49,0,0,1,222.58,102.86Z"/><path fill="#c06903" d="M220.2,101.19a1,1,0,0,0,.59-.73c.28-.81.59-1.61.9-2.41a1.75,1.75,0,0,1,.59-.91c0,.36-.37.67-.13,1-.17.37-.32.75-.52,1.1a11,11,0,0,0-.94,2.11Z"/><path fill="#c66d03" d="M210.77,90.86a1.36,1.36,0,0,0,.15-1.08c-.07-.53-.11-1.07-.17-1.61l.38-.18a12.54,12.54,0,0,1,.29,2.59Z"/><path fill="#b96703" d="M223.46,101.13c-.2.47-.28,1-.76,1.32l-.22-.07c.34-.94.68-1.88,1-2.82.24.26.09.52,0,.78S223.25,100.85,223.46,101.13Z"/><path fill="#9e5803" d="M222.54,100l-.82,2.14-.09,0-.09,0c.05-.32.09-.65.17-1a2,2,0,0,1,.63-1.16Z"/><path fill="#b96703" d="M222.58,102.86l.08.37A.27.27,0,0,1,222.58,102.86Z"/><path fill="#0f0800" d="M187.88,132.12a.74.74,0,0,1-.2.2,18.72,18.72,0,0,0-3.59,2.23,1,1,0,0,1-.46.16.35.35,0,0,1-.33-.42.68.68,0,0,1,.16-.33,13.11,13.11,0,0,1,3.93-2.36.66.66,0,0,1,.36,0C187.89,131.67,188,131.93,187.88,132.12Z"/><path fill="#100900" d="M188.51,133.39a.87.87,0,0,1-.24.26,11.82,11.82,0,0,0-3.21,2.54.39.39,0,0,1-.55.1.51.51,0,0,1-.1-.67c.05-.07.09-.15.14-.21a11.59,11.59,0,0,1,3.28-2.45,1.27,1.27,0,0,1,.48-.07C188.46,132.89,188.6,133.13,188.51,133.39Z"/><path fill="#0e0800" d="M186.36,137.8a.4.4,0,0,1-.21-.45,1.57,1.57,0,0,1,.27-.55,14.46,14.46,0,0,1,2.84-2.57.68.68,0,0,1,.35-.13.42.42,0,0,1,.31.13.39.39,0,0,1,0,.35.94.94,0,0,1-.3.38,16.84,16.84,0,0,0-2.69,2.58.52.52,0,0,1-.59.26Z"/><path fill="#100900" d="M182.71,132.92a.45.45,0,0,1-.23-.53,1.07,1.07,0,0,1,.25-.27,19.32,19.32,0,0,1,3.44-1.78,1,1,0,0,1,.48-.07.46.46,0,0,1,.27.21.27.27,0,0,1,0,.35.9.9,0,0,1-.19.15,33.19,33.19,0,0,0-3.53,1.89A.5.5,0,0,1,182.71,132.92Z"/><path fill="#130b00" d="M188,137.92c.19-.24.39-.55.64-.83.49-.55,1-1.08,1.53-1.61a.35.35,0,0,1,.45,0,.36.36,0,0,1,.11.45,2.33,2.33,0,0,1-.34.5l-1.67,2a1,1,0,0,1-.27.24.44.44,0,0,1-.34,0,.47.47,0,0,1-.18-.29A2.41,2.41,0,0,1,188,137.92Z"/><path fill="#170d00" d="M191.91,137.07c-.53.79-1,1.54-1.57,2.29a.4.4,0,0,1-.56.12.48.48,0,0,1-.17-.55,1.33,1.33,0,0,1,.16-.34l1.5-2a.38.38,0,0,1,.53-.14c.22.12.21.33.14.54A.45.45,0,0,1,191.91,137.07Z"/><path fill="#130b00" d="M192.87,138.14c-.3.55-.66,1.1-1,1.66a.42.42,0,0,1-.54.18.49.49,0,0,1-.15-.65,3.78,3.78,0,0,1,.26-.43c.27-.42.53-.84.82-1.25s.44-.36.63-.22S193,137.9,192.87,138.14Z"/><path fill="#1f1000" d="M192.91,139.79a6.79,6.79,0,0,1,.83-1.41.35.35,0,0,1,.45-.09.41.41,0,0,1,.2.43,3.71,3.71,0,0,1-1,1.68.4.4,0,0,1-.34,0,.47.47,0,0,1-.2-.29A1,1,0,0,1,192.91,139.79Z"/><path fill="#331c01" d="M195.83,140.05a2,2,0,0,1-.43.73.39.39,0,0,1-.67-.32,2.16,2.16,0,0,1,.71-1.38.39.39,0,0,1,.35,0,.46.46,0,0,1,.2.27A1.09,1.09,0,0,1,195.83,140.05Z"/><path fill="#381d01" d="M196.48,139.86a1.57,1.57,0,0,1,.25-.33c.13-.1.29-.2.45-.08a.55.55,0,0,1,.21.29,1.26,1.26,0,0,1-.37,1.13.37.37,0,0,1-.46.09.4.4,0,0,1-.22-.41C196.37,140.31,196.44,140.07,196.48,139.86Z"/><path fill="#020100" d="M164.21 119.05c-1.78-.19-3.56-.37-5.34-.57-.91-.11-1.82-.24-2.72-.4a4.66 4.66 0 01-1.65-.55.5.5 0 010-.84 2.65 2.65 0 011.2-.29c1.7-.12 3.41-.26 5.11-.35 4.2-.2 8.4-.38 12.61-.57.41 0 .83 0 1.24 0a.34.34 0 01.31.33.31.31 0 01-.27.36c-.33 0-.66.08-1 .1l-13 .66c-.83 0-1.66.11-2.49.17-.22.45.09.4.37.38a60.45 60.45 0 006.45.64c1.74.12 3.48.18 5.23.27a8.37 8.37 0 011.11.12.49.49 0 01.07.93 4.9 4.9 0 01-1.08.28c-1.4.14-2.81.28-4.22.38-1.82.14-3.65.24-5.47.35a1.21 1.21 0 01-.37.17c.16 0 .4.31.75.24a37.69 37.69 0 005.08.42c.5 0 1 0 1.5 0l.74 0a.37.37 0 01.32.33.34.34 0 01-.23.39 1.14 1.14 0 01-.36.1 4.19 4.19 0 01-.5 0 45 45 0 01-7.69-.58 11.62 11.62 0 01-1.31-.39 2.38 2.38 0 01-.45-.23.7.7 0 01-.41-.7.65.65 0 01.59-.56c.49-.07 1-.14 1.48-.17 1-.07 2-.11 3-.17.41 0 .83-.06 1.24-.1a1.27 1.27 0 01.79-.1 3.55 3.55 0 01.8 0 1.39 1.39 0 01.35 0c-.14-.12-.31 0-.46-.06a1.84 1.84 0 00-.62 0A1.49 1.49 0 01164.21 119.05zM164.8 109.15c2.2.21 4.41.15 6.62.14 3 0 6 0 9-.07a1.92 1.92 0 011 .1.43.43 0 01.19.29.44.44 0 01-.15.31.69.69 0 01-.34.14 8.48 8.48 0 01-.87.06c-4.79 0-9.58.16-14.36 0a22.08 22.08 0 01-4-.4 1.82 1.82 0 01-.8-.33.51.51 0 01.09-.91 5.92 5.92 0 011.08-.28c1-.19 2.06-.35 3.08-.52a3.7 3.7 0 011.64-.32 6.76 6.76 0 011.49-.19c.23 0 .46-.15.78 0-.3-.2-.52 0-.74 0a11.85 11.85 0 00-1.68.2 5.28 5.28 0 01-1.86-.06l-2.12 0a.35.35 0 01-.38-.39c0-.24.19-.35.42-.38H163c4-.18 7.89-.56 11.85-.46a6.62 6.62 0 011 .09.43.43 0 01.42.38.51.51 0 01-.39.57 7.81 7.81 0 01-1.09.23l-7.18 1-3 .48a.86.86 0 01-.48.16l0 .1.1-.05C164.45 109 164.59 109.2 164.8 109.15z"/><path fill="#b86503" d="M165,107.3a6.13,6.13,0,0,1,1.86-.13c.26,0,.31.12.2.33a6,6,0,0,1-1.69.19C165.31,107.47,165.12,107.4,165,107.3Z"/><path fill="#b56503" d="M161.11,120.89c-.48.18-.86-.11-1.44-.27a1.5,1.5,0,0,1,1.06-.14C160.77,120.7,161,120.77,161.11,120.89Z"/><path fill="#a76403" d="M163.88,108.8c.26,0,.52-.14.78,0,.05.12.1.25.14.37a1.05,1.05,0,0,1-.78,0C163.77,109.12,163.74,109,163.88,108.8Z"/><path fill="#aa5e02" d="M158.64,117.51a1.43,1.43,0,0,1-1.17-.19c.24-.33.52-.25.8-.19C158.31,117.33,158.51,117.39,158.64,117.51Z"/><path fill="#a95803" d="M164.21,119.05c.26-.18.52,0,.78,0a.17.17,0,0,1,0,.2c-.05,0-.08.07-.1.06-.27,0-.54.14-.8,0Z"/><path fill="#040200" d="M180.36,86.94c1.44.26,2.9.31,4.35.44,1.78.17,3.57.33,5.35.48a1.3,1.3,0,0,1,.72.19.61.61,0,0,1,.16.31.23.23,0,0,1-.18.28,2.31,2.31,0,0,1-.73.11q-5-.44-10-.9a12.72,12.72,0,0,1-1.47-.29,1,1,0,0,1-.68-.51.53.53,0,0,1,.08-.68,2.62,2.62,0,0,1,1.21-.63l3.52-.88c.23-.24.08-.31-.15-.34l-2.6-.36a4.28,4.28,0,0,1-.61-.09c-.22,0-.39-.18-.38-.42s.2-.34.42-.35h.38l5.84.57a1.76,1.76,0,0,1,.84.17.52.52,0,0,1,.09.76,1.53,1.53,0,0,1-.79.35c-.77.17-1.55.32-2.32.48a26.53,26.53,0,0,0-3.52.85C179.71,87,180,87,180.36,86.94Z"/><path fill="#b24f02" d="M180.36,86.94a.89.89,0,0,1-.68,0c-.11,0-.25-.09-.21-.22s.14-.16.23-.21.15,0,.23,0C180,86.74,180.19,86.82,180.36,86.94Z"/><path fill="#8f5503" d="M182.58,84.52a1.44,1.44,0,0,1,.46,0c.08,0,.14.14.21.21a.55.55,0,0,1-.17.14,2,2,0,0,1-.35,0Z"/><path fill="#352402" d="M165.54,119c.31-.18.64,0,1,0,.05,0,.11.08.19.14-.3.3-.67.2-1,.21C165.62,119.25,165.48,119.18,165.54,119Z"/><path fill="#945002" d="M165.54,119l.13.33-.77,0,.09-.26A.7.7,0,0,1,165.54,119Z"/><path fill="#905903" d="M167,107.5l-.2-.33a5.08,5.08,0,0,1,1.74-.12.18.18,0,0,1,0,.2s-.08.07-.1.07Z"/><path fill="#583801" d="M168.47,107.32l.1-.27a1.3,1.3,0,0,1,1.11,0A1.8,1.8,0,0,1,168.47,107.32Z"/><path fill="#623801" d="M163.88,108.8l.14.35a.81.81,0,0,1-.34,0,.85.85,0,0,1-.29-.17,1.33,1.33,0,0,1,.26-.21A.59.59,0,0,1,163.88,108.8Z"/><path fill="#0a0808" d="M156.79,95.9a1.27,1.27,0,0,1-2.35-1,1.4,1.4,0,0,1,1.68-.67A1.27,1.27,0,0,1,156.79,95.9Z"/><path fill="#090707" d="M142.5,103.69a1.27,1.27,0,0,1,.72,1.63,1.2,1.2,0,0,1-1.54.64,1.32,1.32,0,0,1-.83-1.59A1.3,1.3,0,0,1,142.5,103.69Z"/><path fill="#0a0909" d="M151.78,102.09a1.3,1.3,0,0,1-1.74.75,1.22,1.22,0,0,1-.7-1.43,1.42,1.42,0,0,1,1.73-.83A1.16,1.16,0,0,1,151.78,102.09Z"/><path fill="#0f0c0c" d="M135,78.57a1.13,1.13,0,0,1-1.43.82,1.22,1.22,0,0,1-.74-1.5,1.35,1.35,0,0,1,1.63-.76A1.07,1.07,0,0,1,135,78.57Z"/><path fill="#0b0909" d="M154.3,86.88a1.13,1.13,0,0,1-.67-1.51,1.12,1.12,0,0,1,1.37-.74,1.3,1.3,0,0,1,.79,1.49A1.22,1.22,0,0,1,154.3,86.88Z"/><path fill="#0b0a0a" d="M125.77,93.22a1,1,0,0,1,1.33-.53,1.14,1.14,0,0,1,.57,1.46,1.06,1.06,0,0,1-1.39.67A1.24,1.24,0,0,1,125.77,93.22Z"/><path fill="#0e0c0c" d="M146.4,78.62a1.57,1.57,0,0,1-.61.68.94.94,0,0,1-1.34-.47,1.3,1.3,0,0,1,1-1.65.88.88,0,0,1,1,.76A3.56,3.56,0,0,1,146.4,78.62Z"/><path fill="#130f0f" d="M133,100.65a1.15,1.15,0,0,1,.67,1.2,1.07,1.07,0,0,1-.75,1,1,1,0,0,1-1-.49,1.14,1.14,0,0,1-.07-1.27A1.09,1.09,0,0,1,133,100.65Z"/><path fill="#0f0f0f" d="M128.56,85.73a1,1,0,0,1-1.32.59,1.07,1.07,0,0,1,.69-2A1.06,1.06,0,0,1,128.56,85.73Z"/><path fill="#060300" d="M137.1,83.23a4.33,4.33,0,0,1,.47.44c.86,1,1.72,1.93,2.54,2.93,1.9,2.32,3.78,4.66,5.66,7a37.28,37.28,0,0,1,2.56,3.56c.28.45.28.75,0,.85s-.52-.18-.68-.4c-2.85-4-6.1-7.72-9.18-11.55-.52-.65-1.1-1.24-1.65-1.87a2.16,2.16,0,0,1-.34-.51.43.43,0,0,1,.07-.34C136.65,83.18,136.82,83.15,137.1,83.23Z"/><path fill="#090500" d="M142.25,83.87a2.69,2.69,0,0,1,.39.25,7.74,7.74,0,0,1,.68.73q2.9,3.75,5.77,7.51a1.69,1.69,0,0,1,.19.32.37.37,0,0,1-.12.44c-.14.09-.32.16-.46,0s-.49-.56-.72-.86c-1.43-1.83-2.85-3.67-4.28-5.51-.48-.62-1-1.22-1.49-1.84a1.53,1.53,0,0,1-.31-.52c0-.09,0-.24.1-.33A1.1,1.1,0,0,1,142.25,83.87Z"/><path fill="#0a0600" d="M144.14 97.74a.39.39 0 01-.42.32c-.27-.06-.4-.27-.56-.46l-4.41-5.24c-.37-.44-.76-.88-1.14-1.32a2.55 2.55 0 01-.33-.52.25.25 0 01.08-.33.62.62 0 01.34-.11c.41 0 .63.38.87.66l4.7 5.64a11.72 11.72 0 01.74 1A1.13 1.13 0 01144.14 97.74zM141.39 100.32a.35.35 0 01-.41.21 1.29 1.29 0 01-.55-.48l-1.65-2.19c-.85-1.13-1.7-2.26-2.54-3.4a2.48 2.48 0 01-.35-.64.44.44 0 01.11-.33.34.34 0 01.45-.08 1.4 1.4 0 01.36.33l4.44 6A.64.64 0 01141.39 100.32z"/></g></svg>