<svg xmlns="http://www.w3.org/2000/svg" data-name="Layer 1" viewBox="0 0 517 516"><g data-name="finding jobs"><path d="M373.53 364.65a20.47 20.47 0 00-.94-2.73A109.93 109.93 0 01367 342.7c-1.73-8.51-3.15-17.08-4.34-25.68a131.74 131.74 0 01-1.34-16.7c-.07-6.55-.06-13.11.18-19.66.14-3.93.47-7.85.47-11.79 0-9.38-.1-18.76-.36-28.15-.16-6-.31-12-.6-18-.38-7.93-.88-15.85-1.1-23.78q-.61-21-2.91-41.89a76.49 76.49 0 00-3.15-14.95 82.45 82.45 0 00-4-10.64 1.34 1.34 0 01.19-1.68 13 13 0 003.25-8.3 27.07 27.07 0 00-1.72-12.18c-1.65-4.16-3.29-8.33-5.15-12.4-3.1-6.77-6.08-13.58-8.63-20.58-2-5.57-3.67-11.26-5.28-17A168.45 168.45 0 00325.9 39.8a58.94 58.94 0 00-17.19-23.45 38.61 38.61 0 00-24.36-8.93 51.6 51.6 0 00-11.69 1.31 41.31 41.31 0 00-15.83 6.82c-2.12 1.55-4.14 3.21-6.1 5a40.22 40.22 0 00-9.56 12.63 10.57 10.57 0 01-2.52-.86 33.06 33.06 0 00-19-.61 32.51 32.51 0 00-15.39 8.46 2.56 2.56 0 01-2 .84q-8 .15-15.93.36a8.05 8.05 0 01-3-.41 12.37 12.37 0 00-11.78 1.69 14.94 14.94 0 00-5.13 6.12 20.1 20.1 0 00.86 19.41 15.14 15.14 0 005.12 5.31 12.94 12.94 0 0015.25-.7 3.52 3.52 0 012.23-.88c1.45 0 2.89-.17 4.34-.25l12.61-.68 9.09-.5a1.83 1.83 0 011.38.25 14.89 14.89 0 003.39 2 .59.59 0 01.31.85c-1.13 2.68-.62 5.26.43 7.82A32.11 32.11 0 00224.1 86c.84 1.34 1.72 2.67 2.45 4.07a9.12 9.12 0 01.62 7.59 11.53 11.53 0 00-.94 5.66.64.64 0 01-.34.68c-.29.19-.58.37-.88.54-6.87 3.8-13.82 7.46-21 10.6a43.93 43.93 0 01-5.79 2.2 20.37 20.37 0 01-2.23.4c-.26 0-.45-.33-.32-.57a11.65 11.65 0 012.27-2.67 93.52 93.52 0 018.75-7.28c5.07-3.81 10.28-7.43 15.56-11a9.76 9.76 0 001.3-1 .51.51 0 000-.74.83.83 0 00-.54-.21 2.55 2.55 0 00-1.28.64c-6 4-11.88 8-17.54 12.44-2.29 1.78-4.55 3.6-6.66 5.59a22.8 22.8 0 00-2.65 2.9 2.62 2.62 0 00-.61 2.68 2.47 2.47 0 01.07 1c-.21 3.17-.34 6.34-.68 9.5-.4 3.84-.78 7.69-.94 11.54-.25 5.86-.59 11.72-.56 17.59 0 1.38 0 2.76-.11 4.14a165.62 165.62 0 00.57 23.57 38.58 38.58 0 002.5 10.84 15.34 15.34 0 006.41 7.62 26 26 0 004 2.08A22.64 22.64 0 00215.86 208a39.67 39.67 0 006.32-1 23.89 23.89 0 009.54-4.28c.74-.6 1.46-1.23 2.17-1.85.4.24.31.61.32.94.06 1.73.07 3.45.17 5.17.24 4.62.56 9.23.77 13.85a227 227 0 01-1 30.18c-.3 3.36-.63 6.73-1 10.09-.32 3-.65 6-1.06 9-.55 4.1-1.25 8.18-1.75 12.28-.86 7.12-1.76 14.23-2.3 21.39-.61 8.12-1.38 16.22-1.85 24.35a100.16 100.16 0 01-2 14.12 67 67 0 00-1.34 9c-.25 3.93-.54 7.85-.41 11.79a37.71 37.71 0 01-.31 7.43c-.38 2.32.2 3.08 2.62 3.51a8 8 0 013 1.2q2.07 1.36 4.17 2.7a16.54 16.54 0 009.21 2.62 48.76 48.76 0 007.76-.66c.41.37.33.81.39 1.21a17 17 0 00.9 3.81 5.87 5.87 0 004.64 4c.54.09 1.07.26 1.62.33 2.53.33 5.06.65 7.59.94 1.65.2 3.3.32 4.94.5.75.09.84.19.92.87.13 1.24.28 2.47.38 3.71.57 6.87 1.15 13.74 1.67 20.62.58 7.64 1.18 15.27 1.63 22.91.53 9 .93 17.92 1.35 26.88.18 3.72.3 7.44.38 11.17 0 .94.6 1.84.21 2.81l-2.78.69a80.08 80.08 0 00-28.37 14 20.72 20.72 0 00-3.61 3.4 10.64 10.64 0 00-1.73 2.8 4.22 4.22 0 002 5.63 9.81 9.81 0 003.92 1.18 70.06 70.06 0 0013.43-.25c3.65-.28 7.28-.67 10.92-1.06 4.59-.49 9.17-1.06 13.72-1.88 2.37-.43 4.73-1 7.09-1.44a.7.7 0 01.94.52 7.41 7.41 0 005.84 5 25.4 25.4 0 006 .48c4.84-.06 9.64-.57 14.44-1.07 7-.72 14-1.54 21-2.4a70.33 70.33 0 0010.54-2.05 23.24 23.24 0 005-2 6 6 0 003.16-4.58A11.89 11.89 0 00354.4 487a17.71 17.71 0 00-5.62-4.82 2.11 2.11 0 01-1.21-2.55 19 19 0 00.23-2.26c.22-3 .42-5.92.64-8.88.12-1.65.23-3.3.39-4.95.55-5.76 1.22-11.52 1.57-17.31.14-2.34.37-4.67.6-7 .44-4.53 1-9.05 1.37-13.58.65-7.35 1.32-14.71 1.82-22.07a104.13 104.13 0 00-.42-21.47 1 1 0 01.57-1.2 14.43 14.43 0 003-2.23 7.47 7.47 0 002.52-6.49c0-.35-.07-.69-.13-1-.09-.54.23-.75.66-.87a4.11 4.11 0 01.61-.12 58.62 58.62 0 0011.44-3.43A1.56 1.56 0 00373.53 364.65zM328.94 66.3a.4.4 0 01.28.22c.13.74.23 1.48.35 2.22s.56 1.3.47 2a3 3 0 01.47 1.58.86.86 0 01.32.92.39.39 0 01.07.35A16.11 16.11 0 01332.13 77l.08.08 0 .09a.61.61 0 00.07.28 1.28 1.28 0 01-.07-.28.85.85 0 01.33.66 6.28 6.28 0 01.84 2.08h0a1.9 1.9 0 01.47 1.16 3 3 0 01.85 1.71.88.88 0 01.42.77h0a2.9 2.9 0 01.86 1.58 46.35 46.35 0 014 8 .34.34 0 01.11.32 6.92 6.92 0 011.14 2.57 6.82 6.82 0 01.81 2.49.43.43 0 01.1.36 5.63 5.63 0 01.37.93c.11.51-.07.79-.39.71s-.45-.44-.41-.79l-.11-.68h0a7.62 7.62 0 01-.85-2.44A8.39 8.39 0 01339.6 94a.31.31 0 01-.1-.3h0a4.81 4.81 0 01-.86-1.59q-1.58-3.19-3.16-6.39a4.31 4.31 0 01-.82-1.66 2 2 0 01-.54-1.19.75.75 0 01-.38-.78 3.23 3.23 0 01-.85-1.66 7.44 7.44 0 01-1.27-2.84 9.06 9.06 0 01-1.1-3.06.4.4 0 01-.08-.35.92.92 0 01-.31-.89 7.57 7.57 0 01-.58-2.44c-.38-.32-.33-.77-.38-1.2h0a6 6 0 01-.65-3A.35.35 0 01328.94 66.3zm-3.35 12.42a.37.37 0 01.32.15c.17.44.31.89.46 1.34l3.2 6.33a.28.28 0 01.14.28h0L331.35 89c.3.23.46.52.08.77s-.5 0-.61-.27h0a6.11 6.11 0 01-1.53-2.19.32.32 0 01-.14-.3h0a29.06 29.06 0 01-3.23-6.3 2.78 2.78 0 01-.56-1.71A.39.39 0 01325.59 78.72zm-.89 14.81a.44.44 0 01.36.43h0a.45.45 0 01.41.41h0a.5.5 0 01.43.43.46.46 0 01.44.37h0a19.35 19.35 0 013.25 3h0a.48.48 0 01.4.4h.06a11 11 0 012.5 2h0a13 13 0 012.5 2.07h0a9.81 9.81 0 012.44 2.1.46.46 0 01.39.41h.05a22.53 22.53 0 015 5 .55.55 0 01.4.43 6.3 6.3 0 011.7 2h0a4.61 4.61 0 011.21 1.68 1.38 1.38 0 01.28.4.32.32 0 01.17.33h0a.54.54 0 01.29.54.35.35 0 01.12.33 1.07 1.07 0 01.45.81.39.39 0 01-.23.45A.38.38 0 01347 117c-.13-.21-.21-.45-.32-.67a.31.31 0 01-.12-.28h0a.52.52 0 01-.35-.51 2.9 2.9 0 01-.27-.41L344.5 113a8.52 8.52 0 01-1.62-2.07h0v-.07a.52.52 0 01-.4-.42h0l-4.93-4.92h0l-.45-.38a11.36 11.36 0 01-2.52-2.06 13.43 13.43 0 01-2.5-2.07h0a9.76 9.76 0 01-2.43-2.1h0l-.43-.38h0a13.47 13.47 0 01-3.26-3h0l-.42-.45h0a.58.58 0 01-.44-.45.49.49 0 01-.41-.41.55.55 0 01-.43-.39A5.6 5.6 0 01322.55 92 5.7 5.7 0 01321 89.8a.25.25 0 01-.13-.28h0a10.05 10.05 0 01-2-5.09l-.12-.71a3.61 3.61 0 01-.35-2.35h0a2.17 2.17 0 01-.3-1.47c0-.14 0-.29 0-.44-.1-.65-.21-1.31-.29-2a.35.35 0 01.32-.42.35.35 0 01.37.36 5.82 5.82 0 010 .59h0a2.33 2.33 0 01.29 1.46 2.54 2.54 0 01.09 1.42h0a2.33 2.33 0 01.32 1.46v.45a.49.49 0 00-.12.25l.12-.25c0 .37.1.74.14 1.11a10 10 0 01.8 2.77.55.55 0 000 .26 1 1 0 010-.26.79.79 0 01.31.65.25.25 0 01.09.3 1.88 1.88 0 00.29.52.28.28 0 01.13.32.56.56 0 01.29.53.33.33 0 01.15.31A10 10 0 01323 91.48 9.28 9.28 0 01324.7 93.53zm-55.9-75.3c.52-.71 1.32-.72 2.08-.82l.64-.12a15.67 15.67 0 015.09-.67h0a41.38 41.38 0 016.68 0 2.2 2.2 0 011.69.28h0a12.42 12.42 0 014.62 1.22h0A4.79 4.79 0 01292 19h0a.36.36 0 01.37.07 14.48 14.48 0 014.6 2.41 4.3 4.3 0 011.69 1.23 6.22 6.22 0 012 1.71.47.47 0 01.39.41.52.52 0 01.46.42.47.47 0 01.44.41.45.45 0 01.42.4.44.44 0 01.41.41.45.45 0 01.42.42 1.3 1.3 0 01.8.82h0a.45.45 0 01.4.44.55.55 0 01.43.41A8.35 8.35 0 01306.85 31h0a1.07 1.07 0 01.5.72h0a10.21 10.21 0 012 3 3.89 3.89 0 01.91 1.52h0a2.31 2.31 0 01.82 1.32h0a.48.48 0 01.3.47 29.64 29.64 0 013 6h0a20.84 20.84 0 012 4.77 8.69 8.69 0 01.89 2.42 20.63 20.63 0 011.55 4.23.33.33 0 01.09.35 21.2 21.2 0 011.6 4.18 28.23 28.23 0 011.63 4.57.44.44 0 01.12.35h0a3.43 3.43 0 01.37.64c.08.24.08.54-.25.6s-.45-.16-.49-.44l-.18-.64A18.49 18.49 0 01320 60.65h0a17.07 17.07 0 01-1.5-4 .37.37 0 01-.09-.35h0a21.55 21.55 0 01-1.59-4.18h0a10.78 10.78 0 01-1-2.74h0a41.93 41.93 0 01-1.93-4.71l-3.57-7a1.46 1.46 0 01-.52-.9l-1-1.6a15 15 0 01-2-3l-.51-.73a12.8 12.8 0 01-2-2.56h0V28.9a.49.49 0 01-.4-.43.55.55 0 01-.41-.43.68.68 0 01-.5-.55.5.5 0 01-.42-.41h0a.53.53 0 01-.42-.42h0a1 1 0 01-.67-.63.51.51 0 01-.42-.41.43.43 0 01-.42-.38.6.6 0 01-.48-.39 9.84 9.84 0 01-2.11-1.7h0L296.48 22l-4.59-2.46h0a.33.33 0 01-.34-.13 12.14 12.14 0 01-3.13-1.15 5.23 5.23 0 01-2.16-.48h0l-.61 0a.67.67 0 01-.76-.23l-1.1-.13h-.52l-8 .06-2.77.3-1.19.21a5.16 5.16 0 01-2.09.65 1.72 1.72 0 01-.4-.31l.4.31C268.94 18.61 268.7 18.63 268.8 18.23zm41.67 58.33a5 5 0 01-1-2.88 5.42 5.42 0 011.08-3 .6.6 0 01.52-.18c.31.11.32.39.15.66a5.43 5.43 0 00-.74 1.91 3.75 3.75 0 00.35 2.4A2.79 2.79 0 00312.64 77a9.89 9.89 0 011 .28.41.41 0 01.16.33.37.37 0 01-.23.27A3.19 3.19 0 01310.47 76.56zm.37 11.23a7 7 0 01-3.44 3.31c-.32-2.53.11-2.13 1.69-2.88a10.39 10.39 0 011.36-.47A1.36 1.36 0 01310.84 87.79zm2.29-19.53c-.23-.62 0-1.34-.51-2.09a5 5 0 01-.7 2.69c-3.79 2.63-4.16 4.39-1.8 8.54a1.14 1.14 0 01.17 1.15c-.19 2.26-.43 4.52-.54 6.79A1.53 1.53 0 01308.51 87l-.55.17c-.4-.12-.32-.43-.34-.67-.23-4.34-.63-8.65-1.07-13a49.05 49.05 0 00-2.07-9.88 34.8 34.8 0 00-2.63-6.27c-1.57-2.91-2.93-5.91-4.27-8.93-.77-1.75-1.6-3.48-2.38-5.2.26-.32.53-.22.78-.12a15.53 15.53 0 017 5.58A27.39 27.39 0 01307 57a8.57 8.57 0 00.31 1 .68.68 0 00.65.42.58.58 0 00.61-.45c.11-.47.18-.94.3-1.41.24-.92.34-2.09 1.37-2.37 1.25-.34 2 .68 2.67 1.56a13.69 13.69 0 012.19 5.52 17.19 17.19 0 01-.22 7.78C314 69.44 313.51 69 313.13 68.26zm-22 34.85c-.16.31-.4.54-.74.32s-.12-.48-.05-.72a1.87 1.87 0 01.28-.49q.55-2.52 1.09-5a6.06 6.06 0 00.18-1c.14-4.06.59-8.1.12-12.18a12.37 12.37 0 00-5.46-9.29 29.94 29.94 0 01-7.82-7.89 13.67 13.67 0 01-1.62-3.1c-.84-2.41-1.67-4.81-2.28-7.29S273.55 51.49 273 49a16.46 16.46 0 00-3.87-7.43 1.42 1.42 0 01-.18-.39c.29-.44.72-.25 1.06-.16a5.57 5.57 0 012 1.1 15.86 15.86 0 014.3 5.23c.71 1.34 1.35 2.72 2 4.07a2.37 2.37 0 001 1.26.54.54 0 00.39 0c.15-.11.35-.3.34-.45a2.66 2.66 0 00-.24-1 50 50 0 00-3.61-6.73 1.77 1.77 0 01-.24-.34 15 15 0 01-.88-5.05c0-.62.51-.83 1-.41s1.19 1.13 1.78 1.71a23.42 23.42 0 016.28 10.76 6.67 6.67 0 00.53 1.34.64.64 0 00.52.28.6.6 0 00.54-.53 1.55 1.55 0 000-.61 25.11 25.11 0 00-2.25-6 8.64 8.64 0 01-1.17-3.06c-.15-.88-.42-1.74-.6-2.61a4.62 4.62 0 01-.11-1.23 1.31 1.31 0 01.9-1.26 1.17 1.17 0 011.31.36 11.66 11.66 0 011.08 1.25 19.71 19.71 0 012.57 4.7c.71 1.86 1.4 3.74 2.1 5.61a14.38 14.38 0 00.66 1.51.55.55 0 00.71.24.58.58 0 00.36-.66 5.51 5.51 0 00-.28-1.2c-.31-.92-.65-1.82-1-2.72a11 11 0 01-.88-3.77 16.94 16.94 0 00-.57-3c-.15-.75-.36-1.74.34-2.09.88-.45 1.45.49 2 1.1a20.17 20.17 0 012.36 3.63c1.54 2.85 2.85 5.81 4.16 8.77 1 2.21 2 4.37 3.17 6.5a42.71 42.71 0 014.68 16c.24 2.33.43 4.67.67 7a100.58 100.58 0 01.27 10.12 3.2 3.2 0 01-1.41 2.78c-4.4 3.33-8.89 6.52-13.55 9.47zm-4 130.66c.1 1.3.08 1.35-1.25 1.63-1.55.33-3.11.64-4.68.83-3.76.47-7.45 1.38-11.18 2-1.28.23-2.58.42-3.87.61a.94.94 0 01-1.15-.62c-.31-.77-.69-1.51-1-2.27a136.49 136.49 0 01-7.67-24.18c-1.08-4.92-2-9.85-2.67-14.85-.33-2.67-.67-5.33-1-8a8.9 8.9 0 010-1.86c.52-5.14 1-10.29 1.62-15.42.48-4 1.09-7.92 1.7-11.87.75-4.84 1.59-9.66 2.34-14.49a92.27 92.27 0 016.12-22.47c.49-1.13.9-2.31 1.33-3.47a1.61 1.61 0 01.74-1c1.61 4.44 3.39 8.78 4.09 13.45.33 2.25.7 4.5.86 6.77a91.13 91.13 0 001.78 11q1.69 8.29 3.31 16.62a116.89 116.89 0 007.87 25 9.77 9.77 0 01.88 3.57c.07 1.58.27 3.16.44 4.73.7 6.24 1.13 12.5 1.22 18.78 0 .76 0 1.52.11 2.27a54.31 54.31 0 01.06 10.12A18.88 18.88 0 00287.17 233.77zm2.26-136.23a180.22 180.22 0 00-15.21 10.36A72.57 72.57 0 00268 113c-.7.66-1.36 1.37-2 2.1a1.77 1.77 0 00-.59 1.28 3.91 3.91 0 01-.55 2 113.38 113.38 0 00-5.76 16.13c-.79 3.15-1.38 6.33-1.91 9.52-1.1 6.53-2.18 13.06-3.16 19.6-.58 3.89-1.1 7.78-1.46 11.7-.64 6.73-1.34 13.45-2.33 20.13-1.16 7.78-2.28 15.55-3.47 23.32-.36 2.39-.86 4.75-1.3 7.12a1 1 0 01-.57.86 89.12 89.12 0 01-1.79-9.71 109.65 109.65 0 01-.84-20.65c.1-2.41.3-4.81.46-7.22.55-8.33 1.05-16.66 1.68-25a81.17 81.17 0 012-12.86 43.58 43.58 0 014.72-11c1.41-2.53 2.88-5 4.33-7.52a7.28 7.28 0 00.4-.72q.62-1.42-1-1.77a15.12 15.12 0 00-7.17.26 1.71 1.71 0 01-1.31.08 11.86 11.86 0 011.82-2.91q4.06-5.36 8.63-10.31c2.48-2.69 5.07-5.27 7.7-7.8 2.94-2.82 5.84-5.68 8.76-8.51.28-.27.47-.73 1.13-.58-.09 1.33-.19 2.67-.26 4a5.61 5.61 0 000 1.23.64.64 0 00.47.36.71.71 0 00.53-.21 1.61 1.61 0 00.35-1.16c.1-1.79.22-3.58.22-5.37s-.12-3.58-.17-5.37c0-.66.21-.9.85-.84a33.9 33.9 0 0012.45-1.53 3.26 3.26 0 011.69-.19 24.58 24.58 0 010 4.29A2.06 2.06 0 01289.43 97.54zm.48 2.16c-.29 1.27-.57 2.54-.9 3.8a3.27 3.27 0 01-1.57 2.06 177.44 177.44 0 01-16 9c-1 .48-2 .89-3 1.3a10.17 10.17 0 01-1.15.29 1 1 0 01.47-1c.95-.9 1.87-1.83 2.88-2.66a173.72 173.72 0 0117.78-12.68c.41-.25.84-.46 1.2-.66A.46.46 0 01289.91 99.7zm-26.48-5.3h0a.38.38 0 01.53-.35.55.55 0 01.18.45 1.23 1.23 0 01-.26.49l-.27.69a.72.72 0 01-.2.36 5.91 5.91 0 01-1.73 2.48 1.55 1.55 0 01-.24.27.36.36 0 01-.5 0c-.18-.17 0-.34.06-.48a1.11 1.11 0 01.28-.24L262.64 96l.3-.48a.35.35 0 01.15-.35c.09-.17.17-.34.25-.51A.27.27 0 01263.43 94.4zm-6.92-12A23 23 0 01252 78.1a17.08 17.08 0 01-3.11-6.25c-.18-.65 0-.88.64-1 2.25-.32 4.5-.62 6.75-1 3.75-.53 7.53-.94 11.24-1.67 3-.59 6-.86 8.95-1.55a.65.65 0 01.71.29c.21.27.41.54.61.83a31.36 31.36 0 008 8 15.32 15.32 0 011.61 1.28 10.36 10.36 0 013.25 6.95c.09 1 .13 1.93.2 2.89h.06c0 .48 0 1 0 1.45 0 1.4 0 1.58-1.55 1.87-2.09.38-4.15.93-6.26 1.31a23.32 23.32 0 01-13.9-1.91A71.4 71.4 0 01256.51 82.36zm-3.45 17.41a13.22 13.22 0 01.42-2.49l-.09-3.54h0a2.49 2.49 0 01-.28-1.42l0-.43L253 90.78a3.45 3.45 0 01-.4-2.11 8.49 8.49 0 01-.34-4.24c0-.08.19-.22.23-.2s.25.17.26.26c.1 1.23.18 2.46.27 3.69a5.45 5.45 0 01.4 2.07l.12.7a1 1 0 01.27 1 2.6 2.6 0 01.12 1.41h0a2.83 2.83 0 01.31 1.89 6.78 6.78 0 01-.28 3.46h0a2.26 2.26 0 01-.41 1.63c0 .23-.09.47-.14.7a19 19 0 01-1.57 4.87.23.23 0 01-.33.15c-.2-.07-.39-.15-.3-.42q.91-2.73 1.82-5.46A.39.39 0 01253.06 99.77zm-4.91 16.16a2.38 2.38 0 01-.48 1.72l-4 6.22-.34 0c.14-2.66.2-5.33.44-8 .46-5.07 1-10.13 1.56-15.2a18.34 18.34 0 000-3.92 2.6 2.6 0 00-.75-1.87 1.71 1.71 0 01-.57-1.26 7.34 7.34 0 01.45-3.85c.74-1.7 1.45-3.41 2.18-5.13a1.13 1.13 0 01.56.92 38.9 38.9 0 002 6.93 27 27 0 011.16 3.74 10.72 10.72 0 010 4.91c-.37 1.47-.75 2.93-1.15 4.39A26.63 26.63 0 00248.15 115.93zM232.29 71.61c8.59-7 9.15-19 2.21-27.19A2.26 2.26 0 01236 44c4.66-.48 9.33-.93 14-1.39 3.09-.31 6.21-.43 9.25-1a20.75 20.75 0 016.77.19 4.22 4.22 0 013.15 2.07 15.62 15.62 0 012.17 4.66c.37 1.54.82 3.06 1.21 4.59a98 98 0 003.7 12.16C261.76 68 247.2 69.79 232.29 71.61zm83 4.08a.66.66 0 01.58.74A.79.79 0 01315 77a.73.73 0 01-.59-.74A.72.72 0 01315.26 75.69zM255.67 26.93c.36-.27.59-.05.68.33h0c.27.29.53.58.8.86a5.44 5.44 0 011.72 1.2h0a.45.45 0 01.36.14 4.5 4.5 0 011.7.64h0l.77.15a66.65 66.65 0 007.48-.09h0a2.24 2.24 0 011.64-.29l2.44-.19a5.55 5.55 0 011-.22 80.37 80.37 0 018.78-.09 1.79 1.79 0 011.16.31h0l1.14.19a1.57 1.57 0 011.1.46.4.4 0 010 .37c0 .09-.19.15-.31.2a.23.23 0 01-.2 0c-.61-.31-1.37-.22-1.94-.67l-.65-.08-8.41 0h0l-1 0-.83 0h0a2.82 2.82 0 01-1.85.31 5.2 5.2 0 01-2.08.12h0c-.6.5-1.37.26-2 .45a7.54 7.54 0 01-4.65 0h0c-.47-.14-1 0-1.42-.42l-.52-.07h0a2.35 2.35 0 01-1.83-.75.26.26 0 01-.28-.11 3.21 3.21 0 01-1.72-1.24.51.51 0 01-.39-.43c-.24 0-.33-.18-.41-.37a.69.69 0 01-.17-.1C255.58 27.39 255.4 27.13 255.67 26.93zm-1 9.47a4.09 4.09 0 013.61 1.6 5 5 0 011.14 1.93c-1.59.58-7.71 1.29-13.2 1.54a8.36 8.36 0 01-3.33.35h0a5.54 5.54 0 01-2.79.36l.06-.11s0 .07-.06.11c-2.17.24-4.35.39-6.5.76-1.07.18-1.63-.41-2.3-.94-.1-.07 0-.27.2-.28a5.87 5.87 0 01.59.05h0a4.11 4.11 0 012-.27c3-.07 6-.11 9.08-.15a2.41 2.41 0 001.92-.5h0a8.92 8.92 0 013.8-3.05A15 15 0 01254.68 36.4zm-48.54 3.9c.51-.46 1-.93 1.57-1.35a33.73 33.73 0 0116.87-6.75A30.42 30.42 0 01239 33.92a21.38 21.38 0 016.92 4.13c-.53.52-.94.88-1.3 1.28a2 2 0 01-1.47.64c-1.93 0-3.86.12-5.79.16-3 .08-6.07.24-9.1.18-3.59-.08-7.17.27-10.75.28s-7.17.18-10.76.29a2.8 2.8 0 00-.41 0c-.17 0-.29 0-.3-.22A.53.53 0 01206.14 40.3zM188.27 70.39a11.81 11.81 0 01-17.18.25 16.88 16.88 0 01-4.78-8.74 18.75 18.75 0 011.45-12.67 14.8 14.8 0 013.33-4.44 11.69 11.69 0 0115.32-.73 15.92 15.92 0 015.29 7.24A20.38 20.38 0 01193 58.81 17 17 0 01188.27 70.39zM215.13 69a.3.3 0 01-.16.08c-8.11.48-16.22.89-24.28 1.31-.31-.64.16-.88.36-1.19 4.19-6.72 4.35-13.62.92-20.67A16.2 16.2 0 00188.48 44a2.72 2.72 0 01-1-1.27L218.16 42a19.88 19.88 0 01-2.09 2 24 24 0 00-1.76 2 18.31 18.31 0 00-1.49 2.48 16.78 16.78 0 00-1 2.48 19.35 19.35 0 00-.6 2.61 15.67 15.67 0 00-.12 5.35 19.64 19.64 0 00.49 2.63 20 20 0 00.91 2.74 18.63 18.63 0 001.25 2.38c.46.75 1 1.46 1.49 2.17A1.1 1.1 0 01215.13 69zm.86-1.64a16.32 16.32 0 01-3.64-10.88 16.07 16.07 0 013.34-10.08 14.2 14.2 0 012.5-2.46 11.39 11.39 0 0112.46-.66 13.39 13.39 0 014.52 4.46A17.4 17.4 0 01236 65.13 12.48 12.48 0 01231.83 70a11.14 11.14 0 01-5.35 2C222 72.46 218.69 70.64 216 67.38zm11.53 34.09c.3-1.13.57-2.27 1-3.37a10.34 10.34 0 00-.56-8.4c-.71-1.41-1.59-2.73-2.41-4.09-.71-1.18-1.49-2.31-2.13-3.53a10.77 10.77 0 01-1.48-4.68 9 9 0 01.11-2.26c.37-1.71.52-1.86 2.19-1.66a9.55 9.55 0 002.67-.08 9.21 9.21 0 011.65-.15 45.43 45.43 0 007-.66c1.09-.15 2.19-.22 3.28-.36 2.32-.3 4.64-.63 6.95-.93 1-.13 1.24 0 1.4 1a14.34 14.34 0 010 4.53 30.47 30.47 0 01-2.62 9.09c-.51 1-.92 2.14-1.35 3.23a7.5 7.5 0 00-.59 4.23 1 1 0 01-.48 1.22c-4.66 2.8-9.3 5.63-14.08 8.21a1.08 1.08 0 01-.41 0A1.79 1.79 0 01227.52 101.47zm7.71 91.22c-.29 1.56-.66 3.1-1 4.65a6.78 6.78 0 01-2.41 3.52 16 16 0 01-4.65 3.06 33.39 33.39 0 01-15.12 2.73 21 21 0 01-10.9-4.09 13.91 13.91 0 01-4.83-6.33 37.41 37.41 0 01-2.1-8.41 138.18 138.18 0 01-.91-19.82c0-3.18.1-6.35.16-9.52.18-7.31.38-14.62.85-21.92.14-2.13.44-4.25.63-6.38s.32-4 .45-6c.08-1.37.11-2.75.16-4.13a.79.79 0 01.7-.86 50.62 50.62 0 0012.21-4.45c11-5.21 21.52-11.21 31.93-17.45.77-.46 1.54-.93 2.32-1.37a.74.74 0 011.18.62 16.56 16.56 0 01.1 1.86 61.82 61.82 0 01-.66 8c-.45 4-1 7.93-1.16 11.94-.24 5.51-.44 11-.82 16.53-.45 6.6-.83 13.21-1.45 19.81s-1.41 13-2.11 19.53C237.15 180.44 236.35 186.59 235.23 192.69zm-9.75 180c-1.83-.06-2.07-.46-1.91-2.13a50.56 50.56 0 00.4-6.4c0-.82 0-1.65 0-2.48a83.29 83.29 0 011.47-18.31 118.78 118.78 0 002.44-19.27c.19-4.2.64-8.39 1-12.58.18-2.2.4-4.39.54-6.6.34-5.3 1-10.57 1.57-15.84.81-7.2 2.06-14.34 2.92-21.52.54-4.52 1-9.05 1.39-13.58s.87-9.07 1.07-13.62a163.68 163.68 0 00.27-17.16c-.3-5-.61-10.06-.81-15.09-.14-3.38-.13-6.76-.15-10.14a7.62 7.62 0 01.23-1.63 127.89 127.89 0 002.3-13.44c.8-6.51 1.59-13 2.32-19.52.4-3.49.68-7 1-10.5q.6-7.32 1.12-14.65c.2-3 .35-5.92.49-8.88a5.68 5.68 0 01.59-2.37 53.41 53.41 0 013.31-5.72q1.68-2.49 3.26-5a37.23 37.23 0 019.59-10.46 57.65 57.65 0 0112.65-7.38 3.34 3.34 0 011.74-.46c.17.86-.59 1.15-1 1.59q-4.89 4.77-9.84 9.47a149.88 149.88 0 00-15.94 17.65 23 23 0 00-2.75 4.36c-.45 1 0 1.68 1.1 1.54a19.47 19.47 0 002.62-.59 14.56 14.56 0 015.34-.31c.42 0 .63.36.45.69-.29.55-.62 1.08-.92 1.62-1.73 3.14-3.58 6.21-5.21 9.4a39.53 39.53 0 00-3.64 10.95 119 119 0 00-1.72 14.58c-.2 3.3-.53 6.6-.74 9.9-.38 6.06-.7 12.12-1.06 18.18a95.19 95.19 0 000 11.58c.26 4.07.72 8.1 1.34 12.13a71.33 71.33 0 001.87 8.68 7.39 7.39 0 01.18 3.27c-.6 3.67-1.23 7.34-1.78 11q-.6 4-1 8-.83 7.61-1.57 15.22c-.35 3.5-.65 7-1 10.51-.29 3.09-.57 6.18-.89 9.27-.45 4.39-.61 8.8-.65 13.22-.06 8.21 0 16.42-.22 24.63-.12 5.79-.41 11.59-.79 17.37-.37 5.43-1 10.85-1.44 16.28-.37 4.33-.66 8.66-1 13 0 .42-.05.83-.09 1.24-.07.56-.36.77-.83.52a5.37 5.37 0 00-3.42-.41A25.81 25.81 0 01225.48 372.71zM250 364.89a82.45 82.45 0 00-.92 12.16 2.19 2.19 0 01-.22 1.31 31.93 31.93 0 01-11 .45 10.93 10.93 0 01-4-1.48c-1.6-.94-3.17-1.95-4.74-2.94-.09-.05-.1-.21-.2-.42 1.37-.26 2.69-.48 3.95.35a2.43 2.43 0 00.77.27 1.09 1.09 0 001.33-.7 5.57 5.57 0 00.26-1.41c.6-7.35 1.17-14.71 1.76-22.06.26-3.16.58-6.32.81-9.48.53-7.36.77-14.74.84-22.12q.1-12.72.34-25.44c.06-2.83.34-5.65.58-8.46.33-3.85.72-7.69 1.1-11.53.3-3.09.62-6.18.94-9.26.35-3.5.73-7 1.07-10.49.44-4.54 1.06-9 1.79-13.53q.94-5.82 1.95-11.62c.58-3.32 1.26-6.63 1.8-10 .83-5.11 1.57-10.22 2.35-15.33.28-1.77.58-3.53.87-5.3a3.48 3.48 0 01.3-2.11c0-.28 0-.55 0-.83a2.26 2.26 0 010-.58c0-.11.15-.2.23-.3a1.46 1.46 0 01.18.35 3.84 3.84 0 010 .59l0 .82c0 .27 0 .55 0 .83.68 4 1.27 8 2.08 12a141.27 141.27 0 009.24 29.52c.3.66.57 1.21-.05 1.86a2.93 2.93 0 00-.54 1.75c-.47 4.11-1 8.21-1.17 12.35-.39 8.68-.81 17.36-1.32 26q-.69 11.56-1.63 23.11c-.48 5.77-1 11.54-1.86 17.27-.53 3.69-.92 7.39-1.38 11.09-.83 6.77-1.89 13.51-3.12 20.22C251.61 356.21 250.64 360.52 250 364.89zm25.27 78c-.41-6.75-1-13.48-1.46-20.23-.33-4.6-.6-9.22-1-13.82-.44-5.36-.79-10.73-1.52-16.07 0-.41-.08-.82-.1-1.23s.14-.71.71-.74h.42c4.9.15 9.79-.16 14.68-.35 3.24-.13 6.47-.42 9.71-.63.27 0 .55-.07.82-.08.57 0 .79.15.82.66 0 .21 0 .42 0 .62-.29 4.62-.16 9.24-.27 13.86-.19 8.14-.48 16.28-.43 24.54-.44 10.22-.27 20.57-.46 30.92a110.82 110.82 0 01-1 13c-.2 1.51-.38 3-.59 4.51-.06.41-.2.81-.27 1.21a1.42 1.42 0 01-.87 1.05 15.84 15.84 0 01-8 1.72 38.45 38.45 0 01-8.66-1.92 1.12 1.12 0 01-.82-1.06 33.32 33.32 0 01-.45-4.11c0-4.14-.19-8.28-.4-12.41C275.9 455.8 275.69 449.32 275.3 442.85zm24.76-53.24l25.72-2.35a15.06 15.06 0 01.44 3.58c.09 4.42.84 8.79 1.12 13.19.18 2.75.41 5.5.6 8.26.25 3.57.51 7.15.73 10.73.18 2.89.37 5.78.46 8.68.16 5.31.76 10.59 1.21 15.88.19 2.13.31 4.26.46 6.4.46 6.95.9 13.9 1.4 20.85.12 1.64.45 3.27.69 4.91.08.59-.06.84-.54.89a67.71 67.71 0 00-13.24 3.16 109.82 109.82 0 00-16.51 6.48c-.24.12-.49.21-.66.28-.51-.12-.38-.46-.39-.69A11.53 11.53 0 00298 482a3.11 3.11 0 01-1-3.59 24.47 24.47 0 00.68-4.28c.53-4.87.95-9.74 1-14.65q.22-20.28.58-40.56c.15-9.25.39-18.49.6-27.73A2.48 2.48 0 01300.06 389.61zm-9 110.64a1.28 1.28 0 01-1.14 1c-2.15.46-4.3 1-6.47 1.35-5.5 1-11 1.62-16.6 2.21-5.35.57-10.7 1.09-16.91 1.27-1 0-2.75-.08-4.55-.16a8.26 8.26 0 01-3.56-1 2.93 2.93 0 01-1.43-4 9.31 9.31 0 011.81-2.75 22.21 22.21 0 013.2-2.93 81.68 81.68 0 0128.64-13.91 7.83 7.83 0 014.83.17 24.23 24.23 0 008.26 1.72 16.45 16.45 0 007.21-1.55c1-.5 1.16-.44 2 .39a12.35 12.35 0 013.73 7c.05.41.09.82.14 1.23a1.69 1.69 0 01-.95 1.87 27.57 27.57 0 00-2.61 1.68c-.95.68-1.88 1.4-2.77 2.15A7.71 7.71 0 00291.07 500.25zm63.24-10.8a10.22 10.22 0 011.4 6.36 5 5 0 01-2.81 4.29 23.49 23.49 0 01-4.63 1.73 75.89 75.89 0 01-10.76 2.05c-7 .84-14 1.67-20.95 2.37-4.39.44-8.78 1-13.2 1a23.11 23.11 0 01-6.37-.48 6.52 6.52 0 01-3.76-2.38 4.46 4.46 0 01-.5-4.69 7 7 0 011.85-2.45 33.36 33.36 0 016.62-4.57 95.68 95.68 0 0114.23-6.13c4.16-1.48 8.41-2.65 12.67-3.78 1.26-.33 2.56-.52 3.85-.74a.78.78 0 011 .52c.39 1 1.31 1.32 2.29 1.52a17 17 0 006.16-.23 22.25 22.25 0 004.38-1.22 1.23 1.23 0 011.16.08A18.87 18.87 0 01354.31 489.45zm-1.12-95.8c-.22 6.84-.42 12.56-1.07 18.26-.39 3.43-.56 6.87-.88 10.31-.33 3.64-.73 7.27-1.07 10.91-.37 4.05-.71 8.1-1.08 12.16q-.73 8.13-1.48 16.27c-.17 1.93-.35 3.85-.5 5.77-.31 4.06-.63 8.12-.85 12.18a1.82 1.82 0 01-1.45 1.93 25 25 0 01-7.71 1.33 12.74 12.74 0 01-1.85-.18 1.71 1.71 0 01-.72-.37c-.26-.22 0-.5 0-.75a6.93 6.93 0 00-.12-1 50.82 50.82 0 01-.93-7.38c-.48-7.16-.94-14.32-1.46-21.47-.29-4.06-.7-8.11-1-12.16-.2-2.48-.38-5-.48-7.44-.23-6.27-.79-12.53-1.14-18.79q-.36-6.3-.94-12.59t-1.18-12.35c0-.21 0-.41 0-.62a.72.72 0 01.65-.88c1.83-.3 3.67-.63 5.51-.89a99.25 99.25 0 0011.24-1.68c2.4-.6 4.77-1.34 7.15-2 .39-.11.68 0 .76.4a7.5 7.5 0 01.2 1.23C352.8 387.47 353.33 391.11 353.19 393.65zm3.45-16.27a13.26 13.26 0 01-5.52 3.53 63.08 63.08 0 01-12.87 3c-4.11.42-8.19 1.1-12.27 1.8-2.65.45-5.34.69-8 .95-4.53.44-9.07.88-13.6 1.22-10.32.77-20.64 1.58-31 1.48A111.07 111.07 0 01260 388.21c-1.43-.19-2.86-.45-4.3-.63a4.87 4.87 0 01-4.34-3.85 20.08 20.08 0 01-.77-4.68 70.83 70.83 0 011.05-15.25c1-6 2.23-11.92 3.25-17.9.72-4.21 1.31-8.45 1.88-12.69.69-5.12 1.33-10.26 1.95-15.39.35-2.88.69-5.75.93-8.64q.83-9.8 1.56-19.6c.38-5.3.69-10.6 1-15.9.43-7.86.77-15.72 1.24-23.57.16-2.75.54-5.49.86-8.23.13-1.12.36-1.37 1.59-1.53 2-.25 4.08-.63 6.11-1 4.94-1 9.88-1.89 14.82-2.82.12 0 .26.05.49.1 0 .87.07 1.76.12 2.65.26 4.82.46 9.65.81 14.46.16 2.27.61 4.51.87 6.77.43 3.77.75 7.55 1.24 11.31 1 7.26 1.25 14.57 1.69 21.87.41 6.54.7 13.08.91 19.64.1 3 .53 6 .82 9.06.23 2.48.58 4.94.68 7.42.31 7.51.82 15 .88 22.54a96.08 96.08 0 001 10.71c.15 1.23.37 2.45.57 3.67a2.42 2.42 0 002.34 2.22c1.72.19 3.43.35 5.14.59 2.6.35 5.18.77 7.78 1.13 1.7.24 3.41.49 5.13.62a209.81 209.81 0 0027.92.34c1.65-.1 3.32 0 5-.13 2.34-.14 4.67-.35 7-.53 1-.07.94-.06 1.13.75A5.83 5.83 0 01356.64 377.38zm13-10.95a66.13 66.13 0 01-8.76 2.45 62.35 62.35 0 01-13.55 1.33c-1.93 0-3.86.16-5.79.25-5 .22-9.94.24-14.9 0-4-.18-8-.47-12-.8-1.72-.14-3.41-.52-5.12-.75-3-.41-6-.79-9-1.18-.27 0-.55-.05-.82-.09-1-.17-1.33-.42-1.49-1.43-.31-2-.56-4.1-.84-6.15a133.35 133.35 0 01-.86-13.41c-.21-6.68-.54-13.37-.9-20-.15-2.69-.48-5.36-.84-8-.5-3.77-.52-7.57-.65-11.35-.25-7-.76-14.05-1.13-21.08-.22-4.06-.5-8.12-1-12.16-.37-3-.75-6-1-9.05-.32-3.57-.95-7.1-1.36-10.66-.26-2.26-.35-4.54-.45-6.81q-.31-7-.56-14.06a26.79 26.79 0 010-2.69 108.48 108.48 0 00-.27-13.85c0-.62-.06-1.24-.07-1.86a162.59 162.59 0 00-1.19-16.5c-.06-.48 0-1-.08-1.46.65.09.73.63.95 1a58.17 58.17 0 005.29 7.65 21.16 21.16 0 0013.46 7.42 34.13 34.13 0 0010.91.07 32.94 32.94 0 005.4-1.4c3.45-1.2 6.87-2.48 10.29-3.77a46 46 0 006.95-3.65c.84-.49 1.13-1.12.77-1.43-.57-.49-1 0-1.48.26-5.79 3.62-12.2 5.76-18.65 7.78a30.36 30.36 0 01-16.35.25 18.77 18.77 0 01-10-6.21 55 55 0 01-7.83-12.38 109.41 109.41 0 01-8.37-25c-1.51-7.36-3-14.72-4.43-22.09a66.44 66.44 0 01-1-7.17 57.11 57.11 0 00-4-17.47c-.43-1-.78-2-1.23-3.23 7.35-2.82 13.83-6.75 20.27-10.77a191.18 191.18 0 0019.49-13.63c1.33-1.08 2.57-2.28 3.86-3.43.32-.28.68-.22.8.15s.33 1 .49 1.58a156.46 156.46 0 014.87 20.71c.69 4.22 1.16 8.47 1.45 12.74s.68 8.52 1.05 12.78c.13 1.51.29 3 .46 4.53a2.59 2.59 0 00.34.95.59.59 0 00.51.21c.16 0 .41-.23.42-.36a11.42 11.42 0 000-1.85c-.48-4.95-.91-9.89-1.25-14.84a139.36 139.36 0 00-3-21.7c-.43-1.88-.84-3.76-1.27-5.64a.44.44 0 01.16-.53.45.45 0 01.39 0c1.29.67 2.57 1.34 3.84 2 2.18 1.19 4.36 2.37 6.51 3.6a15.1 15.1 0 012 1.41 61.46 61.46 0 0117.38 21.82A106.64 106.64 0 01352.93 144a85.1 85.1 0 012.8 14.39q.86 8.24 1.52 16.48c.28 3.5.46 7 .63 10.53.39 8.2.74 16.4 1.11 24.6.26 5.51.58 11 .77 16.53.25 6.76.41 13.52.58 20.28.12 5 .18 9.93.26 14.9.09 6.49-.19 13-.57 19.44-.07 1.24-.1 2.48-.11 3.72 0 5.31-.07 10.63 0 15.94A118.75 118.75 0 00361 315.05c1.19 9.38 2.77 18.68 4.64 27.94a114.49 114.49 0 005.72 19.62 7.05 7.05 0 01.8 2.54A8.4 8.4 0 01369.62 366.43zM261.39 98.32l0 0 0 0 .08.1-.08-.1z"/><path d="M311.05 37.6c0 .2.22.31.31.47l-.31-.47zM261.47 98.4v0a.27.27 0 00.22.1l-.14-.06S261.49 98.42 261.47 98.4zM261.31 98.24a.89.89 0 010-.14A.21.21 0 00261.31 98.24zM329.22 98.56a.23.23 0 00.28 0h0a.2.2 0 01-.06-.07.13.13 0 010 0zM337.1 105.17a.27.27 0 00.32 0h0a.17.17 0 01-.09-.07l0 0zM300.47 24.74l0 0-.2.07a.24.24 0 00.29 0h0S300.49 24.76 300.47 24.74zM272.48 17.68l-.16-.07zM342.85 110.34a.17.17 0 000-.22l-.07.19h0zM256.81 28.32l0 0h0a.21.21 0 00-.11.21zM240.21 42l.08-.14h-.07A.23.23 0 01240.21 42zM256.89 28.25l.07-.07.19-.06a.27.27 0 00-.28.11l0 .05 0-.05z"/><path fill="#060606" d="M232.68,53a3.39,3.39,0,0,0-5.25,1.17,5.47,5.47,0,0,0-.22,4.58,4.83,4.83,0,0,0,2,2.56,3.4,3.4,0,0,0,5-1.12,4.55,4.55,0,0,0,.71-2.59A5.67,5.67,0,0,0,232.68,53Zm-.79,5.49A1.63,1.63,0,0,1,229,59a4,4,0,0,1-.58-4.07,1.65,1.65,0,0,1,3-.29,4.43,4.43,0,0,1,.79,2.75A6.72,6.72,0,0,1,231.89,58.52Zm1.8,1.2a.92.92,0,0,1-.54.18c-.38-.06-.62-.6-.55-1.18.05-.35.19-.69.6-.72a.7.7,0,0,1,.52.23,2.41,2.41,0,0,1,.28.61C234,59.26,233.94,59.55,233.69,59.72Z"/><path fill="#040404" d="M188.28,53.4a3,3,0,0,0-5.18.08,4.47,4.47,0,0,0-.5.91,7.82,7.82,0,0,0,.2,6.6A4.51,4.51,0,0,0,184,62.45a2.8,2.8,0,0,0,4.07-.21,5.68,5.68,0,0,0,.91-1.36,6.86,6.86,0,0,0,.69-3.21A7.38,7.38,0,0,0,188.28,53.4Zm-2,6.09a1.26,1.26,0,0,1-2,0,3.75,3.75,0,0,1-.91-2.76,3.46,3.46,0,0,1,.61-2.2,1.32,1.32,0,0,1,2.11-.18A4.29,4.29,0,0,1,186.32,59.49Zm1.92,1.13a.58.58,0,0,1-.36.17c-.38,0-.7-.57-.64-1.11s.3-.58.68-.7c.15.1.39.17.46.32A1.09,1.09,0,0,1,188.24,60.62Z"/><path fill="#030202" d="M456.68,60.38a18.57,18.57,0,0,0-10.87-13.22,30.57,30.57,0,0,0-19-1.82c-11.41,2.32-20.59,11.46-23.65,22.75a15.1,15.1,0,0,0,1,11.45c2.9,5.44,7.67,8.29,13.56,9.48a37.34,37.34,0,0,0,6,.42c.64,0,1.11.11,1.4.86s.86.67,1.15,0a1.69,1.69,0,0,1,.78-.88c.55-.29,1.1-.57,1.67-.82a44.1,44.1,0,0,1,8.61-2.84c.81-.17,1,0,1.18.71.14.53.27,1.07.37,1.61a1,1,0,0,1-.42,1.06,46.74,46.74,0,0,1-6.54,3.51c-.35.17-.66,0-.74-.43-.17-.88-.32-1.76-.52-2.64a.39.39,0,0,0-.48-.27.41.41,0,0,0-.35.42,9.5,9.5,0,0,0,.37,2.85,1.1,1.1,0,0,1-.61,1.37,5.62,5.62,0,0,0-2,1.75,1.27,1.27,0,0,0-.13,1.37,1.31,1.31,0,0,0,1.2.66,13.2,13.2,0,0,0,2.19-.39,9,9,0,0,1,1.07,4.57c0,.83.66,1,1.08,1.35s.65-.18,1-.39c1.23-.85,1.52-.78,2.42.46a6,6,0,0,0,2,2,2.08,2.08,0,0,0,3.16-1.2,4.78,4.78,0,0,0,.23-1.41,4.25,4.25,0,0,0-.12-1.23c-.27-1.14-.14-1.54,1.24-1.84a10,10,0,0,0,1.18-.36,3.34,3.34,0,0,0,.73-.37.46.46,0,0,0,.22-.53.43.43,0,0,0-.47-.31c-.53.09-1.06.24-1.6.34a.47.47,0,0,1-.61-.38c-.14-.55-.23-1.08.36-1.47a2.81,2.81,0,0,0,1.07-1.24,1.5,1.5,0,0,0-.6-2,1.57,1.57,0,0,0-.74-.33c-1.42,0-1.66-.94-1.81-2-.05-.34-.19-.66-.27-1a1,1,0,0,1,.29-1.12,7.28,7.28,0,0,0,.73-.74,2.86,2.86,0,0,0,.72-3.44c2.93-1.79,5.62-3.58,8.2-5.53a17.11,17.11,0,0,0,4.4-4.88A18.19,18.19,0,0,0,456.68,60.38ZM430.35,96.25a2.39,2.39,0,0,1-1.36.26c-.2,0-.41-.21-.29-.4a2.76,2.76,0,0,1,1.54-1.2c.25-.08.53.31.5.71A.63.63,0,0,1,430.35,96.25Zm2.4-10.45c-1.51.51-1.48.49-1.74-1-.58-3.26-1.2-6.51-1.81-9.76-.07-.4-.13-.81-.19-1.22a.4.4,0,0,1,.31-.46A13.51,13.51,0,0,0,432.65,72c.49,2.23.66,4.43,1.27,6.54s1.14,4.09,1.72,6.23A13,13,0,0,1,432.75,85.8Zm1.93-20.23a.44.44,0,0,1,.5-.23.48.48,0,0,1,.38.42,2.4,2.4,0,0,1,0,.8c-.15.86-.44,1.3-1.66,2.53A5.14,5.14,0,0,1,434.68,65.57Zm-2.86,29.64c-.13-.37-.37-.76,0-1.14a1.5,1.5,0,0,1,.51-.33c2.28-1.07,4.51-2.25,6.8-3.58a2.2,2.2,0,0,1,.2.39c.06.74.68,1.49.34,2.17s-1.33.48-2,.76c-1.71.69-3.45,1.3-5.17,2C432.19,95.54,431.94,95.55,431.82,95.21Zm8.67,8.59a1.07,1.07,0,0,1-1.63.63,5.32,5.32,0,0,1-1.34-1.25c-1-1.2-.91-1.38.51-1.91.19-.08.38-.17.57-.23,1.66-.57,1.91-.91,2,1.7A5.54,5.54,0,0,1,440.49,103.8Zm.93-9.55c0-.08.19-.15.3-.23a1.05,1.05,0,0,1,.88.4.59.59,0,0,1,0,.74.71.71,0,0,1-.62.44.56.56,0,0,1-.49-.55A3.62,3.62,0,0,1,441.42,94.25Zm-.1,4c.13.27.12.54-.17.68a6.91,6.91,0,0,1-.95.37c-1.35.45-2.7.88-4.05,1.32h0a1.29,1.29,0,0,1-.86.42,1.69,1.69,0,0,1-1.27.51.34.34,0,0,1-.27-.18.41.41,0,0,1,.13-.35,9.25,9.25,0,0,1,.88-.47h0l.87-.37a48.71,48.71,0,0,1,4.95-2.36C441,97.66,441.18,98,441.32,98.3Zm-.95-3.22c.42,1.47.43,1.49-1,2.13a47.77,47.77,0,0,0-5.7,2.8.5.5,0,0,1-.81-.26c-1-2.8-1-2.88,1.79-4a20.42,20.42,0,0,1,5.4-1.62C440.2,94.56,440.29,94.82,440.37,95.08Zm.76-8.48a6.08,6.08,0,0,1-.73,1c-.07.09-.24.1-.36.14s-.23-.14-.26-.24c-.11-.32-.15-.66-.25-1-.3-.94.16-1.25,1-1C441.28,85.59,441.49,86,441.13,86.6Zm14.92-21.06a16.12,16.12,0,0,1-6.72,12.91c-2.21,1.65-4.52,3.16-6.82,4.66-.57.37-.94,1-1.55,1.21a9.39,9.39,0,0,1-2.06.07,4.34,4.34,0,0,0-.62.06c-1.21.15-1.45.44-1.87-1.18a75.57,75.57,0,0,1-2.21-9c-.08-.62-.11-1.24-.22-1.85a2.31,2.31,0,0,1,.83-2.36,6.39,6.39,0,0,0,1.86-3.17,2.89,2.89,0,0,0-.24-2,1.44,1.44,0,0,0-2.27-.42,3.6,3.6,0,0,0-1,1.57,9.05,9.05,0,0,0-.49,3.46,1.55,1.55,0,0,1-.82,1.53,7,7,0,0,1-2.42,1.11.83.83,0,0,1-1.1-.66,18.08,18.08,0,0,0-1.59-3.8,3.62,3.62,0,0,0-1.61-1.56,1.17,1.17,0,0,0-1.67.69,2.5,2.5,0,0,0-.06,1.62,6.48,6.48,0,0,0,3.15,4.18,2.5,2.5,0,0,1,1.35,1.89c.76,3.78,1.57,7.56,2.14,11.38.13.83.12.84-.69,1.22a13.34,13.34,0,0,1-3.19,1.44,13.67,13.67,0,0,1-3.47-.21,29.19,29.19,0,0,1-5.75-.56c-4.88-1.35-9-3.74-11.58-8.32a13.15,13.15,0,0,1-1.46-9.6A30.22,30.22,0,0,1,421.35,48.3a26.61,26.61,0,0,1,11.51-2.45,30.23,30.23,0,0,1,12.62,2.39A18.35,18.35,0,0,1,456.05,65.54ZM427,70.89c0,.1-.09.24-.16.34s-.14,0-.19,0a4.72,4.72,0,0,1-2.14-3.71c0-.09.15-.17.27-.29a1.89,1.89,0,0,1,.5.28A7.88,7.88,0,0,1,427,70.89Z"/><path fill="#040202" d="M486.22,428.15a16.93,16.93,0,0,0,3.29-6.39,17.88,17.88,0,0,0-1.28-12.87c-3-6.19-8-10-14.8-10.93a30.88,30.88,0,0,0-20.07,4.15,31.61,31.61,0,0,0-15.22,29.08,13.88,13.88,0,0,0,2.74,7.47c4.24,5.66,10.14,7.54,16.93,7a44.34,44.34,0,0,0,6.08-1.17c.5-.11.7.07,1,.4.72.77,1.09.69,1.24-.3a1.9,1.9,0,0,1,.75-1.16,41.38,41.38,0,0,1,7.6-5.33c2.32-1.25,1.85-1.48,3.18,1.12a1,1,0,0,1-.13,1.31,41.25,41.25,0,0,1-5.68,5.23,2.19,2.19,0,0,1-.77-1.09c-.25-.56-.49-1.14-.76-1.69a.47.47,0,0,0-.67-.28.56.56,0,0,0-.23.72,7.57,7.57,0,0,0,.62,1.52,2.09,2.09,0,0,1-.39,3.19,3,3,0,0,0-.88,1.61,1.2,1.2,0,0,0,1.53,1.53,6.18,6.18,0,0,0,1.14-.46,4.55,4.55,0,0,1,.73-.37c.16,0,.48,0,.54.15.64,1.2,1.69,2.22,1.85,3.63.1.93.76,1.06,1.39,1.26s.63-.33.88-.65a2.83,2.83,0,0,1,1.55-1,10.13,10.13,0,0,0,2.41,1.93,2.43,2.43,0,0,0,2.73.11,2.38,2.38,0,0,0,.88-2.76,15.71,15.71,0,0,0-.6-1.75c-.37-1-.34-1.15.51-1.71.35-.23.71-.42,1.06-.64a2.74,2.74,0,0,0,.68-.47c.21-.23.52-.52.24-.87a.59.59,0,0,0-.76-.08c-.37.19-.71.42-1.08.61s-.64.14-.94-.41a1,1,0,0,1,0-1.14,5.69,5.69,0,0,0,.68-1.26,1.52,1.52,0,0,0-1.24-2.14,2.4,2.4,0,0,0-1.22,0c-.6.15-.9-.16-1.14-.63-.31-.62-.63-1.23-.95-1.84a1,1,0,0,1,0-1.16,9.59,9.59,0,0,0,.67-1.27,2.31,2.31,0,0,0-.41-3l.74-.81C482.54,432.42,484.43,430.32,486.22,428.15Zm-14.34,21a2.42,2.42,0,0,1-1.68,1c-.08-.12-.24-.24-.21-.32a2.6,2.6,0,0,1,1.27-1.69.35.35,0,0,1,.34.12C471.76,448.53,472.08,448.84,471.88,449.15Zm-1.4-9.88c-.44.29-.67.19-.91-.39-1.26-3.05-2.71-6-4.17-9-.33-.67-.66-1.34-1-2.11a14.51,14.51,0,0,0,3.25-2.4c.67,1.46,1.21,2.77,1.85,4s1.36,2.54,2.08,3.79,1.47,2.49,2.28,3.84C472.73,437.79,471.61,438.54,470.48,439.27ZM468,418.49a.5.5,0,0,1,.3-.22.4.4,0,0,1,.48.26c.64,1.38.22,2.57-.67,3.83A4.76,4.76,0,0,1,468,418.49Zm14.27,36.65a5.41,5.41,0,0,1-3.1-2l3-2a4.28,4.28,0,0,1,1.21,3.13A.93.93,0,0,1,482.23,455.14Zm-.25-10.7a2,2,0,0,1,.76-.06c.29,0,.44.28.52.55a1.23,1.23,0,0,1-.48.85.38.38,0,0,1-.33,0,1.66,1.66,0,0,1-.6-1C481.83,444.66,481.91,444.46,482,444.44Zm-.15,4a.53.53,0,0,1,.86.06.61.61,0,0,1-.17,1c-1,.63-1.94,1.24-2.92,1.86h0a6.7,6.7,0,0,1-2.18,1.54h0a.28.28,0,0,1-.33.13.33.33,0,0,1-.34.31c-.05,0-.14-.07-.14-.11,0-.2.12-.3.3-.34h0l.21-.34a4.88,4.88,0,0,1,1.93-1.73Zm-1.27-3.3a4.57,4.57,0,0,1,1.06,1.76,1.74,1.74,0,0,1-.31.5c-.45.42-.93.8-1.41,1.2a32.11,32.11,0,0,0-4.12,3.7.42.42,0,0,1-.7,0,11.74,11.74,0,0,1-.75-1.22c-.85-1.59-1.05-1.4.54-2.58a43.47,43.47,0,0,1,4.21-2.94,5.64,5.64,0,0,1,.92-.46A.71.71,0,0,1,480.56,445.14Zm-.68-1.59c-.27.54-.76.68-1.17.9a44,44,0,0,0-5,3.52c-.27.2-.53.48-.87.12a.91.91,0,0,1-.21-1.27,5.3,5.3,0,0,1,.59-.57,60.8,60.8,0,0,0,5.25-4.92C479.27,442,479.37,442.9,479.88,443.55Zm-1.07-4.84a2.72,2.72,0,0,1-1-1.68c-.09-.31.13-.51.42-.57a2.68,2.68,0,0,1,.8-.07c.41,0,.56.29.55.68A2.52,2.52,0,0,1,478.81,438.71Zm.34-4c0,.35-.29.42-.56.47a20.42,20.42,0,0,0-3.43,1.21c-.58-.07-.69-.53-.89-.86-1.89-3.2-3.93-6.32-5.18-9.85l-.37-1a1.25,1.25,0,0,1,.1-1.17,11.28,11.28,0,0,0,.7-1.27,5.78,5.78,0,0,0,.57-2.8,4.34,4.34,0,0,0-.16-1,2,2,0,0,0-1.55-1.49c-.68-.1-1.47.64-1.66,1.57a9.41,9.41,0,0,0,0,3.7c.08.41.25.8.3,1.2a1.12,1.12,0,0,1-.14.78,7.55,7.55,0,0,1-2.48,2.15.78.78,0,0,1-1.08-.27c-.46-.68-.91-1.37-1.39-2.05a9.66,9.66,0,0,0-1.71-1.79,3.13,3.13,0,0,0-1.29-.61,1.23,1.23,0,0,0-1.6,1.34,4,4,0,0,0,1.11,2.39,6.94,6.94,0,0,0,3.64,2.23,1.66,1.66,0,0,1,1.28.9c1.86,3.69,3.78,7.35,5.35,11.18a2.77,2.77,0,0,1,.13.6c-.16.15-.3.29-.46.42a15.56,15.56,0,0,1-3,2.45,14.14,14.14,0,0,1-3.63.65c-1.08.2-2.15.47-3.24.65-4.77.81-12.2-.82-15.94-5.5a13.85,13.85,0,0,1-3.28-8.08A30.23,30.23,0,0,1,446,410a28.8,28.8,0,0,1,17.12-10.41,29.12,29.12,0,0,1,10.07-.5,18.4,18.4,0,0,1,15.46,14.88,16.27,16.27,0,0,1-3.44,13.57c-1.62,2.05-3.42,4-5.11,6C479.8,433.89,479.22,434.13,479.15,434.75Zm-17-8.17c-1.81-.88-3.09-1.7-3.59-3.34a.39.39,0,0,1,.13-.34.4.4,0,0,1,.36-.07,6.43,6.43,0,0,1,1.14.86A8.37,8.37,0,0,1,462.13,426.58Z"/><path fill="#030202" d="M136.29 368a31.45 31.45 0 00-19.86-1.29 30 30 0 00-15.4 9.56A30.57 30.57 0 0093.88 390a14.64 14.64 0 002.35 12.4 19.12 19.12 0 0014.39 7.86c1.16.1 2.34.1 3.51.15.89.05 1.79 0 2.12 1.18.1.34.81.34.84.06.12-1 .92-1.32 1.64-1.64a49.82 49.82 0 019-3.13c1.46-.34 1.5-.47 1.89 1.2.07.27.06.55.15.81a1.1 1.1 0 01-.54 1.39 47 47 0 01-5.63 3 1.63 1.63 0 01-1.33.33c-.2-1-.4-2.05-.61-3.06a.37.37 0 00-.47-.28c-.17 0-.42.24-.42.36a9.18 9.18 0 00.24 2c.33 1.22.16 2.11-1.1 2.68a2.93 2.93 0 00-1.42 1.46c-.44 1 0 1.86 1.11 1.83a24.44 24.44 0 002.5-.33c.16 1.69 1.1 3.06.83 4.73-.11.64.6.86 1 1.17s.68-.1 1-.39a2.11 2.11 0 011.51-.56c.52 0 .61.67.89 1a7.59 7.59 0 001.66 1.82 2.17 2.17 0 003.64-1.57 10.09 10.09 0 000-1.65c0-.41-.07-.82-.1-1.23A.67.67 0 01133 421l2-.64a2.7 2.7 0 00.72-.36.44.44 0 00.15-.55c-.08-.2-.2-.39-.43-.34-.54.11-1.07.27-1.61.38-.33.07-.49-.14-.57-.43-.14-.46-.32-.92.23-1.28a3.88 3.88 0 00.76-.7c1.05-1.26.67-2.65-.95-2.94a1.76 1.76 0 01-1.72-1.87 5.32 5.32 0 00-.25-1 1.24 1.24 0 01.41-1.47 4.2 4.2 0 00.72-.74c.64-.84 1.21-1.71.68-2.84-.21-.44.14-.59.43-.77a79.31 79.31 0 007.85-5.36 17.28 17.28 0 006.73-13.82A19.29 19.29 0 00136.29 368zm-15.08 49.37c-.52.09-1 .46-1.57.21-.27-.13.23-.86 1-1.36a2.43 2.43 0 01.35-.2c.39-.2.77.09.78.58A.63.63 0 01121.21 417.34zm1.12-10a14.94 14.94 0 01-.72-3.7c-.55-2.76-1.07-5.53-1.59-8.3-.14-.77-.1-.94.57-1 1.12-.14 2-.93 3.14-1.17.37 4.42 1.69 8.54 2.9 12.8zm3.17-17.71a1.3 1.3 0 01-.15.36c-.13.15-.28.33-.51.22a.42.42 0 01-.16-.32 2.09 2.09 0 01.31-1.54 2.88 2.88 0 01.79-1.84.44.44 0 01.35-.13.41.41 0 01.26.27 3 3 0 01-.89 3zm-2.76 26.67a1 1 0 01.17-1.3c.3-.18.61-.33.92-.48a57.66 57.66 0 005.66-3c.4-.25.74-.21.87.4s.25 1.21.4 2a45.9 45.9 0 00-7.11 2.5C123.33 416.55 123 416.63 122.74 416.26zm8.8 7.89a1.45 1.45 0 01-.72 1.39 1.34 1.34 0 01-1.49-.41 7.59 7.59 0 01-1.75-2.32l3.53-1.28A5.35 5.35 0 01131.54 424.15zm.94-9.11c.46-.17 1.28.34 1.24.75a1.12 1.12 0 01-.53.83c-.24.14-.51.28-.65-.09a7.92 7.92 0 01-.28-1.19A.39.39 0 01132.48 415zm-.26 4.23c.13.36.13.73-.25.86-1.86.64-3.73 1.24-5.6 1.85a.78.78 0 01-.73.38h0a2.08 2.08 0 01-.66.28c-.23 0-.28-.17 0-.32a1.25 1.25 0 011-.76 60.55 60.55 0 015.52-2.63C131.85 418.74 132.08 418.87 132.22 419.27zm-.95-3.43c.49 1.7.5 1.7-1.08 2.44a57.09 57.09 0 00-5.71 2.82 1.4 1.4 0 01-.45.06 13.43 13.43 0 01-.89-3.13 7.32 7.32 0 012.75-1.33 20 20 0 014.48-1.45A.71.71 0 01131.27 415.84zm.87-8.56a1 1 0 01-.12.38c-.26.38-.45 1-.94.95s-.46-.71-.59-1.14a1.25 1.25 0 010-.19c-.09-.64.1-.83.87-.77a4.29 4.29 0 01.5.12C132.14 406.74 132.18 407 132.14 407.28zm7.54-7.31c-2.07 1.48-4.23 2.85-6.34 4.27-.34.22-.77.32-1 .73s-.5.41-.86.39a10.27 10.27 0 00-3.08.24c-.49.13-.73-.09-.87-.59-1.1-3.91-2.33-7.78-2.68-11.86a1.93 1.93 0 01.63-1.83 7.66 7.66 0 001.72-2.3 3.77 3.77 0 00.29-2.81 1.44 1.44 0 00-2.45-.7 3.36 3.36 0 00-.86 1.38 10.62 10.62 0 00-.57 3.66 1.79 1.79 0 01-1 1.63 8.71 8.71 0 01-2.06.94c-.71.2-1 .05-1.24-.65a15.84 15.84 0 00-1.3-3.26 10.27 10.27 0 00-.91-1.38 2 2 0 00-1-.7 1.27 1.27 0 00-1.78 1.13 3.78 3.78 0 00.32 2 7 7 0 003.1 3.48 1.92 1.92 0 011.08 1.41c.69 3.58 1.39 7.16 2.07 10.75a16.2 16.2 0 01.17 1.82l-3.79 1.85a1.44 1.44 0 01-.79.12c-2.19-.21-4.4-.31-6.57-.62-5.58-.79-10.22-3.25-13.28-8.13A13.15 13.15 0 0195 390.21C98 379 105 371.32 116.2 368a29.46 29.46 0 0119.25.91 18.31 18.31 0 0110.67 22.73A16.58 16.58 0 01139.68 400zm-21.53-7.31c-1.61-1.1-2.52-2.21-2.71-3.81a.42.42 0 01.26-.48.67.67 0 01.56.16A10.81 10.81 0 01118.15 392.66zM88.82 139a19.4 19.4 0 00-6-10.43c-8.28-7.79-17.94-11.06-29.24-8.52a30.61 30.61 0 00-15.94 9 14.92 14.92 0 00-3.44 16.06 19.28 19.28 0 007.63 10c1.15.76 2.32 1.47 3.49 2.21.48.31.86.67.68 1.34a1.18 1.18 0 00.11.6c.09.27.68.45.83.2.36-.61.9-.57 1.45-.53a44.62 44.62 0 019.73 1.72c1.75.51 1.74.54 1.16 2.28a5.72 5.72 0 00-.17.59 1.18 1.18 0 01-1.23.87c-2.35.16-4.68-.1-7-.17-.55 0-.69-.27-.5-.84.29-.84.62-1.67.89-2.52 0-.12-.17-.36-.31-.49s-.37 0-.51.14a3.54 3.54 0 00-.76 1.67c-.35 1.37-1 2.18-2.56 2a2.83 2.83 0 00-1.93.63 1.14 1.14 0 000 1.91 11.28 11.28 0 001.1.55c.42.22 1 .12 1.33.67-.61 1.37-.42 3.08-1.57 4.33A.65.65 0 0046 173a3.73 3.73 0 00.63 1.26c.23.25.64-.19 1-.17a13.18 13.18 0 011.63.34c0 .59 0 1.15.12 1.68a9 9 0 00.46 2 2.17 2.17 0 003.93.56 8.12 8.12 0 00.94-1.59c.74-1.51.73-1.51 2.42-1.14.4.09.81.17 1.21.22a1 1 0 00.59-.06.86.86 0 00.34-.45.38.38 0 00-.17-.33c-.64-.24-1.29-.45-2.07-.72.19-.88.38-1.58 1.42-1.56a2.34 2.34 0 001.15-.42 1.53 1.53 0 00.47-2.31 8.1 8.1 0 00-1-1 .74.74 0 01-.27-.73c.24-.87.51-1.72.79-2.57a.92.92 0 01.75-.63 6.93 6.93 0 001-.24c1.23-.45 2.23-1.12 2.23-2.67a81 81 0 008.72-.5 18.44 18.44 0 008.54-2.84A19.39 19.39 0 0088.82 139zM46 165.79a3.41 3.41 0 011.93-.54c.29 0 .54.13.55.48s-.18.74-.54.78A2.05 2.05 0 0146 165.79zm6.77 12.27a1.06 1.06 0 01-1.84-.24 5.86 5.86 0 01-.57-2.76c0-.33.29-.45.57-.43a10 10 0 013.18.69A6.24 6.24 0 0152.74 178.06zm2.76-3.75c-1-.15-2-.35-3-.54-.54-.11-1.06-.24-1.59-.36a1.49 1.49 0 01-1.3-.29l-.72-.1h-.4c-.13 0-.25 0-.38 0s-.1-.07-.15-.1.09-.2.16-.22a1.13 1.13 0 01.37 0h.4a8 8 0 012.49 0 4.12 4.12 0 012.27.32c.68 0 1.36 0 2 .08.3 0 .44.28.41.58S55.93 174.38 55.5 174.31zm1.52-4c-.36 1.63-.39 1.65-2 1.55-.14 0-.27 0-.41 0h0c-1.57-.13-3.15-.32-4.72-.37-1.88-.07-2.12.3-1.46-1.86.12-.4.26-.79.4-1.17a.57.57 0 01.64-.39 34.73 34.73 0 017.08 1.28A.73.73 0 0157 170.31zm.42-1.9A42.5 42.5 0 0050 166.93c-.25 0-.56 0-.62-.39a1.25 1.25 0 01.7-1.14 2.49 2.49 0 01.61 0c2.4.22 4.8.26 7.2.25.11 0 .23.1.43.19-.16.57-.31 1.16-.5 1.74A7.16 7.16 0 0157.44 168.41zm1.58 2.3a.59.59 0 010 .9 1.48 1.48 0 01-.54.25c-.42.1-.69-.13-.6-.52a3.58 3.58 0 01.23-.79c0-.1.19-.16.29-.24C58.68 170.27 58.86 170.5 59 170.71zm-1.09-11.35c-.72-.14-1.44-.27-2.15-.43l-2.17-.5c-.28-.47.06-.8.2-1.16 1.38-3.43 2.57-6.93 3.73-10.45.23-.69.32-.78 1-.51a16 16 0 003.28.41 51.63 51.63 0 00-2.27 6.38C59 155.15 58.5 157.19 57.93 159.36zm-1.1-16.42c-.39-1.34-.73-2.68 0-4a.47.47 0 01.32-.22.38.38 0 01.43.33c.07.54.13 1.08.19 1.56-.12.83-.22 1.57-.35 2.32 0 .08-.19.2-.3.2A.37.37 0 0156.83 142.94zm5.25 20.39a2.13 2.13 0 01-1.4.68.37.37 0 01-.43-.48c.07-.26.15-.51.23-.77s.16-.66.51-.81.89.24 1.15.64a1.52 1.52 0 01.11.38A1.33 1.33 0 0162.08 163.33zm17.59-4.89a15.18 15.18 0 01-6.41 2.17c-2.94.32-5.9.49-8.86.72-.33 0-.68-.13-1 .13a.59.59 0 01-.76 0A19.79 19.79 0 0059 159.72c.89-3.34 1.53-6.52 2.67-9.55.36-1 .8-1.9 1.19-2.85a1.64 1.64 0 011.35-1.12 7.24 7.24 0 002.64-1.14 3.77 3.77 0 001.69-2.27 1.39 1.39 0 00-.41-1.51 1.47 1.47 0 00-1.54-.29 5.21 5.21 0 00-1.57 1 8.56 8.56 0 00-1.9 2.43 1.88 1.88 0 01-2 1.08 13 13 0 01-1.65-.12c-1.18-.18-1.3-.39-1.08-1.65a15.75 15.75 0 00.43-3.68 4.11 4.11 0 00-.39-1.8 1.35 1.35 0 00-2.47-.13 4.75 4.75 0 00-.64 3 6.74 6.74 0 001.06 3.51 1.56 1.56 0 01.15 1.55c-1.23 3.65-2.39 7.32-3.81 10.91-.54 1.39-.75 1.15-1.82 1.07s-1.93-.16-2.88-.27a1.48 1.48 0 01-.75-.27c-1.69-1.43-3.67-2.45-5.43-3.77a18.5 18.5 0 01-6.95-10.23 13.7 13.7 0 013.21-13.27 28.76 28.76 0 0113.65-8.57c11.48-3.35 21.47-.5 30.13 7.51a19.78 19.78 0 014.5 6.14A18.3 18.3 0 0179.67 158.44zM64.19 145a6.17 6.17 0 012.54-2.85.67.67 0 01.57 0 .53.53 0 01.12.72A4.11 4.11 0 0164.19 145z"/><path fill="#060505" d="M118.4,55.94h28.35a10.3,10.3,0,0,1,1.84.14.72.72,0,0,1,.52.8.67.67,0,0,1-.62.7,9.73,9.73,0,0,1-1.43.1q-28.56.11-57.12.19a7.47,7.47,0,0,1-1.64-.14.74.74,0,0,1-.52-.8.68.68,0,0,1,.62-.7,16.26,16.26,0,0,1,1.85-.11q14.07,0,28.15,0Z"/><path fill="#030202" d="M149.38 46.63a1 1 0 01-1 .83c-.47-.11-.93-.26-1.38-.41l-12.72-4.26-39.14-13c-.78-.26-1.55-.56-2.3-.89a.72.72 0 01-.39-.87.93.93 0 011-.63c.53.13 1.06.3 1.58.47l28.58 9.53 23.28 7.77c.66.22 1.3.46 1.94.71A1 1 0 01149.38 46.63zM151.86 65.82c-.06.13-.11.46-.3.59a17.53 17.53 0 01-1.77 1L121.18 82.68 101.67 93a15 15 0 01-1.67.8.74.74 0 01-.88-.38.68.68 0 01.09-.94 12 12 0 011.56-1L124.1 79.13l25-13.26a18.25 18.25 0 011.66-.82A.87.87 0 01151.86 65.82z"/><path fill="#140e0e" d="M404,44.42a.44.44,0,0,1-.41.45,1.06,1.06,0,0,1-.57-.13c-2.4-1.35-5-2.19-7.5-3.36s-5.07-2.42-7.6-3.63c-.25-.12-.49-.25-.73-.39s-.47-.37-.35-.67.57-.36.87-.25c.77.31,1.5.67,2.25,1,2.61,1.21,5.22,2.43,7.83,3.63,1.37.63,2.76,1.22,4.13,1.86a15.73,15.73,0,0,1,1.78,1C403.87,44.06,403.94,44.29,404,44.42Z"/><path fill="#120f0f" d="M40,93.14c.14.06.38.08.5.22a8.23,8.23,0,0,1,.88,1.14c2.6,4,5.46,7.78,8.26,11.62a7.21,7.21,0,0,1,1.1,2,.52.52,0,0,1-.33.66.41.41,0,0,1-.53-.19c-3-4.63-6.64-8.78-9.49-13.5a3.61,3.61,0,0,1-.76-1.45C39.63,93.37,39.76,93.25,40,93.14Z"/><path fill="#140d0d" d="M78.47 357.39c.19.08.59.21 1 .39C83.83 360 88.36 362 92.87 364a14.34 14.34 0 011.78 1 .59.59 0 01.22.73.46.46 0 01-.69.19c-4.88-2.5-10.09-4.3-14.91-6.92a3.23 3.23 0 01-1.37-.86.49.49 0 01-.06-.37C77.89 357.55 78 357.38 78.47 357.39zM415.47 402.76c.66.13 1.67.34 2.69.51 4.07.68 8.14 1.37 12.22 2a6.57 6.57 0 012.16.64.43.43 0 01.19.53.47.47 0 01-.42.37.45.45 0 01-.2 0c-4.49-1.09-9.12-1.3-13.62-2.3-1.34-.3-2.68-.61-4-.94a.39.39 0 01-.22-.51.72.72 0 01.25-.27.33.33 0 01.2-.05z"/><path fill="#231313" d="M74.3,385.53a50.67,50.67,0,0,0-6.73.26,1.12,1.12,0,0,1-.59-.12.6.6,0,0,1-.24-.3.4.4,0,0,1,.21-.51,1.39,1.39,0,0,1,.56-.23,26.8,26.8,0,0,1,2.67-.26c3.16,0,6.33,0,9.5,0a5.32,5.32,0,0,1,2.23.34.44.44,0,0,1,.18.34c0,.19,0,.41-.29.45a4.34,4.34,0,0,1-.61.06Z"/><path fill="#141313" d="M454 371.08a.81.81 0 01.64.44 32.63 32.63 0 011.57 2.91c1.43 3.35 2.81 6.73 4.2 10.1a1.83 1.83 0 01.06.81.41.41 0 01-.26.27.47.47 0 01-.38-.06 2 2 0 01-.62-1c-.68-1.65-1.35-3.31-2.05-5-1-2.41-2-4.83-3.28-7.13-.15-.29-.42-.57-.31-.95A.49.49 0 01454 371.08zM127.26 351.59a6.06 6.06 0 01-.11.77.38.38 0 01-.45.3c-.13 0-.31-.11-.33-.2-.15-.6-.3-1.2-.39-1.81-.45-3.13-.87-6.27-1.34-9.4-.17-1.15-.47-2.29-.7-3.44-.08-.41.14-.77.45-.77a.58.58 0 01.6.45 27.57 27.57 0 01.77 3.2C126.31 344.37 126.78 348.06 127.26 351.59z"/><path fill="#171616" d="M436.32,31.07a.62.62,0,0,1-.56.57.59.59,0,0,1-.44-.36c-.18-.88-.32-1.76-.43-2.64-.46-3.81-.94-7.63-1.77-11.38a2.27,2.27,0,0,1-.05-.82.38.38,0,0,1,.39-.38.47.47,0,0,1,.49.27,7.32,7.32,0,0,1,.45,1.37c.4,2.22.82,4.44,1.15,6.68s.52,4.22.77,6.33A2.15,2.15,0,0,1,436.32,31.07Z"/><path fill="#111" d="M455.54,23.48c-.15,1.12-.33,2.69-.57,4.24-.36,2.3-.76,4.6-1.13,6.9a4.57,4.57,0,0,1-.56,1.94.45.45,0,0,1-.35.11.43.43,0,0,1-.29-.21,4.23,4.23,0,0,1,.06-2c.25-1.76.56-3.52.81-5.28.3-2.1.57-4.21.87-6.31a6,6,0,0,1,.25-1.2.63.63,0,0,1,.42-.36c.33,0,.48.23.49.52S455.54,22.62,455.54,23.48Z"/><path fill="#121111" d="M90.71,99a2.61,2.61,0,0,1-.19,1.2,49.73,49.73,0,0,1-2.39,6.58c-.73,1.77-1.52,3.52-2.29,5.28-.13.32-.27.63-.42.94s-.34.48-.63.38-.37-.54-.27-.86a12.86,12.86,0,0,1,.53-1.34c.6-1.46,1.24-2.91,1.81-4.38.89-2.31,1.74-4.63,2.61-6.94.12-.33.22-.65.35-1a.48.48,0,0,1,.49-.28C90.59,98.57,90.62,98.79,90.71,99Z"/><path fill="#140f0f" d="M97.11,126.33c-.22-.14-.34-.34-.25-.53a6.18,6.18,0,0,1,.64-1q4.06-5.19,8.14-10.35a3.57,3.57,0,0,1,.43-.44c.19-.16.38-.07.55,0a.43.43,0,0,1,.16.54,3.85,3.85,0,0,1-.39.72c-.55.79-1.08,1.59-1.68,2.34-2,2.51-4.06,5-6.09,7.51a14.05,14.05,0,0,1-1,1.07C97.53,126.31,97.27,126.3,97.11,126.33Z"/><path fill="#191111" d="M425.48,428.49c0,.12,0,.31-.09.35a4.7,4.7,0,0,1-.93.39c-4.33,1.09-8.65,2.2-12.86,3.67a1.71,1.71,0,0,1-.59.11.49.49,0,0,1-.33-.2.41.41,0,0,1,0-.55,1.54,1.54,0,0,1,.47-.38,17.9,17.9,0,0,1,2.1-.82q5.06-1.41,10.14-2.76a8,8,0,0,1,1.62-.17A.46.46,0,0,1,425.48,428.49Z"/><path fill="#150f0f" d="M16.77,111.3a3.73,3.73,0,0,1,.71.13,12.88,12.88,0,0,1,1.32.58c3.35,1.73,6.58,3.66,9.82,5.6a6.84,6.84,0,0,1,1.12.89.59.59,0,0,1,.11.57.49.49,0,0,1-.71.15c-2.08-1.2-4.13-2.45-6.22-3.61a66,66,0,0,0-6-3.18,1.13,1.13,0,0,1-.5-.35.87.87,0,0,1-.1-.56C16.33,111.45,16.55,111.4,16.77,111.3Z"/><path fill="#111" d="M478.4,384.21c0,.28,0,.89,0,1.51a.34.34,0,0,1-.44.3c-.12,0-.3-.09-.34-.18a3.09,3.09,0,0,1-.2-.78c-.4-3.42-.78-6.84-1.18-10.25-.09-.75-.24-1.5-.32-2.25a14.83,14.83,0,0,1-.08-1.63.37.37,0,0,1,.24-.27c.19,0,.46,0,.54.16a2.8,2.8,0,0,1,.36,1,22.62,22.62,0,0,1,.42,2.44C477.73,377.43,478,380.65,478.4,384.21Z"/><path fill="#131010" d="M152.76,368.35c-.2.06-.33,0-.34-.18a1.46,1.46,0,0,1,0-.78,10.35,10.35,0,0,1,1.1-1.73,94.9,94.9,0,0,1,7.25-7.89,3.38,3.38,0,0,1,1.31-1,.5.5,0,0,1,.56.13.43.43,0,0,1,0,.56,8.09,8.09,0,0,1-.7.74c-2.37,2.29-4.61,4.71-6.79,7.18-.67.77-1.24,1.64-1.85,2.47C153.18,368.1,153,368.36,152.76,368.35Z"/><path fill="#141010" d="M471.87,36.15a1.39,1.39,0,0,1-.57.81c-2.43,2.33-4.71,4.8-6.95,7.3a25.61,25.61,0,0,0-2.24,2.94.35.35,0,0,1-.53.07.67.67,0,0,1-.23-.52,5.36,5.36,0,0,1,1.34-2.26c1.58-1.82,3.19-3.6,4.81-5.37.88-.95,1.82-1.86,2.76-2.76a4.59,4.59,0,0,1,1-.65c.09-.05.27,0,.37.1A1.4,1.4,0,0,1,471.87,36.15Z"/><path fill="#160f0f" d="M112.87,134.51a2,2,0,0,1,.5.13.51.51,0,0,1,.22.3.44.44,0,0,1-.09.36,1.94,1.94,0,0,1-.7.39c-3,.68-5.82,1.61-8.7,2.54a18.54,18.54,0,0,0-4.19,1.68.55.55,0,0,1-.75-.13c-.16-.25,0-.52.21-.71a2.18,2.18,0,0,1,.49-.37,13.51,13.51,0,0,1,1.67-.81,102.94,102.94,0,0,1,10-3.11C112,134.66,112.5,134.59,112.87,134.51Z"/><path fill="#121111" d="M496.13,380.64a1.35,1.35,0,0,1-.19.78c-.9,1.55-1.81,3.09-2.65,4.67a40.64,40.64,0,0,0-3.59,7.64c-.07.24-.27.52-.62.34a.61.61,0,0,1-.34-.68,9.94,9.94,0,0,1,.52-1.79,87.28,87.28,0,0,1,5.36-10.23c.25-.41.48-.86,1-1A.48.48,0,0,1,496.13,380.64Z"/><path fill="#131313" d="M144.12,357.63h-.39c-.34-.41-.2-.85-.09-1.29l.13-1.1c.34-.54,0-1.21.31-1.75.18-1.5.33-3,.55-4.5a57.53,57.53,0,0,0,.75-5.71,1.49,1.49,0,0,1,0-.21c0-.36.21-.73.58-.74s.58.33.58.71a12.93,12.93,0,0,1-.09,1.65c-.56,4.09-1.17,8.16-2,12.21C144.33,357.12,144.35,357.44,144.12,357.63Z"/><path fill="#1c1414" d="M20.63,134.62c.69,0,1.38,0,2.06,0,.14,0,.35.28.36.44a.59.59,0,0,1-.32.45,3.8,3.8,0,0,1-1,.15,76.28,76.28,0,0,0-9,.83,14.33,14.33,0,0,1-1.85.09.52.52,0,0,1-.55-.51c0-.28.21-.47.49-.57a1.89,1.89,0,0,1,.4-.08l9.46-1Z"/><path fill="#191212" d="M73.82,409.78c-.08-.15-.25-.33-.24-.5a.89.89,0,0,1,.32-.5,104.41,104.41,0,0,1,8.94-6.25c.33-.21.66-.52,1.12-.42a.55.55,0,0,1,.32.22.41.41,0,0,1,0,.37,1.24,1.24,0,0,1-.41.44,96.94,96.94,0,0,0-8.4,5.93,8.07,8.07,0,0,1-1.24.73C74.16,409.85,74,409.79,73.82,409.78Z"/><path fill="#181111" d="M383,88.74c-.14-.11-.29-.17-.33-.28a.53.53,0,0,1,0-.39,1.91,1.91,0,0,1,.41-.44c2.73-2.1,5.51-4.12,8.43-5.94,1-.63,1.75-.73,1.79-.33.1.84-.7.92-1.18,1.23q-3.53,2.32-6.89,4.89a18.23,18.23,0,0,1-1.71,1.15A1.74,1.74,0,0,1,383,88.74Z"/><path fill="#161313" d="M423.79,454.51c-.11-.2-.27-.36-.28-.54a1,1,0,0,1,.22-.55,90.61,90.61,0,0,1,6.92-8.22,5.83,5.83,0,0,1,1-.76c.06,0,.26.06.35.14s.21.27.18.35a2.2,2.2,0,0,1-.42.69c-2.21,2.36-4.24,4.89-6.21,7.46a9.85,9.85,0,0,1-1.13,1.2C424.25,454.41,424,454.43,423.79,454.51Z"/><path fill="#151414" d="M68.23,98.79a8.8,8.8,0,0,1,.07-3.07.44.44,0,0,1,.45-.33.42.42,0,0,1,.42.38c.1,1,.15,2,.24,3.08.19,2.34.4,4.67.58,7a10.1,10.1,0,0,1,0,1.65.44.44,0,0,1-.39.41.38.38,0,0,1-.45-.29,6.28,6.28,0,0,1-.22-1.21Q68.56,102.6,68.23,98.79Z"/><path fill="#161212" d="M413.18,24a.53.53,0,0,1,.53.23q3.18,4.68,6.35,9.37a1,1,0,0,1,.15.57c0,.1-.11.25-.21.32a.53.53,0,0,1-.37.06.64.64,0,0,1-.32-.24c-2-2.86-4-5.72-6-8.61a1.78,1.78,0,0,1-.5-1.31C412.84,24.2,412.93,24,413.18,24Z"/><path fill="#161111" d="M445.8,392.25a.38.38,0,0,1-.42.34,1.08,1.08,0,0,1-.56-.2c-2.58-2.15-5.16-4.3-7.71-6.48a2.87,2.87,0,0,1-1-1.25c0-.12,0-.33.06-.38a.76.76,0,0,1,.53-.18,1.18,1.18,0,0,1,.51.32l7.32,6.3c.41.36.79.76,1.17,1.15A1.07,1.07,0,0,1,445.8,392.25Z"/><path fill="#161212" d="M104.13,345c.39,0,.55.32.74.6,1.74,2.55,3.5,5.08,5.23,7.64a14.7,14.7,0,0,1,1,1.77.58.58,0,0,1-.21.52c-.12.08-.37,0-.56-.08s-.1-.08-.13-.14c-2-2.81-3.94-5.61-5.88-8.43a2.57,2.57,0,0,1-.61-1.49A.41.41,0,0,1,104.13,345Z"/><path fill="#181717" d="M446.45,462.71c.19-1,.41-2.23.64-3.45a47.87,47.87,0,0,1,1.52-5.76,4.06,4.06,0,0,1,.45-.91c.05-.08.24-.09.36-.11a.34.34,0,0,1,.38.37,3.44,3.44,0,0,1-.16,1,52.9,52.9,0,0,0-2,9.23l-.06.41a.63.63,0,0,1-.53.55c-.28,0-.48-.23-.53-.52S446.49,463.12,446.45,462.71Z"/><path fill="#151212" d="M99.42,414.83a6.36,6.36,0,0,1-.32.65,65.81,65.81,0,0,0-4.56,8.78,1.71,1.71,0,0,1-.27.54c-.12.16-.31.33-.51.2a.73.73,0,0,1-.33-.46,3.18,3.18,0,0,1,.2-1,46.4,46.4,0,0,1,4.65-8.71.8.8,0,0,1,.65-.44C99.15,414.4,99.31,414.52,99.42,414.83Z"/><path fill="#171212" d="M29.9,153.11a1.1,1.1,0,0,1-.06.37c-.17.33-.51.43-.81.59a62,62,0,0,0-8,5.12,3.4,3.4,0,0,1-.71.42.42.42,0,0,1-.35-.09.44.44,0,0,1-.16-.55,4.4,4.4,0,0,1,1.45-1.43,44.48,44.48,0,0,1,5.39-3.41c.84-.47,1.69-.9,2.56-1.31A.44.44,0,0,1,29.9,153.11Z"/><path fill="#141b1b" d="M391,63.76c.31.15.38.4.09.59a1.34,1.34,0,0,1-.76.18c-4.51-.09-9,0-13.51.15a1.55,1.55,0,0,1-.61,0c-.17,0-.41-.21-.43-.36a.63.63,0,0,1,.27-.49,1.38,1.38,0,0,1,.59-.09A101.21,101.21,0,0,1,391,63.76Z"/><path fill="#161313" d="M408.42,93.72a1.91,1.91,0,0,1-.15.54,63.59,63.59,0,0,0-4.72,9.13.77.77,0,0,1-.21.35,1.11,1.11,0,0,1-.55.17.36.36,0,0,1-.31-.44,12.33,12.33,0,0,1,.44-1.58,44.63,44.63,0,0,1,3.11-6,27.63,27.63,0,0,1,1.6-2.39c.08-.12.37-.14.56-.12S408.32,93.56,408.42,93.72Z"/><path fill="#191212" d="M166.32,377.62c-.07.1-.11.28-.21.32a11,11,0,0,1-1.35.51c-1.92.55-3.84,1.1-5.77,1.62a5.7,5.7,0,0,0-2.27.92.39.39,0,0,1-.55,0,.57.57,0,0,1-.08-.75,1.49,1.49,0,0,1,.6-.54,10.47,10.47,0,0,1,1.36-.49c2.11-.63,4.22-1.26,6.34-1.87a3.11,3.11,0,0,1,1.63-.16A.41.41,0,0,1,166.32,377.62Z"/><path fill="#1d1414" d="M105.66,154.91l-4.27-1.06c-1-.25-2-.5-3-.78a3.89,3.89,0,0,0-1.82-.23c-.31,0-.53-.07-.56-.41a.68.68,0,0,1,.39-.67,1.28,1.28,0,0,1,1-.07c2.73.65,5.47,1.31,8.2,2a1.83,1.83,0,0,1,.72.37.79.79,0,0,1,.13.56c0,.09-.15.21-.26.26A2.16,2.16,0,0,1,105.66,154.91Z"/><path fill="#1b1212" d="M474.72,56c.26.08.54.14.62.45a.51.51,0,0,1-.39.62c-1.18.36-2.37.65-3.54,1-1.93.66-4,.81-5.8,1.93a.38.38,0,0,1-.36-.1c-.11-.15-.24-.39-.2-.53a1.26,1.26,0,0,1,.47-.63,4.85,4.85,0,0,1,1.13-.45q3.33-1,6.67-2C473.77,56.17,474.25,56.1,474.72,56Z"/><path fill="#191111" d="M496,405.35c-.1-.08-.29-.16-.29-.25a1.43,1.43,0,0,1,.09-.78,2.33,2.33,0,0,1,.73-.7c2.29-1.4,4.58-2.8,6.89-4.17.76-.45,1.36-.45,1.41-.06.08.61-.42.81-.82,1.05-1.48.88-3,1.74-4.43,2.64a10.84,10.84,0,0,0-3.2,2.21C496.3,405.37,496.11,405.33,496,405.35Z"/><path fill="#1e1c1c" d="M80.17,176.18c-.11.19-.16.34-.26.41a.46.46,0,0,1-.37.08,1.32,1.32,0,0,1-.5-.33,5.52,5.52,0,0,1-.73-1q-1.66-3.2-3.29-6.42a.5.5,0,0,1,.31-.67.59.59,0,0,1,.55,0,3.06,3.06,0,0,1,.59.83c.56,1.1,1.08,2.23,1.65,3.33s1.15,2,1.71,3.06C80,175.74,80.07,176,80.17,176.18Z"/><path fill="#241b1b" d="M158,394.58c-1,0-1.92,0-2.88,0a.5.5,0,0,1-.48-.55.64.64,0,0,1,.4-.42,7.47,7.47,0,0,1,1.42-.19A60.16,60.16,0,0,0,163,393a1.11,1.11,0,0,1,.6.06.7.7,0,0,1,.36.45.57.57,0,0,1-.29.46,3.21,3.21,0,0,1-1,.25A41.13,41.13,0,0,1,158,394.58Z"/><path fill="#1c1515" d="M455.58,83.62c.24-.07.53.1.82.29,1.54,1,3.08,2.06,4.64,3.06.69.45,1.43.81,2.12,1.25a.65.65,0,0,1,.17.54c0,.21-.25.28-.47.29a2.42,2.42,0,0,1-1.35-.42c-.81-.51-1.62-1-2.44-1.52a42.91,42.91,0,0,0-3.76-2.49c-.13-.07-.2-.34-.22-.53S455.26,83.74,455.58,83.62Z"/><path fill="#241a1a" d="M500.22,434.11l-2-.53c-1.86-.5-3.57-1.45-5.48-1.81a.51.51,0,0,1-.37-.63.57.57,0,0,1,.58-.49,4.53,4.53,0,0,1,1,.26,64.63,64.63,0,0,0,7.1,2.17.6.6,0,0,1,.53.54c0,.25-.41.59-.74.57Z"/><path fill="#1b1212" d="M146.56,404.55c.32.17.63.3.91.48,1.49,1,3,2,4.46,3,.69.44,1.43.79,2.13,1.22a.66.66,0,0,1,.23.51c0,.32-.34.42-.63.37a5.54,5.54,0,0,1-2.22-1c-1.73-1.11-3.44-2.24-5.15-3.38a.51.51,0,0,1-.2-.71A2.53,2.53,0,0,1,146.56,404.55Z"/><path fill="#1c1414" d="M96.53,167c.08.27-.28.67-.48.61a6.43,6.43,0,0,1-1.35-.43c-2.06-1.05-4.11-2.13-6.16-3.22a1.08,1.08,0,0,1-.39-.43.43.43,0,0,1,0-.38.44.44,0,0,1,.31-.22,1.34,1.34,0,0,1,.58.14q3.59,1.74,7.16,3.52C96.38,166.67,96.46,166.9,96.53,167Z"/><path fill="#232222" d="M463.86,456.8c.06,1.22.13,2.45.16,3.67a.53.53,0,0,1-.51.55.58.58,0,0,1-.54-.52,55.61,55.61,0,0,1-.38-6.95,1.92,1.92,0,0,1,.28-.74c.06-.1.25-.23.33-.21s.42.19.44.33a8.29,8.29,0,0,1,.11,1.41c0,.82,0,1.64,0,2.46Z"/><path fill="#1b1313" d="M506.73,415.49c0,.22,0,.42-.22.53a8.88,8.88,0,0,1-1.28.62c-2.07.68-4.16,1.32-6.24,2a1.12,1.12,0,0,1-1,0,.33.33,0,0,1-.12-.51,1.47,1.47,0,0,1,.66-.42q3.68-1.28,7.36-2.51C506.31,415,506.7,415.2,506.73,415.49Z"/><path fill="#201d1d" d="M34.09,169.14c-.28,0-.46-.18-.48-.4a.85.85,0,0,1,.15-.56,60.58,60.58,0,0,1,4.56-5.05,1.33,1.33,0,0,1,.51-.35.83.83,0,0,1,.58.05c.33.2.18.52,0,.71q-2.4,2.7-4.85,5.35A1.58,1.58,0,0,1,34.09,169.14Z"/><path fill="#1c1111" d="M471.06,72.09c.54,0,1.09,0,1.63,0,.09,0,.19.16.25.26a.36.36,0,0,1-.16.52,3.76,3.76,0,0,1-1.17.35c-2.32.14-4.65.25-7,.37a.88.88,0,0,1-.75-.24.53.53,0,0,1-.15-.36c0-.13.09-.32.18-.35a4.24,4.24,0,0,1,1-.2c2-.12,4.1-.22,6.15-.32Z"/><path fill="#1b1a1a" d="M421.73,97.57c0,.13,0,.26-.05.4-.45,2.14-.92,4.28-1.36,6.43-.09.42-.22.8-.68.92-.31.09-.61-.55-.49-1.15.41-2,.82-3.89,1.27-5.82a3.8,3.8,0,0,1,.55-1.08c0-.08.25-.11.37-.1A.41.41,0,0,1,421.73,97.57Z"/><path fill="#1b1919" d="M110.1,425.31c.43-2.05.78-4.29,1.45-6.45a1,1,0,0,1,.32-.52.88.88,0,0,1,.56-.12c.08,0,.19.19.22.3a1,1,0,0,1,0,.41q-.66,3.12-1.33,6.23a3.76,3.76,0,0,1-.35,1,.4.4,0,0,1-.51.21.48.48,0,0,1-.33-.45A5.52,5.52,0,0,1,110.1,425.31Z"/><path fill="#550707" d="M391,63.76l-14.36,0a4,4,0,0,1,2-.38c3.55,0,7.11,0,10.66,0C389.84,63.33,390.51,63.21,391,63.76Z"/><path fill="#303232" d="M144.08 353.49a1.79 1.79 0 01-.31 1.75A2.66 2.66 0 01144.08 353.49zM143.64 356.34l.09 1.29C143.08 357.24 143.41 356.79 143.64 356.34zM144.12 357.63a.75.75 0 01.37-.73C144.56 357.24 144.56 357.55 144.12 357.63z"/><path fill="#1e40af" d="M267.69 117.68c7.35-2.82 13.83-6.75 20.27-10.77a191.18 191.18 0 0019.49-13.63c1.33-1.08 2.57-2.28 3.86-3.43.32-.28.68-.22.8.15s.33 1 .49 1.58a156.46 156.46 0 014.87 20.71c.69 4.22 1.16 8.47 1.45 12.74s.68 8.52 1.05 12.78c.13 1.51.29 3 .46 4.53a2.59 2.59 0 00.34.95.59.59 0 00.51.21c.16 0 .41-.23.42-.36a11.42 11.42 0 000-1.85c-.48-4.95-.91-9.89-1.25-14.84a139.36 139.36 0 00-3-21.7c-.43-1.88-.84-3.76-1.27-5.64a.44.44 0 01.16-.53.45.45 0 01.39 0c1.29.67 2.57 1.34 3.84 2 2.18 1.19 4.36 2.37 6.51 3.6a15.1 15.1 0 012 1.41 61.46 61.46 0 0117.38 21.82A106.64 106.64 0 01352.93 144a85.1 85.1 0 012.8 14.39q.86 8.24 1.52 16.48c.28 3.5.46 7 .63 10.53.39 8.2.74 16.4 1.11 24.6.26 5.51.58 11 .77 16.53.25 6.76.41 13.52.58 20.28.12 5 .18 9.93.26 14.9.09 6.49-.19 13-.57 19.44-.07 1.24-.1 2.48-.11 3.72 0 5.31-.07 10.63 0 15.94A118.75 118.75 0 00361 315.05c1.19 9.38 2.77 18.68 4.64 27.94a114.49 114.49 0 005.72 19.62 7.05 7.05 0 01.8 2.54 8.4 8.4 0 01-2.51 1.28 66.13 66.13 0 01-8.76 2.45 62.35 62.35 0 01-13.55 1.33c-1.93 0-3.86.16-5.79.25-5 .22-9.94.24-14.9 0-4-.18-8-.47-12-.8-1.72-.14-3.41-.52-5.12-.75-3-.41-6-.79-9-1.18-.27 0-.55-.05-.82-.09-1-.17-1.33-.42-1.49-1.43-.31-2-.56-4.1-.84-6.15a133.35 133.35 0 01-.86-13.41c-.21-6.68-.54-13.37-.9-20-.15-2.69-.48-5.36-.84-8-.5-3.77-.52-7.57-.65-11.35-.25-7-.76-14.05-1.13-21.08-.22-4.06-.5-8.12-1-12.16-.37-3-.75-6-1-9.05-.32-3.57-.95-7.1-1.36-10.66-.26-2.26-.35-4.54-.45-6.81q-.31-7-.56-14.06a26.79 26.79 0 010-2.69 108.48 108.48 0 00-.27-13.85c0-.62-.06-1.24-.07-1.86a162.59 162.59 0 00-1.19-16.5c-.06-.48 0-1-.08-1.46.65.09.73.63.95 1a58.17 58.17 0 005.29 7.65 21.16 21.16 0 0013.46 7.42 34.13 34.13 0 0010.91.07 32.94 32.94 0 005.4-1.4c3.45-1.2 6.87-2.48 10.29-3.77a46 46 0 006.95-3.65c.84-.49 1.13-1.12.77-1.43-.57-.49-1 0-1.48.26-5.79 3.62-12.2 5.76-18.65 7.78a30.36 30.36 0 01-16.35.25 18.77 18.77 0 01-10-6.21 55 55 0 01-7.83-12.38 109.41 109.41 0 01-8.37-25c-1.51-7.36-3-14.72-4.43-22.09a66.44 66.44 0 01-1-7.17 57.11 57.11 0 00-4-17.47C268.49 119.9 268.14 118.86 267.69 117.68zM193.47 158.48c.18-7.31.38-14.62.85-21.92.14-2.13.44-4.25.63-6.38s.32-4 .45-6c.08-1.37.11-2.75.16-4.13a.79.79 0 01.7-.86 50.62 50.62 0 0012.21-4.45c11-5.21 21.52-11.21 31.93-17.45.77-.46 1.54-.93 2.32-1.37a.74.74 0 011.18.62 16.56 16.56 0 01.1 1.86 61.82 61.82 0 01-.66 8c-.45 4-1 7.93-1.16 11.94-.24 5.51-.44 11-.82 16.53-.45 6.6-.83 13.21-1.45 19.81s-1.41 13-2.11 19.53c-.65 6.18-1.45 12.33-2.57 18.43-.29 1.56-.66 3.1-1 4.65a6.78 6.78 0 01-2.41 3.52 16 16 0 01-4.65 3.06 33.39 33.39 0 01-15.12 2.73 21 21 0 01-10.9-4.09 13.91 13.91 0 01-4.83-6.33 37.41 37.41 0 01-2.1-8.41 138.18 138.18 0 01-.91-19.82C193.32 164.82 193.41 161.65 193.47 158.48z"/><path fill="#1e40af" d="M224 361.7a83.29 83.29 0 011.47-18.31 118.78 118.78 0 002.44-19.27c.19-4.2.64-8.39 1-12.58.18-2.2.4-4.39.54-6.6.34-5.3 1-10.57 1.57-15.84.81-7.2 2.06-14.34 2.92-21.52.54-4.52 1-9.05 1.39-13.58s.87-9.07 1.07-13.62a163.68 163.68 0 00.27-17.16c-.3-5-.61-10.06-.81-15.09-.14-3.38-.13-6.76-.15-10.14a7.62 7.62 0 01.23-1.63 127.89 127.89 0 002.3-13.44c.8-6.51 1.59-13 2.32-19.52.4-3.49.68-7 1-10.5q.6-7.32 1.12-14.65c.2-3 .35-5.92.49-8.88a5.68 5.68 0 01.59-2.37 53.41 53.41 0 013.31-5.72q1.68-2.49 3.26-5a37.23 37.23 0 019.59-10.46 57.65 57.65 0 0112.65-7.38 3.34 3.34 0 011.74-.46c.17.86-.59 1.15-1 1.59q-4.89 4.77-9.84 9.47a149.88 149.88 0 00-15.94 17.65 23 23 0 00-2.75 4.36c-.45 1 0 1.68 1.1 1.54a19.47 19.47 0 002.62-.59 14.56 14.56 0 015.34-.31c.42 0 .63.36.45.69-.29.55-.62 1.08-.92 1.62-1.73 3.14-3.58 6.21-5.21 9.4a39.53 39.53 0 00-3.64 10.95 119 119 0 00-1.72 14.58c-.2 3.3-.53 6.6-.74 9.9-.38 6.06-.7 12.12-1.06 18.18a95.19 95.19 0 000 11.58c.26 4.07.72 8.1 1.34 12.13a71.33 71.33 0 001.87 8.68 7.39 7.39 0 01.18 3.27c-.6 3.67-1.23 7.34-1.78 11q-.6 4-1 8-.83 7.61-1.57 15.22c-.35 3.5-.65 7-1 10.51-.29 3.09-.57 6.18-.89 9.27-.45 4.39-.61 8.8-.65 13.22-.06 8.21 0 16.42-.22 24.63-.12 5.79-.41 11.59-.79 17.37-.37 5.43-1 10.85-1.44 16.28-.37 4.33-.66 8.66-1 13 0 .42-.05.83-.09 1.24-.07.56-.36.77-.83.52a5.37 5.37 0 00-3.42-.41 25.81 25.81 0 01-4.12.22c-1.83-.06-2.07-.46-1.91-2.12a50.84 50.84 0 00.4-6.41C224 363.36 224 362.53 224 361.7zM303.36 507.24a23.11 23.11 0 01-6.37-.48 6.52 6.52 0 01-3.76-2.38 4.46 4.46 0 01-.5-4.69 7 7 0 011.85-2.45 33.36 33.36 0 016.62-4.57 95.68 95.68 0 0114.23-6.13c4.16-1.48 8.41-2.65 12.67-3.78 1.26-.33 2.56-.52 3.85-.74a.78.78 0 011 .52c.39 1 1.31 1.32 2.29 1.52a17 17 0 006.16-.23 22.25 22.25 0 004.38-1.22 1.23 1.23 0 011.16.08 18.87 18.87 0 017.39 6.76 10.22 10.22 0 011.4 6.36 5 5 0 01-2.81 4.29 23.49 23.49 0 01-4.63 1.73 75.89 75.89 0 01-10.76 2.05c-7 .84-14 1.67-20.95 2.37C312.17 506.69 307.78 507.23 303.36 507.24z"/><path fill="#1e40af" d="M250,506.12c-1,0-2.75-.08-4.55-.16a8.26,8.26,0,0,1-3.56-1,2.93,2.93,0,0,1-1.43-4,9.31,9.31,0,0,1,1.81-2.75,22.21,22.21,0,0,1,3.2-2.93,81.68,81.68,0,0,1,28.64-13.91,7.83,7.83,0,0,1,4.83.17,24.23,24.23,0,0,0,8.26,1.72,16.45,16.45,0,0,0,7.21-1.55c1-.5,1.16-.44,2,.39a12.35,12.35,0,0,1,3.73,7c.05.41.09.82.14,1.23a1.69,1.69,0,0,1-.95,1.87,27.57,27.57,0,0,0-2.61,1.68c-.95.68-1.88,1.4-2.77,2.15a7.71,7.71,0,0,0-2.8,4.24,1.28,1.28,0,0,1-1.14,1c-2.15.46-4.3,1-6.47,1.35-5.5,1-11,1.62-16.6,2.21C261.51,505.42,256.16,505.94,250,506.12Z"/><path fill="#050300" d="M342.21,281.13a27.8,27.8,0,0,1-18.41-6.74,43.38,43.38,0,0,1-5-5.25,10.31,10.31,0,0,1-.71-1,.64.64,0,0,1,.07-.76.58.58,0,0,1,.9.09c1.15,1.39,2.38,2.68,3.61,4a26.44,26.44,0,0,0,14.48,7.87,22,22,0,0,0,12.62-.79c.45-.18.91-.46,1.29.08s-.05.92-.78,1.22a17.73,17.73,0,0,1-5.61,1.31C343.87,281.17,343,281.13,342.21,281.13Z"/><path fill="#090500" d="M331.53,124.65a7.35,7.35,0,0,1,4,1.22,12.45,12.45,0,0,1,4.13,4.52,1.1,1.1,0,0,1,.18.59.73.73,0,0,1-.28.51.68.68,0,0,1-.57,0,1.93,1.93,0,0,1-.59-.55c-.45-.61-.85-1.26-1.31-1.86-2.73-3.48-6.53-3.7-10-1.94a28.53,28.53,0,0,0-2.42,1.57c-.29.19-.6.36-.92,0s-.25-.7.18-1.07A11.82,11.82,0,0,1,331.53,124.65Z"/><path fill="#060300" d="M302.4,504.62a11.93,11.93,0,0,1-3.48-.33,4.39,4.39,0,0,1-3-2.06,2,2,0,0,1,.54-2.73.52.52,0,0,1,.74.06,1.13,1.13,0,0,1,.15.55c0,.12-.12.24-.17.37-.29.8-.22,1.17.3,1.62a4.16,4.16,0,0,0,2.66,1,63.48,63.48,0,0,0,7.42-.21c4.32-.39,8.53-1.49,12.81-2.1,2.05-.29,4.1-.52,6.14-.77a1.5,1.5,0,0,1,1,.13.48.48,0,0,1,.27.5.73.73,0,0,1-.17.34,1.65,1.65,0,0,1-1.14.41c-4.73.47-9.38,1.39-14.05,2.26A84.61,84.61,0,0,1,302.4,504.62Z"/><path fill="#090500" d="M254.77,502.69a46.7,46.7,0,0,0,8.16-1.11c2.29-.43,4.56-1,6.84-1.49a8.38,8.38,0,0,1,1.21-.25.6.6,0,0,1,.64.4.54.54,0,0,1-.24.71,8.1,8.1,0,0,1-1.35.5,87.06,87.06,0,0,1-9.47,2c-1.76.28-3.54.46-5.31.68a10.63,10.63,0,0,1-4.48-.47,3.29,3.29,0,0,1-1.64-5.31,2.42,2.42,0,0,1,.64-.49.4.4,0,0,1,.37.05c.14.13.33.35.3.48a4.79,4.79,0,0,1-.41.93c-.71,1.61-.24,2.62,1.46,3.12A11,11,0,0,0,254.77,502.69Z"/><path fill="#100b0b" d="M275.64,82.31c-3.07-.06-5.6-.73-7.62-2.75a7.66,7.66,0,0,0-1.81-1.34.53.53,0,0,1-.26-.7.72.72,0,0,1,.82-.48,1.86,1.86,0,0,1,.75.29,7.42,7.42,0,0,1,1.12.89c2.06,2.17,4.66,2.76,7.51,2.65,1.17,0,2.33-.14,3.5-.18a2.35,2.35,0,0,1,.78.15c.22.06.27.52.11.71a1,1,0,0,1-.69.38Z"/><path fill="#070606" d="M174.19 47.42a1.62 1.62 0 01.46.33.56.56 0 01-.11.74.66.66 0 01-.15.14c-1.93.93-2.68 2.72-3.18 4.6a17.39 17.39 0 00.11 9.57 6.59 6.59 0 00.24.79c.68 1.68 1.44 3.3 3.4 3.88a.6.6 0 01.42.81.71.71 0 01-.82.47 3.78 3.78 0 01-2.15-1.14 8.26 8.26 0 01-1.83-2.72 16.67 16.67 0 01-1.35-6.42 17.56 17.56 0 011-6.89 8.21 8.21 0 012.08-3.28A2.8 2.8 0 01174.19 47.42zM214.89 57.34a15 15 0 015.33-11.63 8 8 0 011.18-.82.57.57 0 01.73.2.5.5 0 01.06.73 13.84 13.84 0 01-1.08 1 13.91 13.91 0 00-4.08 15 11 11 0 004 5.41 13.81 13.81 0 011.13.89.42.42 0 01.07.56c-.15.25-.36.49-.65.4a4.26 4.26 0 01-1.1-.52 12.57 12.57 0 01-5.07-7.31A12.16 12.16 0 01214.89 57.34z"/><path fill="#312c27" d="M313.27,68.57a1.9,1.9,0,0,1-1.48.05,5.25,5.25,0,0,0,.12-2.64.81.81,0,0,1,0-.41.69.69,0,0,1,.53-.56.56.56,0,0,1,.66.34,3.25,3.25,0,0,1,.35,1.59C313.42,67.48,313.33,68,313.27,68.57Z"/><path fill="#1e40af" d="M316.12,70.38c-.37-.48-.81-.92-1.21-1.38l-1.64-.43c-.52-.58-1-.21-1.48.05-3.42.65-5.07,5.57-2.38,8.81.3.36.58.74.88,1.12a14,14,0,0,0,1.54.53,4.22,4.22,0,0,0,4.95-2.35A5.67,5.67,0,0,0,316.12,70.38Zm-2.58,7.47a3.19,3.19,0,0,1-3.07-1.29,5,5,0,0,1-1-2.88,5.42,5.42,0,0,1,1.08-3,.6.6,0,0,1,.52-.18c.31.11.32.39.15.66a5.43,5.43,0,0,0-.74,1.91,3.75,3.75,0,0,0,.35,2.4A2.79,2.79,0,0,0,312.64,77a9.89,9.89,0,0,1,1,.28.41.41,0,0,1,.16.33A.37.37,0,0,1,313.54,77.85ZM315,77a.73.73,0,0,1-.59-.74.72.72,0,0,1,.89-.61.66.66,0,0,1,.58.74A.79.79,0,0,1,315,77Z"/></g></svg>